SplineFontDB: 3.0
FontName: RisingSun-BlackItalic
FullName: Rising Sun Black Italic
FamilyName: Rising Sun Black
Weight: Black
Copyright: Copyright (c) 2010 - 2013, Matt McInerney (matt@pixelspread.com), Pablo Impallari (impallari@gmail.com), Rodrigo Fuenzalida (hello@rfuenzalida.com) with Reserved Font Name RALEWAY.\nCopyright (c) 2016, Cristiano Sobral (cssobral2013@gmail.com), with Reserved Font Name RISING SUN.
Version: 1.000
ItalicAngle: -12
UnderlinePosition: -100
UnderlineWidth: 50
Ascent: 800
Descent: 200
InvalidEm: 0
sfntRevision: 0x00010000
LayerCount: 2
Layer: 0 1 "Back" 1
Layer: 1 1 "Fore" 0
XUID: [1021 368 144034212 8224]
StyleMap: 0x0021
FSType: 4
OS2Version: 3
OS2_WeightWidthSlopeOnly: 0
OS2_UseTypoMetrics: 0
CreationTime: 1372299720
ModificationTime: 1466168845
PfmFamily: 17
TTFWeight: 900
TTFWidth: 5
LineGap: 0
VLineGap: 0
Panose: 2 11 10 3 3 1 1 6 0 3
OS2TypoAscent: 800
OS2TypoAOffset: 0
OS2TypoDescent: -200
OS2TypoDOffset: 0
OS2TypoLinegap: 0
OS2WinAscent: 930
OS2WinAOffset: 0
OS2WinDescent: 254
OS2WinDOffset: 0
HheadAscent: 930
HheadAOffset: 0
HheadDescent: -254
HheadDOffset: 0
OS2SubXSize: 700
OS2SubYSize: 650
OS2SubXOff: 0
OS2SubYOff: 140
OS2SupXSize: 700
OS2SupYSize: 650
OS2SupXOff: 0
OS2SupYOff: 477
OS2StrikeYSize: 50
OS2StrikeYPos: 250
OS2CapHeight: 710
OS2XHeight: 526
OS2Vendor: 'pyrs'
OS2CodePages: 20000093.00000000
OS2UnicodeRanges: a00000ff.5000205b.00000000.00000000
Lookup: 1 0 0 "'aalt' Access All Alternates in Latin lookup 0" { "'aalt' Access All Alternates in Latin lookup 0 subtable"  } ['aalt' ('latn' <'dflt' > ) ]
Lookup: 3 0 0 "'aalt' Access All Alternates in Latin lookup 1" { "'aalt' Access All Alternates in Latin lookup 1 subtable"  } ['aalt' ('latn' <'dflt' > ) ]
Lookup: 1 0 0 "'smcp' Lowercase to Small Capitals in Latin lookup 2" { "'smcp' Lowercase to Small Capitals in Latin lookup 2 subtable"  } ['smcp' ('latn' <'dflt' > ) ]

StartChar: exclam
Encoding: 33 33 5
Width: 330
GlyphClass: 2
Flags: W
LayerCount: 2
Fore
SplineSet
70 300 m 1,0,-1
 158 717 l 1,1,-1
 348 717 l 1,2,-1
 260 300 l 1,3,-1
 70 300 l 1,0,-1
6 0 m 1,4,-1
 45 184 l 1,5,-1
 235 184 l 1,6,-1
 196 0 l 1,7,-1
 6 0 l 1,4,-1
EndSplineSet
EndChar

StartChar: quotedbl
Encoding: 34 34 6
Width: 472
GlyphClass: 2
Flags: W
LayerCount: 2
Fore
SplineSet
92 496 m 1,0,-1
 142 730 l 1,1,-1
 302 730 l 1,2,-1
 252 496 l 1,3,-1
 92 496 l 1,0,-1
300 496 m 1,4,-1
 350 730 l 1,5,-1
 510 730 l 1,6,-1
 460 496 l 1,7,-1
 300 496 l 1,4,-1
EndSplineSet
EndChar

StartChar: numbersign
Encoding: 35 35 7
Width: 727
GlyphClass: 2
Flags: W
LayerCount: 2
Fore
SplineSet
712 397 m 1,0,-1
 559 397 l 1,1,-1
 524 310 l 1,2,-1
 645 310 l 1,3,-1
 615 170 l 1,4,-1
 460 170 l 1,5,-1
 385 0 l 1,6,-1
 235 0 l 1,7,-1
 310 170 l 1,8,-1
 263 170 l 1,9,-1
 189 0 l 1,10,-1
 38 0 l 1,11,-1
 113 170 l 1,12,-1
 7 170 l 1,13,-1
 37 310 l 1,14,-1
 177 310 l 1,15,-1
 212 397 l 1,16,-1
 104 397 l 1,17,-1
 132 527 l 1,18,-1
 272 527 l 1,19,-1
 353 710 l 1,20,-1
 504 710 l 1,21,-1
 422 527 l 1,22,-1
 469 527 l 1,23,-1
 550 710 l 1,24,-1
 701 710 l 1,25,-1
 618 527 l 1,26,-1
 740 527 l 1,27,-1
 712 397 l 1,0,-1
374 310 m 1,28,-1
 409 397 l 1,29,-1
 362 397 l 1,30,-1
 327 310 l 1,31,-1
 374 310 l 1,28,-1
EndSplineSet
EndChar

StartChar: dollar
Encoding: 36 36 8
Width: 630
GlyphClass: 2
Flags: W
LayerCount: 2
Fore
SplineSet
524 478 m 1,0,1
 521 481 521 481 510 488.5 c 128,-1,2
 499 496 499 496 482 505.5 c 128,-1,3
 465 515 465 515 442.5 524.5 c 128,-1,4
 420 534 420 534 394 539 c 1,5,-1
 375 450 l 1,6,-1
 413 437 l 2,7,8
 448 425 448 425 477.5 410 c 128,-1,9
 507 395 507 395 528.5 374.5 c 128,-1,10
 550 354 550 354 562 326.5 c 128,-1,11
 574 299 574 299 574 262 c 0,12,13
 574 191 574 191 549 141.5 c 128,-1,14
 524 92 524 92 484 60 c 128,-1,15
 444 28 444 28 393.5 11.5 c 128,-1,16
 343 -5 343 -5 292 -8 c 1,17,-1
 267 -129 l 1,18,-1
 187 -129 l 1,19,-1
 213 -6 l 1,20,21
 150 0 150 0 89.5 21 c 128,-1,22
 29 42 29 42 -16 74 c 1,23,-1
 104 244 l 2,24,25
 106 242 106 242 119 232 c 128,-1,26
 132 222 132 222 154 210 c 128,-1,27
 176 198 176 198 204.5 186.5 c 128,-1,28
 233 175 233 175 265 170 c 1,29,-1
 283 256 l 1,30,-1
 224 277 l 2,31,32
 157 301 157 301 125 339 c 128,-1,33
 93 377 93 377 93 434 c 0,34,35
 93 495 93 495 116 544.5 c 128,-1,36
 139 594 139 594 177.5 630 c 128,-1,37
 216 666 216 666 265 687 c 128,-1,38
 314 708 314 708 366 714 c 1,39,-1
 388 815 l 1,40,-1
 467 815 l 1,41,-1
 445 713 l 1,42,43
 475 709 475 709 503.5 701 c 128,-1,44
 532 693 532 693 557 682.5 c 128,-1,45
 582 672 582 672 603.5 660.5 c 128,-1,46
 625 649 625 649 642 639 c 1,47,-1
 524 478 l 1,0,1
354 204 m 0,48,49
 354 223 354 223 329 236 c 1,50,-1
 315 167 l 1,51,52
 340 169 340 169 347 180 c 128,-1,53
 354 191 354 191 354 204 c 0,48,49
307 501 m 0,54,55
 307 482 307 482 328 470 c 1,56,-1
 344 541 l 1,57,58
 328 538 328 538 317.5 528 c 128,-1,59
 307 518 307 518 307 501 c 0,54,55
EndSplineSet
EndChar

StartChar: percent
Encoding: 37 37 9
Width: 825
GlyphClass: 2
Flags: W
LayerCount: 2
Fore
SplineSet
227 404 m 0,0,1
 195 404 195 404 169 414 c 128,-1,2
 143 424 143 424 124.5 442 c 128,-1,3
 106 460 106 460 96 484 c 128,-1,4
 86 508 86 508 86 536 c 0,5,6
 86 573 86 573 103.5 606.5 c 128,-1,7
 121 640 121 640 149.5 665.5 c 128,-1,8
 178 691 178 691 215.5 705.5 c 128,-1,9
 253 720 253 720 294 720 c 0,10,11
 325 720 325 720 351 710 c 128,-1,12
 377 700 377 700 396 682 c 128,-1,13
 415 664 415 664 425 640 c 128,-1,14
 435 616 435 616 435 588 c 0,15,16
 435 550 435 550 417.5 517 c 128,-1,17
 400 484 400 484 371.5 458.5 c 128,-1,18
 343 433 343 433 305 418.5 c 128,-1,19
 267 404 267 404 227 404 c 0,0,1
246 494 m 0,20,21
 256 494 256 494 266.5 501 c 128,-1,22
 277 508 277 508 285.5 520 c 128,-1,23
 294 532 294 532 299.5 547.5 c 128,-1,24
 305 563 305 563 305 580 c 0,25,26
 305 601 305 601 297 615.5 c 128,-1,27
 289 630 289 630 275 630 c 0,28,29
 265 630 265 630 254.5 623 c 128,-1,30
 244 616 244 616 235.5 604 c 128,-1,31
 227 592 227 592 221.5 576.5 c 128,-1,32
 216 561 216 561 216 544 c 0,33,34
 216 523 216 523 224 508.5 c 128,-1,35
 232 494 232 494 246 494 c 0,20,21
554 -10 m 0,36,37
 522 -10 522 -10 496 0 c 128,-1,38
 470 10 470 10 451.5 28 c 128,-1,39
 433 46 433 46 423 70 c 128,-1,40
 413 94 413 94 413 122 c 0,41,42
 413 159 413 159 430.5 192.5 c 128,-1,43
 448 226 448 226 476.5 251.5 c 128,-1,44
 505 277 505 277 542.5 291.5 c 128,-1,45
 580 306 580 306 621 306 c 0,46,47
 652 306 652 306 678 296 c 128,-1,48
 704 286 704 286 723 268 c 128,-1,49
 742 250 742 250 752 226 c 128,-1,50
 762 202 762 202 762 174 c 0,51,52
 762 136 762 136 744.5 103 c 128,-1,53
 727 70 727 70 698.5 44.5 c 128,-1,54
 670 19 670 19 632 4.5 c 128,-1,55
 594 -10 594 -10 554 -10 c 0,36,37
573 80 m 0,56,57
 583 80 583 80 593.5 87 c 128,-1,58
 604 94 604 94 612 106 c 128,-1,59
 620 118 620 118 625.5 133.5 c 128,-1,60
 631 149 631 149 631 166 c 0,61,62
 631 187 631 187 623.5 201.5 c 128,-1,63
 616 216 616 216 602 216 c 0,64,65
 592 216 592 216 581.5 209 c 128,-1,66
 571 202 571 202 562.5 190 c 128,-1,67
 554 178 554 178 548.5 162.5 c 128,-1,68
 543 147 543 147 543 130 c 0,69,70
 543 109 543 109 551 94.5 c 128,-1,71
 559 80 559 80 573 80 c 0,56,57
68 65 m 1,72,-1
 405 384 l 1,73,-1
 713 721 l 1,74,-1
 780 646 l 1,75,-1
 457 337 l 1,76,-1
 135 -10 l 1,77,-1
 68 65 l 1,72,-1
EndSplineSet
EndChar

StartChar: ampersand
Encoding: 38 38 10
Width: 728
GlyphClass: 2
Flags: W
LayerCount: 2
Fore
SplineSet
390 37 m 1,0,1
 344 13 344 13 298 1.5 c 128,-1,2
 252 -10 252 -10 210 -10 c 0,3,4
 158 -10 158 -10 120.5 6 c 128,-1,5
 83 22 83 22 59 48 c 128,-1,6
 35 74 35 74 23.5 107.5 c 128,-1,7
 12 141 12 141 12 176 c 0,8,9
 12 213 12 213 23.5 242.5 c 128,-1,10
 35 272 35 272 55.5 296.5 c 128,-1,11
 76 321 76 321 103 341.5 c 128,-1,12
 130 362 130 362 161 381 c 1,13,14
 140 417 140 417 130 446 c 128,-1,15
 120 475 120 475 120 507 c 0,16,17
 120 554 120 554 139.5 593 c 128,-1,18
 159 632 159 632 192 660 c 128,-1,19
 225 688 225 688 267.5 703.5 c 128,-1,20
 310 719 310 719 355 719 c 0,21,22
 388 719 388 719 418.5 710 c 128,-1,23
 449 701 449 701 474.5 682.5 c 128,-1,24
 500 664 500 664 517.5 634.5 c 128,-1,25
 535 605 535 605 543 565 c 1,26,-1
 409 515 l 1,27,28
 401 552 401 552 383 567 c 128,-1,29
 365 582 365 582 345 582 c 0,30,31
 328 582 328 582 312.5 571.5 c 128,-1,32
 297 561 297 561 297 539 c 0,33,34
 297 529 297 529 301 520.5 c 128,-1,35
 305 512 305 512 313 501.5 c 128,-1,36
 321 491 321 491 333 476 c 128,-1,37
 345 461 345 461 361 438 c 2,38,-1
 467 284 l 1,39,40
 481 312 481 312 491.5 345 c 128,-1,41
 502 378 502 378 507 416 c 1,42,-1
 694 416 l 1,43,-1
 679 287 l 1,44,-1
 618 287 l 1,45,46
 603 253 603 253 584.5 224 c 128,-1,47
 566 195 566 195 546 169 c 1,48,-1
 663 0 l 1,49,-1
 415 0 l 1,50,-1
 390 37 l 1,0,1
264 134 m 0,51,52
 292 134 292 134 318 144 c 1,53,-1
 240 262 l 1,54,55
 216 246 216 246 206.5 230.5 c 128,-1,56
 197 215 197 215 197 195 c 0,57,58
 197 163 197 163 216 148.5 c 128,-1,59
 235 134 235 134 264 134 c 0,51,52
EndSplineSet
EndChar

StartChar: quotesingle
Encoding: 39 39 11
Width: 264
GlyphClass: 2
Flags: W
LayerCount: 2
Fore
SplineSet
92 496 m 1,0,-1
 142 730 l 1,1,-1
 302 730 l 1,2,-1
 252 496 l 1,3,-1
 92 496 l 1,0,-1
EndSplineSet
EndChar

StartChar: parenleft
Encoding: 40 40 12
Width: 336
GlyphClass: 2
Flags: W
LayerCount: 2
Fore
SplineSet
26 266 m 0,0,1
 26 331 26 331 45.5 393 c 128,-1,2
 65 455 65 455 98.5 516.5 c 128,-1,3
 132 578 132 578 177.5 641 c 128,-1,4
 223 704 223 704 276 772 c 1,5,-1
 408 714 l 1,6,7
 354 642 354 642 315 580 c 128,-1,8
 276 518 276 518 251.5 464 c 128,-1,9
 227 410 227 410 215.5 363 c 128,-1,10
 204 316 204 316 204 275 c 0,11,12
 204 212 204 212 218 141.5 c 128,-1,13
 232 71 232 71 252 1 c 1,14,-1
 99 -66 l 1,15,16
 84 -31 84 -31 71 9.5 c 128,-1,17
 58 50 58 50 48 93 c 128,-1,18
 38 136 38 136 32 180 c 128,-1,19
 26 224 26 224 26 266 c 0,0,1
EndSplineSet
EndChar

StartChar: parenright
Encoding: 41 41 13
Width: 335
GlyphClass: 2
Flags: W
LayerCount: 2
Fore
SplineSet
329 430 m 0,0,1
 329 361 329 361 307.5 295.5 c 128,-1,2
 286 230 286 230 250.5 168 c 128,-1,3
 215 106 215 106 170.5 47.5 c 128,-1,4
 126 -11 126 -11 80 -66 c 1,5,-1
 -44 1 l 1,6,7
 -3 58 -3 58 32.5 110 c 128,-1,8
 68 162 68 162 94.5 212.5 c 128,-1,9
 121 263 121 263 136 315 c 128,-1,10
 151 367 151 367 151 425 c 0,11,12
 151 469 151 469 145.5 514.5 c 128,-1,13
 140 560 140 560 132 599.5 c 128,-1,14
 124 639 124 639 116 669 c 128,-1,15
 108 699 108 699 103 714 c 1,16,-1
 260 772 l 1,17,18
 289 687 289 687 309 598 c 128,-1,19
 329 509 329 509 329 430 c 0,0,1
EndSplineSet
EndChar

StartChar: asterisk
Encoding: 42 42 14
Width: 356
GlyphClass: 2
Flags: W
LayerCount: 2
Fore
SplineSet
107 499 m 1,0,-1
 170 577 l 1,1,-1
 106 598 l 1,2,-1
 146 675 l 1,3,-1
 210 639 l 1,4,-1
 221 721 l 1,5,-1
 316 721 l 1,6,-1
 292 639 l 1,7,-1
 371 675 l 1,8,-1
 378 598 l 1,9,-1
 305 577 l 1,10,-1
 336 499 l 1,11,-1
 258 454 l 1,12,-1
 229 537 l 1,13,-1
 166 454 l 1,14,-1
 107 499 l 1,0,-1
EndSplineSet
EndChar

StartChar: plus
Encoding: 43 43 15
Width: 440
GlyphClass: 2
Flags: W
LayerCount: 2
Fore
SplineSet
400 430 m 1,0,-1
 400 280 l 1,1,-1
 315 280 l 1,2,-1
 315 185 l 1,3,-1
 145 185 l 1,4,-1
 145 280 l 1,5,-1
 60 280 l 1,6,-1
 60 430 l 1,7,-1
 145 430 l 1,8,-1
 145 525 l 1,9,-1
 315 525 l 1,10,-1
 315 430 l 1,11,-1
 400 430 l 1,0,-1
EndSplineSet
EndChar

StartChar: comma
Encoding: 44 44 16
Width: 256
GlyphClass: 2
Flags: W
LayerCount: 2
Fore
SplineSet
-26 -157 m 1,0,-1
 43 0 l 1,1,-1
 -14 0 l 1,2,-1
 26 184 l 1,3,-1
 182 184 l 1,4,-1
 142 0 l 1,5,-1
 56 -157 l 1,6,-1
 -26 -157 l 1,0,-1
EndSplineSet
EndChar

StartChar: hyphen
Encoding: 45 45 17
Width: 398
GlyphClass: 2
Flags: W
LayerCount: 2
Fore
SplineSet
26 191 m 1,0,-1
 62 361 l 1,1,-1
 361 361 l 1,2,-1
 325 191 l 1,3,-1
 26 191 l 1,0,-1
EndSplineSet
EndChar

StartChar: period
Encoding: 46 46 18
Width: 254
GlyphClass: 2
Flags: W
LayerCount: 2
Fore
SplineSet
-13 0 m 1,0,-1
 26 184 l 1,1,-1
 180 184 l 1,2,-1
 141 0 l 1,3,-1
 -13 0 l 1,0,-1
EndSplineSet
EndChar

StartChar: slash
Encoding: 47 47 19
Width: 771
GlyphClass: 2
Flags: W
LayerCount: 2
Fore
SplineSet
825 710 m 1,0,-1
 181 0 l 1,1,-1
 -28 0 l 1,2,-1
 616 710 l 1,3,-1
 825 710 l 1,0,-1
EndSplineSet
EndChar

StartChar: zero
Encoding: 48 48 20
Width: 689
GlyphClass: 2
Flags: W
LayerCount: 2
Fore
SplineSet
278 -10 m 0,0,1
 215 -10 215 -10 169.5 16 c 128,-1,2
 124 42 124 42 95 83.5 c 128,-1,3
 66 125 66 125 52 177 c 128,-1,4
 38 229 38 229 38 281 c 0,5,6
 38 330 38 330 52 381 c 128,-1,7
 66 432 66 432 91.5 479.5 c 128,-1,8
 117 527 117 527 153 569 c 128,-1,9
 189 611 189 611 232.5 642.5 c 128,-1,10
 276 674 276 674 326.5 692 c 128,-1,11
 377 710 377 710 431 710 c 0,12,13
 494 710 494 710 539.5 683.5 c 128,-1,14
 585 657 585 657 614.5 614.5 c 128,-1,15
 644 572 644 572 657.5 519.5 c 128,-1,16
 671 467 671 467 671 416 c 0,17,18
 671 367 671 367 657 316.5 c 128,-1,19
 643 266 643 266 617.5 219 c 128,-1,20
 592 172 592 172 556 130 c 128,-1,21
 520 88 520 88 476.5 57 c 128,-1,22
 433 26 433 26 382.5 8 c 128,-1,23
 332 -10 332 -10 278 -10 c 0,0,1
315 163 m 0,24,25
 354 163 354 163 383.5 188.5 c 128,-1,26
 413 214 413 214 433 251.5 c 128,-1,27
 453 289 453 289 463 331.5 c 128,-1,28
 473 374 473 374 473 408 c 0,29,30
 473 432 473 432 469 455.5 c 128,-1,31
 465 479 465 479 455.5 497 c 128,-1,32
 446 515 446 515 431 526 c 128,-1,33
 416 537 416 537 395 537 c 0,34,35
 355 537 355 537 325.5 509 c 128,-1,36
 296 481 296 481 276 440.5 c 128,-1,37
 256 400 256 400 246 355 c 128,-1,38
 236 310 236 310 236 276 c 0,39,40
 236 253 236 253 240 232.5 c 128,-1,41
 244 212 244 212 253.5 196.5 c 128,-1,42
 263 181 263 181 278 172 c 128,-1,43
 293 163 293 163 315 163 c 0,24,25
EndSplineSet
Substitution2: "'lnum' Lining Figures in Latin lookup 3 subtable" zero.lnum
Substitution2: "'aalt' Access All Alternates in Latin lookup 0 subtable" zero.lnum
EndChar

StartChar: one
Encoding: 49 49 21
Width: 534
GlyphClass: 2
Flags: W
LayerCount: 2
Fore
SplineSet
35 170 m 1,0,-1
 171 170 l 1,1,-1
 248 532 l 1,2,3
 237 520 237 520 215.5 505.5 c 128,-1,4
 194 491 194 491 168.5 477.5 c 128,-1,5
 143 464 143 464 117 455 c 128,-1,6
 91 446 91 446 72 446 c 1,7,-1
 109 620 l 1,8,9
 134 620 134 620 165 634.5 c 128,-1,10
 196 649 196 649 222.5 666 c 128,-1,11
 249 683 249 683 267 698 c 128,-1,12
 285 713 285 713 286 715 c 2,13,-1
 480 715 l 1,14,-1
 365 170 l 1,15,-1
 485 170 l 1,16,-1
 449 0 l 1,17,-1
 -1 0 l 1,18,-1
 35 170 l 1,0,-1
EndSplineSet
Substitution2: "'lnum' Lining Figures in Latin lookup 3 subtable" one.lnum
Substitution2: "'aalt' Access All Alternates in Latin lookup 0 subtable" one.lnum
EndChar

StartChar: two
Encoding: 50 50 22
Width: 614
GlyphClass: 2
Flags: W
LayerCount: 2
Fore
SplineSet
-25 0 m 1,0,1
 -10 69 -10 69 5.5 120.5 c 128,-1,2
 21 172 21 172 46.5 212 c 128,-1,3
 72 252 72 252 111 282.5 c 128,-1,4
 150 313 150 313 211 340 c 0,5,6
 248 356 248 356 280 372.5 c 128,-1,7
 312 389 312 389 336 407.5 c 128,-1,8
 360 426 360 426 374 449.5 c 128,-1,9
 388 473 388 473 388 504 c 0,10,11
 388 530 388 530 374.5 540 c 128,-1,12
 361 550 361 550 344 550 c 0,13,14
 309 550 309 550 267.5 528 c 128,-1,15
 226 506 226 506 193 478 c 1,16,-1
 103 605 l 1,17,18
 128 627 128 627 161.5 647.5 c 128,-1,19
 195 668 195 668 234 684 c 128,-1,20
 273 700 273 700 317 709 c 128,-1,21
 361 718 361 718 407 718 c 0,22,23
 506 718 506 718 558 672 c 128,-1,24
 610 626 610 626 610 541 c 0,25,26
 610 491 610 491 600 454 c 128,-1,27
 590 417 590 417 568.5 387 c 128,-1,28
 547 357 547 357 513 331 c 128,-1,29
 479 305 479 305 430 277 c 0,30,31
 409 265 409 265 387 253 c 128,-1,32
 365 241 365 241 346 228 c 128,-1,33
 327 215 327 215 313 200.5 c 128,-1,34
 299 186 299 186 296 170 c 1,35,-1
 536 170 l 1,36,-1
 500 0 l 1,37,-1
 -25 0 l 1,38,-1
 -25 0 l 1,0,1
EndSplineSet
Substitution2: "'lnum' Lining Figures in Latin lookup 3 subtable" two.lnum
Substitution2: "'aalt' Access All Alternates in Latin lookup 0 subtable" two.lnum
EndChar

StartChar: three
Encoding: 51 51 23
Width: 564
GlyphClass: 2
Flags: W
LayerCount: 2
Fore
SplineSet
185 -9 m 0,0,1
 110 -9 110 -9 62.5 19 c 128,-1,2
 15 47 15 47 -7 107 c 1,3,-1
 118 239 l 2,4,5
 120 236 120 236 124 224.5 c 128,-1,6
 128 213 128 213 138 199.5 c 128,-1,7
 148 186 148 186 166.5 175.5 c 128,-1,8
 185 165 185 165 216 165 c 0,9,10
 234 165 234 165 250.5 169 c 128,-1,11
 267 173 267 173 279.5 181.5 c 128,-1,12
 292 190 292 190 300 202 c 128,-1,13
 308 214 308 214 308 230 c 0,14,15
 308 265 308 265 269 278 c 128,-1,16
 230 291 230 291 150 291 c 2,17,-1
 119 291 l 1,18,-1
 152 448 l 1,19,-1
 183 448 l 2,20,21
 216 448 216 448 246.5 452 c 128,-1,22
 277 456 277 456 300.5 464.5 c 128,-1,23
 324 473 324 473 338.5 487 c 128,-1,24
 353 501 353 501 353 521 c 0,25,26
 353 533 353 533 348.5 539.5 c 128,-1,27
 344 546 344 546 338 549 c 128,-1,28
 332 552 332 552 326 552.5 c 128,-1,29
 320 553 320 553 316 553 c 0,30,31
 290 553 290 553 268.5 545.5 c 128,-1,32
 247 538 247 538 230 527.5 c 128,-1,33
 213 517 213 517 201.5 506 c 128,-1,34
 190 495 190 495 184 488 c 1,35,-1
 94 629 l 1,36,37
 118 651 118 651 149.5 668 c 128,-1,38
 181 685 181 685 215.5 696 c 128,-1,39
 250 707 250 707 285.5 713 c 128,-1,40
 321 719 321 719 353 719 c 0,41,42
 400 719 400 719 438.5 706.5 c 128,-1,43
 477 694 477 694 504.5 672 c 128,-1,44
 532 650 532 650 547 619.5 c 128,-1,45
 562 589 562 589 562 553 c 0,46,47
 562 520 562 520 549.5 491 c 128,-1,48
 537 462 537 462 516 439.5 c 128,-1,49
 495 417 495 417 466.5 401.5 c 128,-1,50
 438 386 438 386 406 380 c 1,51,52
 454 372 454 372 479.5 331 c 128,-1,53
 505 290 505 290 505 233 c 0,54,55
 505 168 505 168 474.5 122.5 c 128,-1,56
 444 77 444 77 397.5 47.5 c 128,-1,57
 351 18 351 18 294 4.5 c 128,-1,58
 237 -9 237 -9 185 -9 c 0,0,1
EndSplineSet
Substitution2: "'lnum' Lining Figures in Latin lookup 3 subtable" three.lnum
Substitution2: "'aalt' Access All Alternates in Latin lookup 0 subtable" three.lnum
EndChar

StartChar: four
Encoding: 52 52 24
Width: 575
GlyphClass: 2
Flags: W
LayerCount: 2
Fore
SplineSet
200 1 m 1,0,-1
 229 137 l 1,1,-1
 -8 137 l 1,2,-1
 28 307 l 1,3,-1
 411 711 l 1,4,-1
 541 711 l 1,5,-1
 455 307 l 1,6,-1
 539 307 l 1,7,-1
 503 137 l 1,8,-1
 419 137 l 1,9,-1
 390 1 l 1,10,-1
 200 1 l 1,0,-1
287 307 m 1,11,-1
 313 427 l 1,12,-1
 215 307 l 1,13,-1
 287 307 l 1,11,-1
EndSplineSet
Substitution2: "'lnum' Lining Figures in Latin lookup 3 subtable" four.lnum
Substitution2: "'aalt' Access All Alternates in Latin lookup 0 subtable" four.lnum
EndChar

StartChar: five
Encoding: 53 53 25
Width: 557
GlyphClass: 2
Flags: W
LayerCount: 2
Fore
SplineSet
190 -9 m 0,0,1
 115 -9 115 -9 62 20 c 128,-1,2
 9 49 9 49 -12 103 c 1,3,-1
 117 223 l 1,4,5
 137 192 137 192 166.5 174.5 c 128,-1,6
 196 157 196 157 226 157 c 0,7,8
 265 157 265 157 288.5 183 c 128,-1,9
 312 209 312 209 312 250 c 0,10,11
 312 274 312 274 300.5 289 c 128,-1,12
 289 304 289 304 267 304 c 0,13,14
 249 304 249 304 232.5 294.5 c 128,-1,15
 216 285 216 285 205 269 c 1,16,-1
 43 269 l 1,17,18
 88 380 88 380 129.5 490 c 128,-1,19
 171 600 171 600 217 711 c 1,20,-1
 556 711 l 1,21,-1
 519 538 l 1,22,-1
 317 538 l 1,23,-1
 293 461 l 2,24,25
 296 463 296 463 306 464.5 c 128,-1,26
 316 466 316 466 330 466 c 0,27,28
 372 466 372 466 405.5 452.5 c 128,-1,29
 439 439 439 439 463 415 c 128,-1,30
 487 391 487 391 499.5 357 c 128,-1,31
 512 323 512 323 512 282 c 0,32,33
 512 219 512 219 487 166 c 128,-1,34
 462 113 462 113 418.5 74 c 128,-1,35
 375 35 375 35 316 13 c 128,-1,36
 257 -9 257 -9 190 -9 c 0,0,1
EndSplineSet
Substitution2: "'lnum' Lining Figures in Latin lookup 3 subtable" five.lnum
Substitution2: "'aalt' Access All Alternates in Latin lookup 0 subtable" five.lnum
EndChar

StartChar: six
Encoding: 54 54 26
Width: 593
GlyphClass: 2
Flags: W
LayerCount: 2
Fore
SplineSet
234 -10 m 0,0,1
 137 -10 137 -10 88 54.5 c 128,-1,2
 39 119 39 119 39 234 c 0,3,4
 39 336 39 336 66 424 c 128,-1,5
 93 512 93 512 141.5 577 c 128,-1,6
 190 642 190 642 258 679 c 128,-1,7
 326 716 326 716 408 716 c 0,8,9
 530 716 530 716 603 620 c 1,10,-1
 472 498 l 1,11,12
 432 552 432 552 370 552 c 0,13,14
 326 552 326 552 295 522.5 c 128,-1,15
 264 493 264 493 250 439 c 1,16,17
 293 473 293 473 353 473 c 0,18,19
 397 473 397 473 433 458.5 c 128,-1,20
 469 444 469 444 494.5 418.5 c 128,-1,21
 520 393 520 393 533.5 358 c 128,-1,22
 547 323 547 323 547 282 c 0,23,24
 547 223 547 223 521.5 170 c 128,-1,25
 496 117 496 117 452.5 77 c 128,-1,26
 409 37 409 37 352.5 13.5 c 128,-1,27
 296 -10 296 -10 234 -10 c 0,0,1
268 149 m 0,28,29
 284 149 284 149 301 158 c 128,-1,30
 318 167 318 167 331.5 182 c 128,-1,31
 345 197 345 197 353.5 216.5 c 128,-1,32
 362 236 362 236 362 257 c 0,33,34
 362 286 362 286 346.5 305 c 128,-1,35
 331 324 331 324 305 324 c 0,36,37
 287 324 287 324 270.5 316 c 128,-1,38
 254 308 254 308 241 294 c 128,-1,39
 228 280 228 280 220 261.5 c 128,-1,40
 212 243 212 243 212 222 c 0,41,42
 212 192 212 192 227.5 170.5 c 128,-1,43
 243 149 243 149 268 149 c 0,28,29
EndSplineSet
Substitution2: "'lnum' Lining Figures in Latin lookup 3 subtable" six.lnum
Substitution2: "'aalt' Access All Alternates in Latin lookup 0 subtable" six.lnum
EndChar

StartChar: seven
Encoding: 55 55 27
Width: 585
GlyphClass: 2
Flags: W
LayerCount: 2
Fore
SplineSet
337 538 m 1,0,-1
 88 538 l 1,1,-1
 125 711 l 1,2,-1
 673 711 l 1,3,-1
 193 1 l 1,4,-1
 -22 1 l 1,5,-1
 337 538 l 1,0,-1
EndSplineSet
Substitution2: "'lnum' Lining Figures in Latin lookup 3 subtable" seven.lnum
Substitution2: "'aalt' Access All Alternates in Latin lookup 0 subtable" seven.lnum
EndChar

StartChar: eight
Encoding: 56 56 28
Width: 591
GlyphClass: 2
Flags: W
LayerCount: 2
Fore
SplineSet
538 254 m 0,0,1
 538 197 538 197 512 148.5 c 128,-1,2
 486 100 486 100 443.5 65 c 128,-1,3
 401 30 401 30 345 10 c 128,-1,4
 289 -10 289 -10 229 -10 c 0,5,6
 185 -10 185 -10 146 3.5 c 128,-1,7
 107 17 107 17 78.5 42.5 c 128,-1,8
 50 68 50 68 33.5 104.5 c 128,-1,9
 17 141 17 141 17 186 c 0,10,11
 17 223 17 223 28 253 c 128,-1,12
 39 283 39 283 56.5 306.5 c 128,-1,13
 74 330 74 330 94 348 c 128,-1,14
 114 366 114 366 132 379 c 1,15,16
 115 393 115 393 105.5 419.5 c 128,-1,17
 96 446 96 446 96 474 c 0,18,19
 96 530 96 530 124 574 c 128,-1,20
 152 618 152 618 195 648 c 128,-1,21
 238 678 238 678 287.5 694 c 128,-1,22
 337 710 337 710 381 710 c 0,23,24
 416 710 416 710 451.5 698.5 c 128,-1,25
 487 687 487 687 515.5 665 c 128,-1,26
 544 643 544 643 562 610 c 128,-1,27
 580 577 580 577 580 534 c 0,28,29
 580 510 580 510 572.5 486 c 128,-1,30
 565 462 565 462 552 441.5 c 128,-1,31
 539 421 539 421 523 405 c 128,-1,32
 507 389 507 389 490 379 c 1,33,34
 507 361 507 361 522.5 329 c 128,-1,35
 538 297 538 297 538 254 c 0,0,1
345 248 m 0,36,37
 345 301 345 301 295 301 c 0,38,39
 260 301 260 301 237.5 277 c 128,-1,40
 215 253 215 253 215 218 c 0,41,42
 215 195 215 195 228.5 179 c 128,-1,43
 242 163 242 163 265 163 c 0,44,45
 299 163 299 163 322 188 c 128,-1,46
 345 213 345 213 345 248 c 0,36,37
289 482 m 0,47,48
 289 462 289 462 299.5 452 c 128,-1,49
 310 442 310 442 324 442 c 0,50,51
 344 442 344 442 363.5 458 c 128,-1,52
 383 474 383 474 383 504 c 0,53,54
 383 521 383 521 373.5 532 c 128,-1,55
 364 543 364 543 346 543 c 0,56,57
 322 543 322 543 305.5 525 c 128,-1,58
 289 507 289 507 289 482 c 0,47,48
EndSplineSet
Substitution2: "'lnum' Lining Figures in Latin lookup 3 subtable" eight.lnum
Substitution2: "'aalt' Access All Alternates in Latin lookup 0 subtable" eight.lnum
EndChar

StartChar: nine
Encoding: 57 57 29
Width: 593
GlyphClass: 2
Flags: W
LayerCount: 2
Fore
SplineSet
68 424 m 0,0,1
 68 483 68 483 93.5 536 c 128,-1,2
 119 589 119 589 162.5 629 c 128,-1,3
 206 669 206 669 262.5 692.5 c 128,-1,4
 319 716 319 716 381 716 c 0,5,6
 478 716 478 716 527 651.5 c 128,-1,7
 576 587 576 587 576 472 c 0,8,9
 576 370 576 370 549 282 c 128,-1,10
 522 194 522 194 473.5 129 c 128,-1,11
 425 64 425 64 357.5 27 c 128,-1,12
 290 -10 290 -10 208 -10 c 0,13,14
 87 -10 87 -10 12 86 c 1,15,-1
 143 208 l 1,16,17
 183 154 183 154 246 154 c 0,18,19
 289 154 289 154 320 183.5 c 128,-1,20
 351 213 351 213 365 267 c 1,21,22
 343 250 343 250 318.5 241.5 c 128,-1,23
 294 233 294 233 262 233 c 0,24,25
 218 233 218 233 182 247.5 c 128,-1,26
 146 262 146 262 120.5 287.5 c 128,-1,27
 95 313 95 313 81.5 348 c 128,-1,28
 68 383 68 383 68 424 c 0,0,1
347 557 m 0,29,30
 330 557 330 557 313.5 548 c 128,-1,31
 297 539 297 539 283.5 524 c 128,-1,32
 270 509 270 509 261.5 489.5 c 128,-1,33
 253 470 253 470 253 449 c 0,34,35
 253 420 253 420 268.5 401 c 128,-1,36
 284 382 284 382 310 382 c 0,37,38
 328 382 328 382 344.5 390 c 128,-1,39
 361 398 361 398 374 412 c 128,-1,40
 387 426 387 426 395 444.5 c 128,-1,41
 403 463 403 463 403 484 c 0,42,43
 403 514 403 514 387.5 535.5 c 128,-1,44
 372 557 372 557 347 557 c 0,29,30
EndSplineSet
Substitution2: "'lnum' Lining Figures in Latin lookup 3 subtable" nine.lnum
Substitution2: "'aalt' Access All Alternates in Latin lookup 0 subtable" nine.lnum
EndChar

StartChar: colon
Encoding: 58 58 30
Width: 299
GlyphClass: 2
Flags: W
LayerCount: 2
Fore
SplineSet
80 335 m 1,0,-1
 119 519 l 1,1,-1
 273 519 l 1,2,-1
 234 335 l 1,3,-1
 80 335 l 1,0,-1
9 0 m 1,4,-1
 48 184 l 1,5,-1
 202 184 l 1,6,-1
 163 0 l 1,7,-1
 9 0 l 1,4,-1
EndSplineSet
EndChar

StartChar: semicolon
Encoding: 59 59 31
Width: 301
GlyphClass: 2
Flags: W
LayerCount: 2
Fore
SplineSet
81 335 m 1,0,-1
 120 519 l 1,1,-1
 274 519 l 1,2,-1
 235 335 l 1,3,-1
 81 335 l 1,0,-1
-5 -157 m 1,4,-1
 64 0 l 1,5,-1
 7 0 l 1,6,-1
 47 184 l 1,7,-1
 203 184 l 1,8,-1
 163 0 l 1,9,-1
 77 -157 l 1,10,-1
 -5 -157 l 1,4,-1
EndSplineSet
EndChar

StartChar: less
Encoding: 60 60 32
Width: 554
GlyphClass: 2
Flags: W
LayerCount: 2
Fore
SplineSet
28 298 m 1,0,-1
 452 556 l 1,1,-1
 452 354 l 1,2,-1
 304 259 l 1,3,-1
 452 172 l 1,4,-1
 452 -40 l 1,5,-1
 28 210 l 1,6,-1
 28 298 l 1,0,-1
EndSplineSet
EndChar

StartChar: equal
Encoding: 61 61 33
Width: 492
GlyphClass: 2
Flags: W
LayerCount: 2
Fore
SplineSet
78 101 m 1,0,-1
 78 221 l 1,1,-1
 401 221 l 1,2,-1
 401 101 l 1,3,-1
 78 101 l 1,0,-1
78 331 m 1,4,-1
 78 451 l 1,5,-1
 401 451 l 1,6,-1
 401 331 l 1,7,-1
 78 331 l 1,4,-1
EndSplineSet
EndChar

StartChar: greater
Encoding: 62 62 34
Width: 555
GlyphClass: 2
Flags: W
LayerCount: 2
Fore
SplineSet
507 210 m 1,0,-1
 83 -40 l 1,1,-1
 83 172 l 1,2,-1
 231 259 l 1,3,-1
 83 354 l 1,4,-1
 83 556 l 1,5,-1
 507 298 l 1,6,-1
 507 210 l 1,0,-1
EndSplineSet
EndChar

StartChar: question
Encoding: 63 63 35
Width: 482
GlyphClass: 2
Flags: W
LayerCount: 2
Fore
SplineSet
81 259 m 1,0,1
 85 280 85 280 91.5 300.5 c 128,-1,2
 98 321 98 321 109.5 339.5 c 128,-1,3
 121 358 121 358 139.5 374.5 c 128,-1,4
 158 391 158 391 187 406 c 0,5,6
 226 425 226 425 252.5 440 c 128,-1,7
 279 455 279 455 295.5 469 c 128,-1,8
 312 483 312 483 319.5 496.5 c 128,-1,9
 327 510 327 510 327 525 c 0,10,11
 327 544 327 544 315 555 c 128,-1,12
 303 566 303 566 285 566 c 0,13,14
 269 566 269 566 256 559 c 128,-1,15
 243 552 243 552 233 542 c 128,-1,16
 223 532 223 532 215 521.5 c 128,-1,17
 207 511 207 511 201 504 c 1,18,-1
 98 590 l 1,19,20
 135 651 135 651 195.5 685 c 128,-1,21
 256 719 256 719 325 719 c 0,22,23
 357 719 357 719 388 710.5 c 128,-1,24
 419 702 419 702 443 682.5 c 128,-1,25
 467 663 467 663 482 632.5 c 128,-1,26
 497 602 497 602 497 559 c 0,27,28
 497 518 497 518 488.5 487.5 c 128,-1,29
 480 457 480 457 465 433 c 128,-1,30
 450 409 450 409 429.5 391 c 128,-1,31
 409 373 409 373 385 358 c 256,32,33
 361 343 361 343 336 332 c 128,-1,34
 311 321 311 321 290 310 c 128,-1,35
 269 299 269 299 254 287 c 128,-1,36
 239 275 239 275 236 259 c 1,37,-1
 81 259 l 1,0,1
29 0 m 1,38,-1
 64 164 l 1,39,-1
 219 164 l 1,40,-1
 184 0 l 1,41,-1
 29 0 l 1,38,-1
EndSplineSet
EndChar

StartChar: at
Encoding: 64 64 36
Width: 820
GlyphClass: 2
Flags: W
LayerCount: 2
Fore
SplineSet
588 64 m 0,0,1
 608 64 608 64 627.5 84 c 128,-1,2
 647 104 647 104 662 136 c 128,-1,3
 677 168 677 168 686.5 208.5 c 128,-1,4
 696 249 696 249 696 291 c 0,5,6
 696 347 696 347 678.5 391.5 c 128,-1,7
 661 436 661 436 629 467.5 c 128,-1,8
 597 499 597 499 551.5 516 c 128,-1,9
 506 533 506 533 449 533 c 0,10,11
 374 533 374 533 308.5 504 c 128,-1,12
 243 475 243 475 195 425 c 128,-1,13
 147 375 147 375 119 308 c 128,-1,14
 91 241 91 241 91 164 c 0,15,16
 91 51 91 51 150 -12.5 c 128,-1,17
 209 -76 209 -76 313 -76 c 0,18,19
 349 -76 349 -76 384.5 -67 c 128,-1,20
 420 -58 420 -58 466 -38 c 1,21,-1
 473 -106 l 1,22,23
 387 -146 387 -146 299 -146 c 0,24,25
 234 -146 234 -146 181.5 -124.5 c 128,-1,26
 129 -103 129 -103 92.5 -64 c 128,-1,27
 56 -25 56 -25 36 30.5 c 128,-1,28
 16 86 16 86 16 155 c 0,29,30
 16 248 16 248 51.5 330 c 128,-1,31
 87 412 87 412 148 472.5 c 128,-1,32
 209 533 209 533 291.5 568 c 128,-1,33
 374 603 374 603 467 603 c 0,34,35
 536 603 536 603 592 583.5 c 128,-1,36
 648 564 648 564 687.5 526.5 c 128,-1,37
 727 489 727 489 749 434.5 c 128,-1,38
 771 380 771 380 771 311 c 0,39,40
 771 249 771 249 754 190.5 c 128,-1,41
 737 132 737 132 707.5 86 c 128,-1,42
 678 40 678 40 637.5 12 c 128,-1,43
 597 -16 597 -16 550 -16 c 0,44,45
 514 -16 514 -16 491.5 1 c 128,-1,46
 469 18 469 18 469 49 c 0,47,48
 469 51 469 51 469 54 c 128,-1,49
 469 57 469 57 470 60 c 1,50,51
 428 25 428 25 392.5 9.5 c 128,-1,52
 357 -6 357 -6 319 -6 c 0,53,54
 244 -6 244 -6 200.5 44.5 c 128,-1,55
 157 95 157 95 157 178 c 0,56,57
 157 236 157 236 178 288.5 c 128,-1,58
 199 341 199 341 234.5 381 c 128,-1,59
 270 421 270 421 316 444.5 c 128,-1,60
 362 468 362 468 412 468 c 0,61,62
 458 468 458 468 488.5 448 c 128,-1,63
 519 428 519 428 526 394 c 1,64,-1
 536 450 l 1,65,-1
 619 450 l 1,66,-1
 560 135 l 2,67,68
 558 127 558 127 557 118 c 128,-1,69
 556 109 556 109 556 102 c 0,70,71
 556 85 556 85 564.5 74.5 c 128,-1,72
 573 64 573 64 588 64 c 0,0,1
354 82 m 0,73,74
 394 82 394 82 419.5 104.5 c 128,-1,75
 445 127 445 127 463 169 c 1,76,-1
 479 284 l 1,77,78
 477 316 477 316 457.5 339.5 c 128,-1,79
 438 363 438 363 403 363 c 0,80,81
 378 363 378 363 353.5 349.5 c 128,-1,82
 329 336 329 336 309.5 312 c 128,-1,83
 290 288 290 288 278 255.5 c 128,-1,84
 266 223 266 223 266 186 c 0,85,86
 266 165 266 165 270.5 146 c 128,-1,87
 275 127 275 127 285.5 113 c 128,-1,88
 296 99 296 99 313 90.5 c 128,-1,89
 330 82 330 82 354 82 c 0,73,74
EndSplineSet
EndChar

StartChar: A
Encoding: 65 65 37
Width: 636
GlyphClass: 2
Flags: W
LayerCount: 2
Fore
SplineSet
320 710 m 1,0,-1
 499 710 l 1,1,-1
 578 0 l 1,2,-1
 380 0 l 1,3,-1
 373 139 l 1,4,-1
 203 139 l 1,5,-1
 138 0 l 1,6,-1
 -61 0 l 1,7,-1
 320 710 l 1,0,-1
370 269 m 1,8,-1
 362 489 l 1,9,-1
 259 269 l 1,10,-1
 370 269 l 1,8,-1
EndSplineSet
EndChar

StartChar: B
Encoding: 66 66 38
Width: 667
GlyphClass: 2
Flags: W
LayerCount: 2
Fore
SplineSet
148 710 m 1,0,-1
 545 710 l 2,1,2
 575 710 575 710 597.5 697.5 c 128,-1,3
 620 685 620 685 635 665 c 128,-1,4
 650 645 650 645 657.5 618.5 c 128,-1,5
 665 592 665 592 665 564 c 0,6,7
 665 534 665 534 656 504.5 c 128,-1,8
 647 475 647 475 629.5 448 c 128,-1,9
 612 421 612 421 586.5 399 c 128,-1,10
 561 377 561 377 528 364 c 1,11,12
 572 350 572 350 596.5 314.5 c 128,-1,13
 621 279 621 279 621 225 c 0,14,15
 621 165 621 165 597 122.5 c 128,-1,16
 573 80 573 80 533 53 c 128,-1,17
 493 26 493 26 440 13 c 128,-1,18
 387 0 387 0 330 0 c 2,19,-1
 -3 0 l 1,20,-1
 148 710 l 1,0,-1
365 164 m 2,21,22
 389 164 389 164 408.5 183.5 c 128,-1,23
 428 203 428 203 428 238 c 0,24,25
 428 258 428 258 419.5 270.5 c 128,-1,26
 411 283 411 283 396 283 c 2,27,-1
 252 283 l 1,28,-1
 227 164 l 1,29,-1
 365 164 l 2,21,22
402 435 m 2,30,31
 412 435 412 435 422.5 438.5 c 128,-1,32
 433 442 433 442 441.5 450 c 128,-1,33
 450 458 450 458 455.5 471.5 c 128,-1,34
 461 485 461 485 461 506 c 0,35,36
 461 526 461 526 452.5 535 c 128,-1,37
 444 544 444 544 431 544 c 2,38,-1
 308 544 l 1,39,-1
 284 435 l 1,40,-1
 402 435 l 2,30,31
EndSplineSet
EndChar

StartChar: C
Encoding: 67 67 39
Width: 664
GlyphClass: 2
Flags: W
LayerCount: 2
Fore
SplineSet
299 -6 m 0,0,1
 234 -6 234 -6 184 19.5 c 128,-1,2
 134 45 134 45 99 87.5 c 128,-1,3
 64 130 64 130 46 184.5 c 128,-1,4
 28 239 28 239 28 298 c 0,5,6
 28 372 28 372 60.5 446 c 128,-1,7
 93 520 93 520 150.5 579.5 c 128,-1,8
 208 639 208 639 286.5 676.5 c 128,-1,9
 365 714 365 714 458 714 c 0,10,11
 556 714 556 714 620 671.5 c 128,-1,12
 684 629 684 629 704 559 c 1,13,-1
 533 453 l 1,14,15
 529 479 529 479 517.5 496 c 128,-1,16
 506 513 506 513 489.5 523 c 128,-1,17
 473 533 473 533 454 537 c 128,-1,18
 435 541 435 541 417 541 c 0,19,20
 371 541 371 541 335.5 519 c 128,-1,21
 300 497 300 497 276 463 c 128,-1,22
 252 429 252 429 239.5 388.5 c 128,-1,23
 227 348 227 348 227 311 c 0,24,25
 227 282 227 282 234 255.5 c 128,-1,26
 241 229 241 229 255 209.5 c 128,-1,27
 269 190 269 190 290 178.5 c 128,-1,28
 311 167 311 167 340 167 c 0,29,30
 358 167 358 167 378.5 171.5 c 128,-1,31
 399 176 399 176 418.5 186.5 c 128,-1,32
 438 197 438 197 455.5 213.5 c 128,-1,33
 473 230 473 230 486 254 c 1,34,-1
 625 159 l 1,35,36
 602 120 602 120 564.5 89 c 128,-1,37
 527 58 527 58 482.5 37 c 128,-1,38
 438 16 438 16 390 5 c 128,-1,39
 342 -6 342 -6 299 -6 c 0,0,1
EndSplineSet
EndChar

StartChar: D
Encoding: 68 68 40
Width: 693
GlyphClass: 2
Flags: W
LayerCount: 2
Fore
SplineSet
148 710 m 1,0,-1
 410 710 l 2,1,2
 480 710 480 710 532 688.5 c 128,-1,3
 584 667 584 667 618.5 629.5 c 128,-1,4
 653 592 653 592 669.5 541.5 c 128,-1,5
 686 491 686 491 686 433 c 0,6,7
 686 339 686 339 653.5 259.5 c 128,-1,8
 621 180 621 180 563.5 122.5 c 128,-1,9
 506 65 506 65 428 32.5 c 128,-1,10
 350 0 350 0 259 0 c 2,11,-1
 -3 0 l 1,12,-1
 148 710 l 1,0,-1
295 170 m 2,13,14
 337 170 337 170 372 189 c 128,-1,15
 407 208 407 208 432 240.5 c 128,-1,16
 457 273 457 273 471 315.5 c 128,-1,17
 485 358 485 358 485 405 c 0,18,19
 485 466 485 466 456.5 503 c 128,-1,20
 428 540 428 540 374 540 c 2,21,-1
 307 540 l 1,22,-1
 228 170 l 1,23,-1
 295 170 l 2,13,14
EndSplineSet
EndChar

StartChar: E
Encoding: 69 69 41
Width: 575
GlyphClass: 2
Flags: W
LayerCount: 2
Fore
SplineSet
148 710 m 1,0,-1
 622 710 l 1,1,-1
 586 540 l 1,2,-1
 307 540 l 1,3,-1
 286 440 l 1,4,-1
 524 440 l 1,5,-1
 490 282 l 1,6,-1
 252 282 l 1,7,-1
 228 170 l 1,8,-1
 516 170 l 1,9,-1
 480 0 l 1,10,-1
 -3 0 l 1,11,-1
 148 710 l 1,0,-1
EndSplineSet
EndChar

StartChar: F
Encoding: 70 70 42
Width: 546
GlyphClass: 2
Flags: W
LayerCount: 2
Fore
SplineSet
148 710 m 1,0,-1
 612 710 l 1,1,-1
 576 540 l 1,2,-1
 307 540 l 1,3,-1
 282 422 l 1,4,-1
 500 422 l 1,5,-1
 467 264 l 1,6,-1
 248 264 l 1,7,-1
 192 0 l 1,8,-1
 -3 0 l 1,9,-1
 148 710 l 1,0,-1
EndSplineSet
EndChar

StartChar: G
Encoding: 71 71 43
Width: 711
GlyphClass: 2
Flags: W
LayerCount: 2
Fore
SplineSet
466 60 m 1,0,1
 422 26 422 26 380 10.5 c 128,-1,2
 338 -5 338 -5 290 -5 c 0,3,4
 234 -5 234 -5 186 14.5 c 128,-1,5
 138 34 138 34 103 71 c 128,-1,6
 68 108 68 108 48 161 c 128,-1,7
 28 214 28 214 28 282 c 0,8,9
 28 373 28 373 64.5 452 c 128,-1,10
 101 531 101 531 162 589.5 c 128,-1,11
 223 648 223 648 301 681.5 c 128,-1,12
 379 715 379 715 463 715 c 0,13,14
 508 715 508 715 548 704.5 c 128,-1,15
 588 694 588 694 620 673.5 c 128,-1,16
 652 653 652 653 674 624.5 c 128,-1,17
 696 596 696 596 707 560 c 1,18,-1
 539 449 l 1,19,20
 528 491 528 491 495 516.5 c 128,-1,21
 462 542 462 542 419 542 c 0,22,23
 381 542 381 542 347 523.5 c 128,-1,24
 313 505 313 505 286.5 473.5 c 128,-1,25
 260 442 260 442 244.5 399 c 128,-1,26
 229 356 229 356 229 307 c 0,27,28
 229 244 229 244 259 206 c 128,-1,29
 289 168 289 168 344 168 c 0,30,31
 422 168 422 168 498 238 c 1,32,-1
 382 238 l 1,33,-1
 411 378 l 1,34,-1
 695 378 l 1,35,-1
 614 0 l 1,36,-1
 454 0 l 1,37,-1
 466 60 l 1,0,1
EndSplineSet
Substitution2: "'ss01' Style Set 1 in Latin lookup 8 subtable" G.alt
Substitution2: "'salt' Stylistic Alternatives in Latin lookup 5 subtable" G.alt
Substitution2: "'aalt' Access All Alternates in Latin lookup 0 subtable" G.alt
EndChar

StartChar: H
Encoding: 72 72 44
Width: 724
GlyphClass: 2
Flags: W
LayerCount: 2
Fore
SplineSet
148 710 m 1,0,-1
 343 710 l 1,1,-1
 287 448 l 1,2,-1
 499 448 l 1,3,-1
 555 710 l 1,4,-1
 750 710 l 1,5,-1
 599 0 l 1,6,-1
 404 0 l 1,7,-1
 463 278 l 1,8,-1
 251 278 l 1,9,-1
 192 0 l 1,10,-1
 -3 0 l 1,11,-1
 148 710 l 1,0,-1
EndSplineSet
EndChar

StartChar: I
Encoding: 73 73 45
Width: 317
GlyphClass: 2
Flags: W
LayerCount: 2
Fore
SplineSet
148 710 m 1,0,-1
 343 710 l 1,1,-1
 192 0 l 1,2,-1
 -3 0 l 1,3,-1
 148 710 l 1,0,-1
EndSplineSet
EndChar

StartChar: J
Encoding: 74 74 46
Width: 488
GlyphClass: 2
Flags: W
LayerCount: 2
Fore
SplineSet
89 -11 m 0,0,1
 4 -11 4 -11 -48 33 c 1,2,-1
 26 192 l 2,3,4
 28 190 28 190 36 185 c 128,-1,5
 44 180 44 180 57.5 175 c 128,-1,6
 71 170 71 170 88.5 166 c 128,-1,7
 106 162 106 162 126 162 c 0,8,9
 154 162 154 162 172.5 172 c 128,-1,10
 191 182 191 182 204.5 204.5 c 128,-1,11
 218 227 218 227 228.5 262.5 c 128,-1,12
 239 298 239 298 250 349 c 2,13,-1
 327 710 l 1,14,-1
 522 710 l 1,15,-1
 445 349 l 2,16,17
 428 268 428 268 405 201.5 c 128,-1,18
 382 135 382 135 343 88 c 128,-1,19
 304 41 304 41 243 15 c 128,-1,20
 182 -11 182 -11 89 -11 c 0,0,1
EndSplineSet
EndChar

StartChar: K
Encoding: 75 75 47
Width: 665
GlyphClass: 2
Flags: W
LayerCount: 2
Fore
SplineSet
148 710 m 1,0,-1
 343 710 l 1,1,-1
 286 440 l 1,2,-1
 534 710 l 1,3,-1
 755 710 l 1,4,-1
 444 392 l 1,5,-1
 621 0 l 1,6,-1
 396 0 l 1,7,-1
 292 261 l 1,8,-1
 236 205 l 1,9,-1
 192 0 l 1,10,-1
 -3 0 l 1,11,-1
 148 710 l 1,0,-1
EndSplineSet
EndChar

StartChar: L
Encoding: 76 76 48
Width: 564
GlyphClass: 2
Flags: W
LayerCount: 2
Fore
SplineSet
148 710 m 1,0,-1
 343 710 l 1,1,-1
 228 170 l 1,2,-1
 527 170 l 1,3,-1
 491 0 l 1,4,-1
 -3 0 l 1,5,-1
 148 710 l 1,0,-1
EndSplineSet
EndChar

StartChar: M
Encoding: 77 77 49
Width: 820
GlyphClass: 2
Flags: W
LayerCount: 2
Fore
SplineSet
148 710 m 1,0,-1
 361 710 l 1,1,-1
 426 376 l 1,2,-1
 634 710 l 1,3,-1
 846 710 l 1,4,-1
 695 0 l 1,5,-1
 500 0 l 1,6,-1
 579 374 l 1,7,-1
 421 111 l 1,8,-1
 318 111 l 1,9,-1
 272 374 l 1,10,-1
 192 0 l 1,11,-1
 -3 0 l 1,12,-1
 148 710 l 1,0,-1
EndSplineSet
EndChar

StartChar: N
Encoding: 78 78 50
Width: 725
GlyphClass: 2
Flags: W
LayerCount: 2
Fore
SplineSet
148 710 m 1,0,-1
 300 710 l 1,1,-1
 480 349 l 1,2,-1
 556 710 l 1,3,-1
 751 710 l 1,4,-1
 600 0 l 1,5,-1
 446 0 l 1,6,-1
 266 349 l 1,7,-1
 192 0 l 1,8,-1
 -3 0 l 1,9,-1
 148 710 l 1,0,-1
EndSplineSet
EndChar

StartChar: O
Encoding: 79 79 51
Width: 738
GlyphClass: 2
Flags: W
LayerCount: 2
Fore
SplineSet
303 -6 m 0,0,1
 237 -6 237 -6 185.5 19 c 128,-1,2
 134 44 134 44 99 85 c 128,-1,3
 64 126 64 126 46 180 c 128,-1,4
 28 234 28 234 28 292 c 0,5,6
 28 373 28 373 63 449 c 128,-1,7
 98 525 98 525 157.5 584 c 128,-1,8
 217 643 217 643 295.5 678.5 c 128,-1,9
 374 714 374 714 460 714 c 0,10,11
 526 714 526 714 577 689 c 128,-1,12
 628 664 628 664 662.5 622.5 c 128,-1,13
 697 581 697 581 715 527.5 c 128,-1,14
 733 474 733 474 733 416 c 0,15,16
 733 336 733 336 698 260 c 128,-1,17
 663 184 663 184 604 125 c 128,-1,18
 545 66 545 66 467 30 c 128,-1,19
 389 -6 389 -6 303 -6 c 0,0,1
341 167 m 0,20,21
 389 167 389 167 425 189.5 c 128,-1,22
 461 212 461 212 485.5 246.5 c 128,-1,23
 510 281 510 281 522 322.5 c 128,-1,24
 534 364 534 364 534 403 c 0,25,26
 534 431 534 431 527.5 456 c 128,-1,27
 521 481 521 481 507.5 500 c 128,-1,28
 494 519 494 519 472 530 c 128,-1,29
 450 541 450 541 420 541 c 0,30,31
 373 541 373 541 337 519 c 128,-1,32
 301 497 301 497 277 463 c 128,-1,33
 253 429 253 429 240.5 387.5 c 128,-1,34
 228 346 228 346 228 307 c 0,35,36
 228 279 228 279 234.5 254 c 128,-1,37
 241 229 241 229 254.5 209.5 c 128,-1,38
 268 190 268 190 289.5 178.5 c 128,-1,39
 311 167 311 167 341 167 c 0,20,21
EndSplineSet
EndChar

StartChar: P
Encoding: 80 80 52
Width: 602
GlyphClass: 2
Flags: W
LayerCount: 2
Fore
SplineSet
148 710 m 1,0,-1
 440 710 l 2,1,2
 483 710 483 710 516.5 692.5 c 128,-1,3
 550 675 550 675 573.5 646.5 c 128,-1,4
 597 618 597 618 609.5 581 c 128,-1,5
 622 544 622 544 622 505 c 0,6,7
 622 453 622 453 599.5 401.5 c 128,-1,8
 577 350 577 350 538.5 309.5 c 128,-1,9
 500 269 500 269 449 243.5 c 128,-1,10
 398 218 398 218 340 218 c 2,11,-1
 238 218 l 1,12,-1
 192 0 l 1,13,-1
 -3 0 l 1,14,-1
 148 710 l 1,0,-1
363 388 m 2,15,16
 372 388 372 388 382.5 394 c 128,-1,17
 393 400 393 400 401.5 412.5 c 128,-1,18
 410 425 410 425 416 444 c 128,-1,19
 422 463 422 463 422 489 c 0,20,21
 422 518 422 518 411.5 529 c 128,-1,22
 401 540 401 540 390 540 c 2,23,-1
 307 540 l 1,24,-1
 275 388 l 1,25,-1
 363 388 l 2,15,16
EndSplineSet
EndChar

StartChar: Q
Encoding: 81 81 53
Width: 737
GlyphClass: 2
Flags: W
LayerCount: 2
Fore
SplineSet
466 31 m 1,0,1
 428 14 428 14 386.5 4.5 c 128,-1,2
 345 -5 345 -5 302 -5 c 0,3,4
 236 -5 236 -5 185 19.5 c 128,-1,5
 134 44 134 44 98.5 85.5 c 128,-1,6
 63 127 63 127 45 180.5 c 128,-1,7
 27 234 27 234 27 292 c 0,8,9
 27 373 27 373 62.5 449 c 128,-1,10
 98 525 98 525 157.5 584 c 128,-1,11
 217 643 217 643 295 679 c 128,-1,12
 373 715 373 715 459 715 c 0,13,14
 525 715 525 715 576 690 c 128,-1,15
 627 665 627 665 661.5 623.5 c 128,-1,16
 696 582 696 582 714 528 c 128,-1,17
 732 474 732 474 732 416 c 0,18,19
 732 331 732 331 693.5 252.5 c 128,-1,20
 655 174 655 174 591 114 c 1,21,-1
 669 0 l 1,22,-1
 487 0 l 1,23,-1
 466 31 l 1,0,1
341 168 m 0,24,25
 349 168 349 168 356 168.5 c 128,-1,26
 363 169 363 169 370 170 c 1,27,-1
 282 300 l 1,28,-1
 463 300 l 1,29,-1
 492 258 l 1,30,31
 512 291 512 291 522.5 329 c 128,-1,32
 533 367 533 367 533 403 c 0,33,34
 533 431 533 431 526.5 456 c 128,-1,35
 520 481 520 481 506.5 500 c 128,-1,36
 493 519 493 519 471 530.5 c 128,-1,37
 449 542 449 542 419 542 c 0,38,39
 372 542 372 542 336 520 c 128,-1,40
 300 498 300 498 276 463.5 c 128,-1,41
 252 429 252 429 239.5 387.5 c 128,-1,42
 227 346 227 346 227 307 c 0,43,44
 227 280 227 280 233.5 254.5 c 128,-1,45
 240 229 240 229 253.5 210 c 128,-1,46
 267 191 267 191 289 179.5 c 128,-1,47
 311 168 311 168 341 168 c 0,24,25
EndSplineSet
EndChar

StartChar: R
Encoding: 82 82 54
Width: 653
GlyphClass: 2
Flags: W
LayerCount: 2
Fore
SplineSet
-3 0 m 1,0,-1
 148 710 l 1,1,-1
 460 710 l 2,2,3
 503 710 503 710 537 692.5 c 128,-1,4
 571 675 571 675 594 646.5 c 128,-1,5
 617 618 617 618 629.5 581 c 128,-1,6
 642 544 642 544 642 505 c 0,7,8
 642 470 642 470 632 435.5 c 128,-1,9
 622 401 622 401 603.5 369 c 128,-1,10
 585 337 585 337 559 309.5 c 128,-1,11
 533 282 533 282 501 261 c 1,12,-1
 586 0 l 1,13,-1
 366 0 l 1,14,-1
 297 218 l 1,15,-1
 238 218 l 1,16,-1
 192 0 l 1,17,-1
 -3 0 l 1,0,-1
383 388 m 2,18,19
 391 388 391 388 401 395 c 128,-1,20
 411 402 411 402 420 415 c 128,-1,21
 429 428 429 428 435 446 c 128,-1,22
 441 464 441 464 441 485 c 0,23,24
 441 511 441 511 431.5 525.5 c 128,-1,25
 422 540 422 540 410 540 c 2,26,-1
 307 540 l 1,27,-1
 275 388 l 1,28,-1
 383 388 l 2,18,19
EndSplineSet
EndChar

StartChar: S
Encoding: 83 83 55
Width: 596
GlyphClass: 2
Flags: W
LayerCount: 2
Fore
SplineSet
245 -9 m 0,0,1
 208 -9 208 -9 170 -3 c 128,-1,2
 132 3 132 3 96 14 c 128,-1,3
 60 25 60 25 27 40 c 128,-1,4
 -6 55 -6 55 -33 74 c 1,5,-1
 87 244 l 1,6,7
 94 239 94 239 112 226 c 128,-1,8
 130 213 130 213 156.5 200 c 128,-1,9
 183 187 183 187 216 177 c 128,-1,10
 249 167 249 167 285 167 c 0,11,12
 319 167 319 167 328 178.5 c 128,-1,13
 337 190 337 190 337 204 c 0,14,15
 337 217 337 217 326 226.5 c 128,-1,16
 315 236 315 236 297 244 c 128,-1,17
 279 252 279 252 255.5 259.5 c 128,-1,18
 232 267 232 267 207 277 c 0,19,20
 141 303 141 303 108.5 340 c 128,-1,21
 76 377 76 377 76 434 c 0,22,23
 76 501 76 501 103 553.5 c 128,-1,24
 130 606 130 606 174 642 c 128,-1,25
 218 678 218 678 273.5 697 c 128,-1,26
 329 716 329 716 386 716 c 0,27,28
 423 716 423 716 457.5 708.5 c 128,-1,29
 492 701 492 701 522.5 689.5 c 128,-1,30
 553 678 553 678 579 664.5 c 128,-1,31
 605 651 605 651 625 639 c 1,32,-1
 507 478 l 2,33,34
 506 479 506 479 491.5 489.5 c 128,-1,35
 477 500 477 500 454 512 c 128,-1,36
 431 524 431 524 402 533.5 c 128,-1,37
 373 543 373 543 343 543 c 0,38,39
 321 543 321 543 305.5 533 c 128,-1,40
 290 523 290 523 290 501 c 0,41,42
 290 478 290 478 319 466 c 128,-1,43
 348 454 348 454 396 437 c 0,44,45
 432 423 432 423 461.5 408 c 128,-1,46
 491 393 491 393 512.5 373 c 128,-1,47
 534 353 534 353 545.5 326 c 128,-1,48
 557 299 557 299 557 262 c 0,49,50
 557 186 557 186 528.5 134.5 c 128,-1,51
 500 83 500 83 455 51 c 128,-1,52
 410 19 410 19 354.5 5 c 128,-1,53
 299 -9 299 -9 245 -9 c 0,0,1
EndSplineSet
EndChar

StartChar: T
Encoding: 84 84 56
Width: 600
GlyphClass: 2
Flags: W
LayerCount: 2
Fore
SplineSet
254 540 m 1,0,-1
 63 540 l 1,1,-1
 99 710 l 1,2,-1
 675 710 l 1,3,-1
 639 540 l 1,4,-1
 449 540 l 1,5,-1
 334 0 l 1,6,-1
 139 0 l 1,7,-1
 254 540 l 1,0,-1
EndSplineSet
EndChar

StartChar: U
Encoding: 85 85 57
Width: 713
GlyphClass: 2
Flags: W
LayerCount: 2
Fore
SplineSet
291 -6 m 0,0,1
 226 -6 226 -6 179.5 12.5 c 128,-1,2
 133 31 133 31 104 64 c 128,-1,3
 75 97 75 97 61.5 141.5 c 128,-1,4
 48 186 48 186 48 238 c 0,5,6
 48 289 48 289 60 345 c 2,7,-1
 138 710 l 1,8,-1
 333 710 l 1,9,-1
 255 345 l 2,10,11
 247 305 247 305 247 274 c 0,12,13
 247 227 247 227 265.5 197 c 128,-1,14
 284 167 284 167 328 167 c 0,15,16
 358 167 358 167 382 182 c 128,-1,17
 406 197 406 197 425 221.5 c 128,-1,18
 444 246 444 246 456.5 278 c 128,-1,19
 469 310 469 310 477 345 c 2,20,-1
 555 710 l 1,21,-1
 750 710 l 1,22,-1
 672 345 l 2,23,24
 656 271 656 271 624 206.5 c 128,-1,25
 592 142 592 142 544 95 c 128,-1,26
 496 48 496 48 432.5 21 c 128,-1,27
 369 -6 369 -6 291 -6 c 0,0,1
EndSplineSet
EndChar

StartChar: V
Encoding: 86 86 58
Width: 641
GlyphClass: 2
Flags: W
LayerCount: 2
Fore
SplineSet
76 710 m 1,0,-1
 282 710 l 1,1,-1
 306 245 l 1,2,-1
 526 710 l 1,3,-1
 731 710 l 1,4,-1
 335 0 l 1,5,-1
 173 0 l 1,6,-1
 76 710 l 1,0,-1
EndSplineSet
EndChar

StartChar: W
Encoding: 87 87 59
Width: 1002
GlyphClass: 2
Flags: W
LayerCount: 2
Fore
SplineSet
69 710 m 1,0,-1
 280 710 l 1,1,-1
 315 223 l 1,2,-1
 386 371 l 1,3,-1
 350 710 l 1,4,-1
 528 710 l 1,5,-1
 538 491 l 1,6,-1
 641 710 l 1,7,-1
 820 710 l 1,8,-1
 637 371 l 1,9,-1
 648 223 l 1,10,-1
 888 710 l 1,11,-1
 1101 710 l 1,12,-1
 687 0 l 1,13,-1
 526 0 l 1,14,-1
 487 254 l 1,15,-1
 342 0 l 1,16,-1
 181 0 l 1,17,-1
 69 710 l 1,0,-1
EndSplineSet
Substitution2: "'ss01' Style Set 1 in Latin lookup 8 subtable" W.alt
Substitution2: "'salt' Stylistic Alternatives in Latin lookup 5 subtable" W.alt
Substitution2: "'aalt' Access All Alternates in Latin lookup 0 subtable" W.alt
EndChar

StartChar: X
Encoding: 88 88 60
Width: 631
GlyphClass: 2
Flags: W
LayerCount: 2
Fore
SplineSet
223 350 m 1,0,-1
 77 710 l 1,1,-1
 288 710 l 1,2,-1
 355 486 l 1,3,-1
 517 710 l 1,4,-1
 727 710 l 1,5,-1
 428 350 l 1,6,-1
 568 0 l 1,7,-1
 358 0 l 1,8,-1
 297 214 l 1,9,-1
 145 0 l 1,10,-1
 -66 0 l 1,11,-1
 223 350 l 1,0,-1
EndSplineSet
EndChar

StartChar: Y
Encoding: 89 89 61
Width: 627
GlyphClass: 2
Flags: W
LayerCount: 2
Fore
SplineSet
198 237 m 1,0,-1
 72 710 l 1,1,-1
 283 710 l 1,2,-1
 330 403 l 1,3,-1
 511 710 l 1,4,-1
 723 710 l 1,5,-1
 391 235 l 1,6,-1
 341 0 l 1,7,-1
 147 0 l 1,8,-1
 198 237 l 1,0,-1
EndSplineSet
EndChar

StartChar: Z
Encoding: 90 90 62
Width: 593
GlyphClass: 2
Flags: W
LayerCount: 2
Fore
SplineSet
-6 145 m 1,0,-1
 381 540 l 1,1,-1
 93 540 l 1,2,-1
 129 710 l 1,3,-1
 643 710 l 1,4,-1
 612 565 l 1,5,-1
 244 170 l 1,6,-1
 534 170 l 1,7,-1
 498 0 l 1,8,-1
 -37 0 l 1,9,-1
 -6 145 l 1,0,-1
EndSplineSet
EndChar

StartChar: bracketleft
Encoding: 91 91 63
Width: 346
GlyphClass: 2
Flags: W
LayerCount: 2
Fore
SplineSet
-10 -40 m 1,0,-1
 156 740 l 1,1,-1
 398 740 l 1,2,-1
 366 590 l 1,3,-1
 299 590 l 1,4,-1
 197 110 l 1,5,-1
 264 110 l 1,6,-1
 233 -40 l 1,7,-1
 -10 -40 l 1,0,-1
EndSplineSet
EndChar

StartChar: backslash
Encoding: 92 92 64
Width: 663
GlyphClass: 2
Flags: W
LayerCount: 2
Fore
SplineSet
316 710 m 1,0,-1
 578 0 l 1,1,-1
 369 0 l 1,2,-1
 106 710 l 1,3,-1
 316 710 l 1,0,-1
EndSplineSet
EndChar

StartChar: bracketright
Encoding: 93 93 65
Width: 347
GlyphClass: 2
Flags: W
LayerCount: 2
Fore
SplineSet
-31 -40 m 1,0,-1
 1 110 l 1,1,-1
 69 110 l 1,2,-1
 171 590 l 1,3,-1
 103 590 l 1,4,-1
 135 740 l 1,5,-1
 377 740 l 1,6,-1
 212 -40 l 1,7,-1
 -31 -40 l 1,0,-1
EndSplineSet
EndChar

StartChar: asciicircum
Encoding: 94 94 66
Width: 630
GlyphClass: 2
Flags: W
LayerCount: 2
Fore
SplineSet
44 303 m 1,0,-1
 242 710 l 1,1,-1
 400 710 l 1,2,-1
 597 303 l 1,3,-1
 444 303 l 1,4,-1
 321 556 l 1,5,-1
 195 303 l 1,6,-1
 44 303 l 1,0,-1
EndSplineSet
EndChar

StartChar: underscore
Encoding: 95 95 67
Width: 423
GlyphClass: 2
Flags: W
LayerCount: 2
Fore
SplineSet
-55 -170 m 1,0,-1
 -19 0 l 1,1,-1
 314 0 l 1,2,-1
 278 -170 l 1,3,-1
 -55 -170 l 1,0,-1
EndSplineSet
EndChar

StartChar: grave
Encoding: 96 96 68
Width: 275
GlyphClass: 2
Flags: W
LayerCount: 2
Fore
SplineSet
45 730 m 1,0,-1
 213 730 l 1,1,-1
 230 588 l 1,2,-1
 98 574 l 1,3,-1
 45 730 l 1,0,-1
EndSplineSet
EndChar

StartChar: a
Encoding: 97 97 69
Width: 646
GlyphClass: 2
Flags: W
LayerCount: 2
Fore
SplineSet
193 -10 m 0,0,1
 149 -10 149 -10 114.5 5.5 c 128,-1,2
 80 21 80 21 56 49 c 128,-1,3
 32 77 32 77 19.5 116 c 128,-1,4
 7 155 7 155 7 202 c 0,5,6
 7 270 7 270 30 330.5 c 128,-1,7
 53 391 53 391 92 437 c 128,-1,8
 131 483 131 483 182.5 509.5 c 128,-1,9
 234 536 234 536 291 536 c 0,10,11
 339 536 339 536 373.5 513 c 128,-1,12
 408 490 408 490 420 448 c 1,13,-1
 436 522 l 1,14,-1
 627 522 l 1,15,-1
 560 210 l 2,16,17
 557 195 557 195 557 186 c 0,18,19
 557 161 557 161 584 160 c 1,20,-1
 550 0 l 1,21,22
 500 -10 500 -10 469 -10 c 0,23,24
 424 -10 424 -10 398 7 c 128,-1,25
 372 24 372 24 372 67 c 0,26,27
 372 77 372 77 373 82 c 1,28,29
 337 34 337 34 289.5 12 c 128,-1,30
 242 -10 242 -10 193 -10 c 0,0,1
279 150 m 0,31,32
 303 150 303 150 324 163.5 c 128,-1,33
 345 177 345 177 370 204 c 1,34,-1
 390 298 l 1,35,36
 385 333 385 333 365.5 354.5 c 128,-1,37
 346 376 346 376 319 376 c 0,38,39
 298 376 298 376 278 364 c 128,-1,40
 258 352 258 352 242 332.5 c 128,-1,41
 226 313 226 313 216.5 287 c 128,-1,42
 207 261 207 261 207 233 c 0,43,44
 207 195 207 195 225.5 172.5 c 128,-1,45
 244 150 244 150 279 150 c 0,31,32
EndSplineSet
Substitution2: "'ss02' Style Set 2 in Latin lookup 9 subtable" a.alt2
Substitution2: "'ss01' Style Set 1 in Latin lookup 8 subtable" a.alt
Substitution2: "'salt' Stylistic Alternatives in Latin lookup 5 subtable" a.alt
Substitution2: "'smcp' Lowercase to Small Capitals in Latin lookup 2 subtable" A.sc
AlternateSubs2: "'aalt' Access All Alternates in Latin lookup 1 subtable" A.sc a.alt a.alt2
EndChar

StartChar: b
Encoding: 98 98 70
Width: 627
GlyphClass: 2
Flags: W
LayerCount: 2
Fore
SplineSet
305 -10 m 0,0,1
 194 -10 194 -10 166 82 c 1,2,-1
 149 0 l 1,3,-1
 -16 0 l 1,4,-1
 139 730 l 1,5,-1
 329 730 l 1,6,-1
 269 448 l 1,7,8
 297 489 297 489 341.5 512.5 c 128,-1,9
 386 536 386 536 436 536 c 0,10,11
 476 536 476 536 507.5 520.5 c 128,-1,12
 539 505 539 505 560.5 477 c 128,-1,13
 582 449 582 449 593 410 c 128,-1,14
 604 371 604 371 604 325 c 0,15,16
 604 255 604 255 579.5 194 c 128,-1,17
 555 133 555 133 513.5 87.5 c 128,-1,18
 472 42 472 42 418 16 c 128,-1,19
 364 -10 364 -10 305 -10 c 0,0,1
287 150 m 0,20,21
 311 150 311 150 332 160.5 c 128,-1,22
 353 171 353 171 369 189.5 c 128,-1,23
 385 208 385 208 394.5 233 c 128,-1,24
 404 258 404 258 404 287 c 0,25,26
 404 325 404 325 387 350.5 c 128,-1,27
 370 376 370 376 341 376 c 0,28,29
 315 376 315 376 286 354.5 c 128,-1,30
 257 333 257 333 237 298 c 1,31,-1
 217 204 l 1,32,33
 231 177 231 177 246 163.5 c 128,-1,34
 261 150 261 150 287 150 c 0,20,21
EndSplineSet
Substitution2: "'smcp' Lowercase to Small Capitals in Latin lookup 2 subtable" B.sc
Substitution2: "'aalt' Access All Alternates in Latin lookup 0 subtable" B.sc
EndChar

StartChar: c
Encoding: 99 99 71
Width: 555
GlyphClass: 2
Flags: W
LayerCount: 2
Fore
SplineSet
232 -10 m 0,0,1
 175 -10 175 -10 132.5 8 c 128,-1,2
 90 26 90 26 62 56 c 128,-1,3
 34 86 34 86 20 126 c 128,-1,4
 6 166 6 166 6 211 c 0,5,6
 6 272 6 272 30 330.5 c 128,-1,7
 54 389 54 389 99 434.5 c 128,-1,8
 144 480 144 480 207 508 c 128,-1,9
 270 536 270 536 348 536 c 0,10,11
 441 536 441 536 494 496 c 128,-1,12
 547 456 547 456 565 393 c 1,13,-1
 368 337 l 1,14,15
 352 376 352 376 313 376 c 0,16,17
 292 376 292 376 272.5 365.5 c 128,-1,18
 253 355 253 355 237.5 336 c 128,-1,19
 222 317 222 317 213 290.5 c 128,-1,20
 204 264 204 264 204 232 c 0,21,22
 204 194 204 194 220.5 172 c 128,-1,23
 237 150 237 150 265 150 c 0,24,25
 303 150 303 150 336 189 c 1,26,-1
 509 133 l 1,27,28
 464 70 464 70 394 30 c 128,-1,29
 324 -10 324 -10 232 -10 c 0,0,1
EndSplineSet
Substitution2: "'smcp' Lowercase to Small Capitals in Latin lookup 2 subtable" C.sc
Substitution2: "'aalt' Access All Alternates in Latin lookup 0 subtable" C.sc
EndChar

StartChar: d
Encoding: 100 100 72
Width: 645
GlyphClass: 2
Flags: W
LayerCount: 2
Fore
SplineSet
193 -10 m 0,0,1
 149 -10 149 -10 114.5 5.5 c 128,-1,2
 80 21 80 21 56 49 c 128,-1,3
 32 77 32 77 19.5 116 c 128,-1,4
 7 155 7 155 7 202 c 0,5,6
 7 270 7 270 30 330.5 c 128,-1,7
 53 391 53 391 92 437 c 128,-1,8
 131 483 131 483 182.5 509.5 c 128,-1,9
 234 536 234 536 291 536 c 0,10,11
 339 536 339 536 373.5 513 c 128,-1,12
 408 490 408 490 420 448 c 1,13,-1
 480 730 l 1,14,-1
 671 730 l 1,15,-1
 560 210 l 2,16,17
 557 195 557 195 557 186 c 0,18,19
 557 161 557 161 584 160 c 1,20,-1
 550 0 l 1,21,22
 500 -10 500 -10 469 -10 c 0,23,24
 426 -10 426 -10 398.5 6 c 128,-1,25
 371 22 371 22 371 62 c 0,26,27
 371 67 371 67 371.5 72 c 128,-1,28
 372 77 372 77 373 82 c 1,29,30
 337 34 337 34 289.5 12 c 128,-1,31
 242 -10 242 -10 193 -10 c 0,0,1
279 150 m 0,32,33
 303 150 303 150 324 163.5 c 128,-1,34
 345 177 345 177 370 204 c 1,35,-1
 390 298 l 1,36,37
 385 333 385 333 365.5 354.5 c 128,-1,38
 346 376 346 376 319 376 c 0,39,40
 298 376 298 376 278 364 c 128,-1,41
 258 352 258 352 242 332.5 c 128,-1,42
 226 313 226 313 216.5 287 c 128,-1,43
 207 261 207 261 207 233 c 0,44,45
 207 195 207 195 225.5 172.5 c 128,-1,46
 244 150 244 150 279 150 c 0,32,33
EndSplineSet
Substitution2: "'ss01' Style Set 1 in Latin lookup 8 subtable" d.alt
Substitution2: "'salt' Stylistic Alternatives in Latin lookup 5 subtable" d.alt
Substitution2: "'smcp' Lowercase to Small Capitals in Latin lookup 2 subtable" D.sc
AlternateSubs2: "'aalt' Access All Alternates in Latin lookup 1 subtable" D.sc d.alt
EndChar

StartChar: e
Encoding: 101 101 73
Width: 566
GlyphClass: 2
Flags: W
LayerCount: 2
Fore
SplineSet
233 -10 m 0,0,1
 182 -10 182 -10 140 6 c 128,-1,2
 98 22 98 22 68.5 51 c 128,-1,3
 39 80 39 80 23 121 c 128,-1,4
 7 162 7 162 7 213 c 0,5,6
 7 280 7 280 34 339 c 128,-1,7
 61 398 61 398 108 442 c 128,-1,8
 155 486 155 486 218.5 511 c 128,-1,9
 282 536 282 536 354 536 c 0,10,11
 450 536 450 536 503.5 495.5 c 128,-1,12
 557 455 557 455 557 383 c 0,13,14
 557 294 557 294 475.5 249 c 128,-1,15
 394 204 394 204 234 204 c 2,16,-1
 205 204 l 1,17,18
 205 161 205 161 219.5 143.5 c 128,-1,19
 234 126 234 126 269 126 c 0,20,21
 333 126 333 126 367 180 c 1,22,-1
 516 132 l 1,23,24
 494 100 494 100 462.5 74 c 128,-1,25
 431 48 431 48 393.5 29 c 128,-1,26
 356 10 356 10 315 0 c 128,-1,27
 274 -10 274 -10 233 -10 c 0,0,1
320 401 m 0,28,29
 291 401 291 401 266.5 378.5 c 128,-1,30
 242 356 242 356 226 318 c 1,31,-1
 233 318 l 2,32,33
 310 318 310 318 340.5 327.5 c 128,-1,34
 371 337 371 337 371 362 c 0,35,36
 371 379 371 379 357 390 c 128,-1,37
 343 401 343 401 320 401 c 0,28,29
EndSplineSet
Substitution2: "'smcp' Lowercase to Small Capitals in Latin lookup 2 subtable" E.sc
Substitution2: "'aalt' Access All Alternates in Latin lookup 0 subtable" E.sc
EndChar

StartChar: f
Encoding: 102 102 74
Width: 394
GlyphClass: 2
Flags: W
LayerCount: 2
Fore
SplineSet
86 322 m 1,0,-1
 25 322 l 1,1,-1
 56 465 l 1,2,-1
 117 465 l 1,3,-1
 129 522 l 2,4,5
 139 571 139 571 161 611.5 c 128,-1,6
 183 652 183 652 214 680.5 c 128,-1,7
 245 709 245 709 282.5 724.5 c 128,-1,8
 320 740 320 740 362 740 c 0,9,10
 425 740 425 740 497 710 c 1,11,-1
 435 566 l 1,12,13
 421 572 421 572 403 576 c 128,-1,14
 385 580 385 580 371 580 c 0,15,16
 330 580 330 580 320 529 c 2,17,-1
 306 465 l 1,18,-1
 414 465 l 1,19,-1
 383 322 l 1,20,-1
 276 322 l 1,21,-1
 162 -213 l 1,22,-1
 -28 -213 l 1,23,-1
 86 322 l 1,0,-1
EndSplineSet
Substitution2: "'smcp' Lowercase to Small Capitals in Latin lookup 2 subtable" F.sc
Substitution2: "'aalt' Access All Alternates in Latin lookup 0 subtable" F.sc
EndChar

StartChar: g
Encoding: 103 103 75
Width: 626
GlyphClass: 2
Flags: W
LayerCount: 2
Fore
SplineSet
159 -223 m 0,0,1
 80 -223 80 -223 25.5 -197 c 128,-1,2
 -29 -171 -29 -171 -65 -122 c 1,3,-1
 57 -18 l 1,4,5
 78 -45 78 -45 112 -63.5 c 128,-1,6
 146 -82 146 -82 188 -82 c 0,7,8
 212 -82 212 -82 235.5 -75 c 128,-1,9
 259 -68 259 -68 278.5 -52.5 c 128,-1,10
 298 -37 298 -37 313 -12 c 128,-1,11
 328 13 328 13 335 48 c 2,12,-1
 342 82 l 1,13,14
 313 40 313 40 268.5 20 c 128,-1,15
 224 0 224 0 176 0 c 0,16,17
 136 0 136 0 104.5 15.5 c 128,-1,18
 73 31 73 31 51.5 58 c 128,-1,19
 30 85 30 85 19 122.5 c 128,-1,20
 8 160 8 160 8 204 c 0,21,22
 8 273 8 273 32 333.5 c 128,-1,23
 56 394 56 394 97 439 c 128,-1,24
 138 484 138 484 192.5 510 c 128,-1,25
 247 536 247 536 307 536 c 0,26,27
 360 536 360 536 395.5 513.5 c 128,-1,28
 431 491 431 491 445 448 c 1,29,-1
 462 526 l 1,30,-1
 627 526 l 1,31,-1
 525 48 l 2,32,33
 512 -14 512 -14 479.5 -64 c 128,-1,34
 447 -114 447 -114 399 -149 c 128,-1,35
 351 -184 351 -184 290 -203.5 c 128,-1,36
 229 -223 229 -223 159 -223 c 0,0,1
277 150 m 0,37,38
 301 150 301 150 322.5 163.5 c 128,-1,39
 344 177 344 177 368 204 c 1,40,-1
 388 298 l 1,41,42
 383 334 383 334 363 355 c 128,-1,43
 343 376 343 376 317 376 c 0,44,45
 296 376 296 376 276.5 364 c 128,-1,46
 257 352 257 352 241 332 c 128,-1,47
 225 312 225 312 215.5 286.5 c 128,-1,48
 206 261 206 261 206 233 c 0,49,50
 206 196 206 196 225 173 c 128,-1,51
 244 150 244 150 277 150 c 0,37,38
EndSplineSet
Substitution2: "'smcp' Lowercase to Small Capitals in Latin lookup 2 subtable" G.sc
Substitution2: "'aalt' Access All Alternates in Latin lookup 0 subtable" G.sc
EndChar

StartChar: h
Encoding: 104 104 76
Width: 601
GlyphClass: 2
Flags: W
LayerCount: 2
Fore
SplineSet
139 730 m 1,0,-1
 329 730 l 1,1,-1
 269 448 l 1,2,3
 304 491 304 491 351 513.5 c 128,-1,4
 398 536 398 536 451 536 c 0,5,6
 488 536 488 536 512.5 526.5 c 128,-1,7
 537 517 537 517 551 500.5 c 128,-1,8
 565 484 565 484 570.5 463 c 128,-1,9
 576 442 576 442 576 420 c 0,10,11
 576 401 576 401 573.5 382 c 128,-1,12
 571 363 571 363 567 346 c 2,13,-1
 494 0 l 1,14,-1
 304 0 l 1,15,-1
 367 296 l 2,16,17
 370 311 370 311 370 323 c 0,18,19
 370 348 370 348 358.5 359 c 128,-1,20
 347 370 347 370 329 370 c 0,21,22
 321 370 321 370 309.5 364.5 c 128,-1,23
 298 359 298 359 285 349.5 c 128,-1,24
 272 340 272 340 259.5 326 c 128,-1,25
 247 312 247 312 237 295 c 1,26,-1
 174 0 l 1,27,-1
 -16 0 l 1,28,-1
 139 730 l 1,0,-1
EndSplineSet
Substitution2: "'smcp' Lowercase to Small Capitals in Latin lookup 2 subtable" H.sc
Substitution2: "'aalt' Access All Alternates in Latin lookup 0 subtable" H.sc
EndChar

StartChar: i
Encoding: 105 105 77
Width: 286
GlyphClass: 2
Flags: W
LayerCount: 2
Fore
SplineSet
96 526 m 1,0,-1
 286 526 l 1,1,-1
 174 0 l 1,2,-1
 -16 0 l 1,3,-1
 96 526 l 1,0,-1
139 730 m 1,4,-1
 329 730 l 1,5,-1
 295 570 l 1,6,-1
 105 570 l 1,7,-1
 139 730 l 1,4,-1
EndSplineSet
Substitution2: "'smcp' Lowercase to Small Capitals in Latin lookup 2 subtable" I.sc
Substitution2: "'aalt' Access All Alternates in Latin lookup 0 subtable" I.sc
EndChar

StartChar: j
Encoding: 106 106 78
Width: 290
GlyphClass: 2
Flags: W
LayerCount: 2
Fore
SplineSet
-66 -209 m 0,0,1
 -106 -209 -106 -209 -140.5 -195 c 128,-1,2
 -175 -181 -175 -181 -199 -155 c 1,3,-1
 -94 -26 l 1,4,5
 -82 -46 -82 -46 -56 -46 c 0,6,7
 -23 -46 -23 -46 -13 -3 c 2,8,-1
 99 526 l 1,9,-1
 290 526 l 1,10,-1
 181 12 l 2,11,12
 170 -37 170 -37 147 -77.5 c 128,-1,13
 124 -118 124 -118 91.5 -147.5 c 128,-1,14
 59 -177 59 -177 18.5 -193 c 128,-1,15
 -22 -209 -22 -209 -66 -209 c 0,0,1
143 730 m 1,16,-1
 333 730 l 1,17,-1
 299 570 l 1,18,-1
 109 570 l 1,19,-1
 143 730 l 1,16,-1
EndSplineSet
Substitution2: "'ss01' Style Set 1 in Latin lookup 8 subtable" j.alt
Substitution2: "'salt' Stylistic Alternatives in Latin lookup 5 subtable" j.alt
Substitution2: "'smcp' Lowercase to Small Capitals in Latin lookup 2 subtable" J.sc
AlternateSubs2: "'aalt' Access All Alternates in Latin lookup 1 subtable" J.sc j.alt
EndChar

StartChar: k
Encoding: 107 107 79
Width: 582
GlyphClass: 2
Flags: W
LayerCount: 2
Fore
SplineSet
139 730 m 1,0,-1
 327 730 l 1,1,-1
 256 398 l 1,2,3
 332 531 332 531 447 531 c 0,4,5
 502 531 502 531 532 499 c 128,-1,6
 562 467 562 467 562 407 c 0,7,8
 562 340 562 340 528 283.5 c 128,-1,9
 494 227 494 227 432 189 c 1,10,-1
 509 0 l 1,11,-1
 309 0 l 1,12,-1
 235 215 l 1,13,14
 307 228 307 228 349.5 257 c 128,-1,15
 392 286 392 286 392 324 c 0,16,17
 392 344 392 344 380 356.5 c 128,-1,18
 368 369 368 369 349 369 c 0,19,20
 332 369 332 369 314.5 359 c 128,-1,21
 297 349 297 349 280.5 332 c 128,-1,22
 264 315 264 315 249 292 c 128,-1,23
 234 269 234 269 223 243 c 1,24,-1
 172 0 l 1,25,-1
 -16 0 l 1,26,-1
 139 730 l 1,0,-1
EndSplineSet
Substitution2: "'smcp' Lowercase to Small Capitals in Latin lookup 2 subtable" K.sc
Substitution2: "'aalt' Access All Alternates in Latin lookup 0 subtable" K.sc
EndChar

StartChar: l
Encoding: 108 108 80
Width: 345
GlyphClass: 2
Flags: W
LayerCount: 2
Fore
SplineSet
132 -10 m 0,0,1
 69 -10 69 -10 37 17.5 c 128,-1,2
 5 45 5 45 5 97 c 0,3,4
 5 108 5 108 6 119 c 128,-1,5
 7 130 7 130 10 142 c 2,6,-1
 135 730 l 1,7,-1
 325 730 l 1,8,-1
 214 209 l 2,9,10
 211 197 211 197 211 187 c 0,11,12
 211 149 211 149 247 149 c 0,13,14
 258 149 258 149 272 153 c 128,-1,15
 286 157 286 157 299 164 c 1,16,-1
 293 24 l 1,17,18
 257 8 257 8 213 -1 c 128,-1,19
 169 -10 169 -10 132 -10 c 0,0,1
EndSplineSet
Substitution2: "'ss01' Style Set 1 in Latin lookup 8 subtable" l.alt
Substitution2: "'salt' Stylistic Alternatives in Latin lookup 5 subtable" l.alt
Substitution2: "'smcp' Lowercase to Small Capitals in Latin lookup 2 subtable" L.sc
AlternateSubs2: "'aalt' Access All Alternates in Latin lookup 1 subtable" L.sc l.alt
EndChar

StartChar: m
Encoding: 109 109 81
Width: 903
GlyphClass: 2
Flags: W
LayerCount: 2
Fore
SplineSet
96 526 m 1,0,-1
 267 526 l 1,1,-1
 250 448 l 1,2,3
 285 491 285 491 337.5 513.5 c 128,-1,4
 390 536 390 536 447 536 c 0,5,6
 480 536 480 536 502 528.5 c 128,-1,7
 524 521 524 521 537.5 508.5 c 128,-1,8
 551 496 551 496 557.5 479.5 c 128,-1,9
 564 463 564 463 566 445 c 1,10,11
 601 488 601 488 652.5 512 c 128,-1,12
 704 536 704 536 760 536 c 0,13,14
 796 536 796 536 818.5 526 c 128,-1,15
 841 516 841 516 854.5 500 c 128,-1,16
 868 484 868 484 873 463 c 128,-1,17
 878 442 878 442 878 420 c 0,18,19
 878 411 878 411 876.5 393 c 128,-1,20
 875 375 875 375 869 346 c 2,21,-1
 795 0 l 1,22,-1
 605 0 l 1,23,-1
 668 296 l 2,24,25
 671 312 671 312 671 325 c 0,26,27
 671 348 671 348 661.5 359 c 128,-1,28
 652 370 652 370 639 370 c 0,29,30
 629 370 629 370 616.5 364 c 128,-1,31
 604 358 604 358 591.5 348 c 128,-1,32
 579 338 579 338 567.5 324.5 c 128,-1,33
 556 311 556 311 547 295 c 1,34,-1
 485 0 l 1,35,-1
 295 0 l 1,36,-1
 358 296 l 2,37,38
 361 312 361 312 361 325 c 0,39,40
 361 348 361 348 351.5 359 c 128,-1,41
 342 370 342 370 328 370 c 0,42,43
 318 370 318 370 305.5 364 c 128,-1,44
 293 358 293 358 280.5 348 c 128,-1,45
 268 338 268 338 256.5 324 c 128,-1,46
 245 310 245 310 237 295 c 1,47,-1
 174 0 l 1,48,-1
 -16 0 l 1,49,-1
 96 526 l 1,0,-1
EndSplineSet
Substitution2: "'smcp' Lowercase to Small Capitals in Latin lookup 2 subtable" M.sc
Substitution2: "'aalt' Access All Alternates in Latin lookup 0 subtable" M.sc
EndChar

StartChar: n
Encoding: 110 110 82
Width: 601
GlyphClass: 2
Flags: W
LayerCount: 2
Fore
SplineSet
96 526 m 1,0,-1
 267 526 l 1,1,-1
 250 448 l 1,2,3
 285 491 285 491 337.5 513.5 c 128,-1,4
 390 536 390 536 455 536 c 0,5,6
 491 536 491 536 514.5 526 c 128,-1,7
 538 516 538 516 551.5 499 c 128,-1,8
 565 482 565 482 570 460.5 c 128,-1,9
 575 439 575 439 575 417 c 0,10,11
 575 398 575 398 572.5 380 c 128,-1,12
 570 362 570 362 567 346 c 2,13,-1
 494 0 l 1,14,-1
 304 0 l 1,15,-1
 367 296 l 2,16,17
 370 311 370 311 370 322 c 0,18,19
 370 347 370 347 358.5 358.5 c 128,-1,20
 347 370 347 370 331 370 c 0,21,22
 311 370 311 370 283.5 349 c 128,-1,23
 256 328 256 328 237 295 c 1,24,-1
 174 0 l 1,25,-1
 -16 0 l 1,26,-1
 96 526 l 1,0,-1
EndSplineSet
Substitution2: "'smcp' Lowercase to Small Capitals in Latin lookup 2 subtable" N.sc
Substitution2: "'aalt' Access All Alternates in Latin lookup 0 subtable" N.sc
EndChar

StartChar: o
Encoding: 111 111 83
Width: 596
GlyphClass: 2
Flags: W
LayerCount: 2
Fore
SplineSet
232 -10 m 0,0,1
 175 -10 175 -10 132.5 7.5 c 128,-1,2
 90 25 90 25 62 55 c 128,-1,3
 34 85 34 85 20.5 125 c 128,-1,4
 7 165 7 165 7 209 c 0,5,6
 7 270 7 270 30.5 329 c 128,-1,7
 54 388 54 388 98 434 c 128,-1,8
 142 480 142 480 205 508 c 128,-1,9
 268 536 268 536 348 536 c 0,10,11
 405 536 405 536 447.5 518.5 c 128,-1,12
 490 501 490 501 518 471 c 128,-1,13
 546 441 546 441 559.5 401.5 c 128,-1,14
 573 362 573 362 573 317 c 0,15,16
 573 256 573 256 549.5 197 c 128,-1,17
 526 138 526 138 481.5 92 c 128,-1,18
 437 46 437 46 374 18 c 128,-1,19
 311 -10 311 -10 232 -10 c 0,0,1
266 150 m 0,20,21
 288 150 288 150 308 161 c 128,-1,22
 328 172 328 172 343 191 c 128,-1,23
 358 210 358 210 366.5 236.5 c 128,-1,24
 375 263 375 263 375 294 c 0,25,26
 375 332 375 332 359 354 c 128,-1,27
 343 376 343 376 314 376 c 0,28,29
 292 376 292 376 272 365 c 128,-1,30
 252 354 252 354 237 335 c 128,-1,31
 222 316 222 316 213.5 289.5 c 128,-1,32
 205 263 205 263 205 232 c 0,33,34
 205 194 205 194 221 172 c 128,-1,35
 237 150 237 150 266 150 c 0,20,21
EndSplineSet
Substitution2: "'smcp' Lowercase to Small Capitals in Latin lookup 2 subtable" O.sc
Substitution2: "'aalt' Access All Alternates in Latin lookup 0 subtable" O.sc
EndChar

StartChar: p
Encoding: 112 112 84
Width: 626
GlyphClass: 2
Flags: W
LayerCount: 2
Fore
SplineSet
95 526 m 1,0,-1
 260 526 l 1,1,-1
 243 447 l 1,2,3
 278 490 278 490 321.5 513 c 128,-1,4
 365 536 365 536 422 536 c 0,5,6
 464 536 464 536 497.5 520 c 128,-1,7
 531 504 531 504 554.5 476 c 128,-1,8
 578 448 578 448 590.5 409 c 128,-1,9
 603 370 603 370 603 324 c 0,10,11
 603 256 603 256 580 195.5 c 128,-1,12
 557 135 557 135 518 89.5 c 128,-1,13
 479 44 479 44 428.5 17 c 128,-1,14
 378 -10 378 -10 324 -10 c 256,15,16
 270 -10 270 -10 235.5 12.5 c 128,-1,17
 201 35 201 35 190 78 c 1,18,-1
 128 -213 l 1,19,-1
 -62 -213 l 1,20,-1
 95 526 l 1,0,-1
292 150 m 0,21,22
 313 150 313 150 333 162 c 128,-1,23
 353 174 353 174 369 193.5 c 128,-1,24
 385 213 385 213 394.5 239 c 128,-1,25
 404 265 404 265 404 293 c 0,26,27
 404 331 404 331 385.5 353.5 c 128,-1,28
 367 376 367 376 332 376 c 0,29,30
 309 376 309 376 287.5 362.5 c 128,-1,31
 266 349 266 349 242 322 c 1,32,-1
 222 231 l 1,33,34
 227 196 227 196 246.5 173 c 128,-1,35
 266 150 266 150 292 150 c 0,21,22
EndSplineSet
Substitution2: "'smcp' Lowercase to Small Capitals in Latin lookup 2 subtable" P.sc
Substitution2: "'aalt' Access All Alternates in Latin lookup 0 subtable" P.sc
EndChar

StartChar: q
Encoding: 113 113 85
Width: 626
GlyphClass: 2
Flags: W
LayerCount: 2
Fore
SplineSet
169 -10 m 0,0,1
 131 -10 131 -10 101 5.5 c 128,-1,2
 71 21 71 21 50 49 c 128,-1,3
 29 77 29 77 18 115.5 c 128,-1,4
 7 154 7 154 7 200 c 0,5,6
 7 270 7 270 31.5 331.5 c 128,-1,7
 56 393 56 393 97 438.5 c 128,-1,8
 138 484 138 484 191.5 510 c 128,-1,9
 245 536 245 536 304 536 c 0,10,11
 361 536 361 536 394 512 c 128,-1,12
 427 488 427 488 444 445 c 1,13,-1
 461 526 l 1,14,-1
 626 526 l 1,15,-1
 516 7 l 2,16,17
 513 -5 513 -5 513 -14 c 0,18,19
 513 -42 513 -42 551 -43 c 1,20,-1
 517 -203 l 1,21,22
 491 -208 491 -208 461.5 -210.5 c 128,-1,23
 432 -213 432 -213 410 -213 c 0,24,25
 362 -213 362 -213 331.5 -188.5 c 128,-1,26
 301 -164 301 -164 301 -121 c 0,27,28
 301 -110 301 -110 304 -96 c 2,29,-1
 341 78 l 1,30,31
 312 35 312 35 267.5 12.5 c 128,-1,32
 223 -10 223 -10 169 -10 c 0,0,1
278 150 m 0,33,34
 321 150 321 150 368 204 c 1,35,-1
 388 298 l 1,36,37
 382 333 382 333 362.5 354.5 c 128,-1,38
 343 376 343 376 317 376 c 0,39,40
 296 376 296 376 275.5 364 c 128,-1,41
 255 352 255 352 239.5 332.5 c 128,-1,42
 224 313 224 313 214.5 287.5 c 128,-1,43
 205 262 205 262 205 234 c 0,44,45
 205 196 205 196 224 173 c 128,-1,46
 243 150 243 150 278 150 c 0,33,34
EndSplineSet
Substitution2: "'ss01' Style Set 1 in Latin lookup 8 subtable" q.alt
Substitution2: "'salt' Stylistic Alternatives in Latin lookup 5 subtable" q.alt
Substitution2: "'smcp' Lowercase to Small Capitals in Latin lookup 2 subtable" Q.sc
AlternateSubs2: "'aalt' Access All Alternates in Latin lookup 1 subtable" Q.sc q.alt
EndChar

StartChar: r
Encoding: 114 114 86
Width: 408
GlyphClass: 2
Flags: W
LayerCount: 2
Fore
SplineSet
96 526 m 1,0,-1
 270 526 l 1,1,-1
 248 426 l 1,2,3
 286 479 286 479 331.5 507.5 c 128,-1,4
 377 536 377 536 422 536 c 0,5,6
 433 536 433 536 437 536 c 128,-1,7
 441 536 441 536 444 535 c 2,8,-1
 408 364 l 1,9,10
 357 364 357 364 312 352 c 128,-1,11
 267 340 267 340 240 312 c 1,12,-1
 174 0 l 1,13,-1
 -16 0 l 1,14,-1
 96 526 l 1,0,-1
EndSplineSet
Substitution2: "'smcp' Lowercase to Small Capitals in Latin lookup 2 subtable" R.sc
Substitution2: "'aalt' Access All Alternates in Latin lookup 0 subtable" R.sc
EndChar

StartChar: s
Encoding: 115 115 87
Width: 485
GlyphClass: 2
Flags: W
LayerCount: 2
Fore
SplineSet
191 -10 m 0,0,1
 125 -10 125 -10 66.5 12.5 c 128,-1,2
 8 35 8 35 -27 78 c 1,3,-1
 61 192 l 1,4,5
 101 159 101 159 140.5 141 c 128,-1,6
 180 123 180 123 215 123 c 0,7,8
 235 123 235 123 243 131 c 128,-1,9
 251 139 251 139 251 153 c 0,10,11
 251 164 251 164 239 174 c 128,-1,12
 227 184 227 184 195 195 c 0,13,14
 152 209 152 209 122 223 c 128,-1,15
 92 237 92 237 72.5 252 c 128,-1,16
 53 267 53 267 44 285 c 128,-1,17
 35 303 35 303 35 326 c 0,18,19
 35 370 35 370 54.5 408.5 c 128,-1,20
 74 447 74 447 108 475.5 c 128,-1,21
 142 504 142 504 187 520.5 c 128,-1,22
 232 537 232 537 283 537 c 0,23,24
 339 537 339 537 385 522 c 128,-1,25
 431 507 431 507 474 461 c 1,26,-1
 379 347 l 1,27,28
 338 378 338 378 310 392 c 128,-1,29
 282 406 282 406 256 406 c 0,30,31
 239 406 239 406 229 397.5 c 128,-1,32
 219 389 219 389 219 374 c 0,33,34
 219 361 219 361 232.5 352.5 c 128,-1,35
 246 344 246 344 281 333 c 0,36,37
 368 307 368 307 404.5 276 c 128,-1,38
 441 245 441 245 441 196 c 0,39,40
 441 150 441 150 423 112 c 128,-1,41
 405 74 405 74 372 47 c 128,-1,42
 339 20 339 20 293 5 c 128,-1,43
 247 -10 247 -10 191 -10 c 0,0,1
EndSplineSet
Substitution2: "'smcp' Lowercase to Small Capitals in Latin lookup 2 subtable" S.sc
Substitution2: "'aalt' Access All Alternates in Latin lookup 0 subtable" S.sc
EndChar

StartChar: t
Encoding: 116 116 88
Width: 415
GlyphClass: 2
Flags: W
LayerCount: 2
Fore
SplineSet
172 -11 m 0,0,1
 145 -11 145 -11 122 -5.5 c 128,-1,2
 99 0 99 0 81.5 13 c 128,-1,3
 64 26 64 26 54.5 46 c 128,-1,4
 45 66 45 66 45 96 c 0,5,6
 45 107 45 107 46 118 c 128,-1,7
 47 129 47 129 50 142 c 2,8,-1
 101 383 l 1,9,-1
 40 383 l 1,10,-1
 71 526 l 1,11,-1
 132 526 l 1,12,-1
 167 691 l 1,13,-1
 357 691 l 1,14,-1
 322 526 l 1,15,-1
 418 526 l 1,16,-1
 388 383 l 1,17,-1
 291 383 l 1,18,-1
 254 209 l 2,19,20
 253 204 253 204 252.5 199.5 c 128,-1,21
 252 195 252 195 252 191 c 0,22,23
 252 162 252 162 282 162 c 0,24,25
 294 162 294 162 312.5 166.5 c 128,-1,26
 331 171 331 171 351 179 c 1,27,-1
 351 29 l 1,28,29
 307 12 307 12 260.5 0.5 c 128,-1,30
 214 -11 214 -11 172 -11 c 0,0,1
EndSplineSet
Substitution2: "'ss01' Style Set 1 in Latin lookup 8 subtable" t.alt
Substitution2: "'salt' Stylistic Alternatives in Latin lookup 5 subtable" t.alt
Substitution2: "'smcp' Lowercase to Small Capitals in Latin lookup 2 subtable" T.sc
AlternateSubs2: "'aalt' Access All Alternates in Latin lookup 1 subtable" T.sc t.alt
EndChar

StartChar: u
Encoding: 117 117 89
Width: 618
GlyphClass: 2
Flags: W
LayerCount: 2
Fore
SplineSet
132 -10 m 0,0,1
 72 -10 72 -10 40.5 21.5 c 128,-1,2
 9 53 9 53 9 114 c 0,3,4
 9 142 9 142 17 180 c 2,5,-1
 91 526 l 1,6,-1
 280 526 l 1,7,-1
 216 223 l 2,8,9
 213 208 213 208 213 196 c 0,10,11
 213 150 213 150 251 150 c 0,12,13
 268 150 268 150 290 160 c 128,-1,14
 312 170 312 170 341 204 c 1,15,-1
 410 526 l 1,16,-1
 600 526 l 1,17,-1
 533 210 l 2,18,19
 530 195 530 195 530 186 c 0,20,21
 530 161 530 161 557 160 c 1,22,-1
 523 0 l 1,23,24
 473 -10 473 -10 441 -10 c 0,25,26
 398 -10 398 -10 370.5 6.5 c 128,-1,27
 343 23 343 23 343 63 c 0,28,29
 343 68 343 68 343.5 72.5 c 128,-1,30
 344 77 344 77 345 82 c 1,31,32
 300 33 300 33 247.5 11.5 c 128,-1,33
 195 -10 195 -10 132 -10 c 0,0,1
EndSplineSet
Substitution2: "'smcp' Lowercase to Small Capitals in Latin lookup 2 subtable" U.sc
Substitution2: "'aalt' Access All Alternates in Latin lookup 0 subtable" U.sc
EndChar

StartChar: v
Encoding: 118 118 90
Width: 548
GlyphClass: 2
Flags: W
LayerCount: 2
Fore
SplineSet
43 526 m 1,0,-1
 240 526 l 1,1,-1
 240 149 l 1,2,3
 270 204 270 204 292.5 249.5 c 128,-1,4
 315 295 315 295 333.5 337.5 c 128,-1,5
 352 380 352 380 369 425 c 128,-1,6
 386 470 386 470 405 526 c 1,7,-1
 575 526 l 1,8,9
 539 395 539 395 466.5 263 c 128,-1,10
 394 131 394 131 292 0 c 1,11,-1
 96 0 l 1,12,-1
 43 526 l 1,0,-1
EndSplineSet
Substitution2: "'smcp' Lowercase to Small Capitals in Latin lookup 2 subtable" V.sc
Substitution2: "'aalt' Access All Alternates in Latin lookup 0 subtable" V.sc
EndChar

StartChar: w
Encoding: 119 119 91
Width: 816
GlyphClass: 2
Flags: W
LayerCount: 2
Fore
SplineSet
34 526 m 1,0,-1
 214 526 l 1,1,-1
 252 173 l 1,2,-1
 304 286 l 1,3,-1
 265 526 l 1,4,-1
 415 526 l 1,5,-1
 424 372 l 1,6,-1
 499 526 l 1,7,-1
 639 526 l 1,8,9
 609 454 609 454 579 398.5 c 128,-1,10
 549 343 549 343 508 286 c 1,11,-1
 515 224 l 1,12,13
 542 259 542 259 561.5 285.5 c 128,-1,14
 581 312 581 312 596.5 333.5 c 128,-1,15
 612 355 612 355 624 375 c 128,-1,16
 636 395 636 395 647.5 416.5 c 128,-1,17
 659 438 659 438 671.5 464.5 c 128,-1,18
 684 491 684 491 700 526 c 1,19,-1
 870 526 l 1,20,21
 816 395 816 395 727 263 c 128,-1,22
 638 131 638 131 517 0 c 1,23,-1
 408 0 l 1,24,-1
 388 200 l 1,25,-1
 283 0 l 1,26,-1
 127 0 l 1,27,-1
 34 526 l 1,0,-1
EndSplineSet
Substitution2: "'ss01' Style Set 1 in Latin lookup 8 subtable" w.alt
Substitution2: "'salt' Stylistic Alternatives in Latin lookup 5 subtable" w.alt
Substitution2: "'smcp' Lowercase to Small Capitals in Latin lookup 2 subtable" W.sc
AlternateSubs2: "'aalt' Access All Alternates in Latin lookup 1 subtable" W.sc w.alt
EndChar

StartChar: x
Encoding: 120 120 92
Width: 535
GlyphClass: 2
Flags: W
LayerCount: 2
Fore
SplineSet
157 263 m 1,0,-1
 48 526 l 1,1,-1
 240 526 l 1,2,-1
 278 397 l 1,3,-1
 283 376 l 1,4,-1
 296 397 l 1,5,-1
 393 526 l 1,6,-1
 583 526 l 1,7,-1
 361 263 l 1,8,-1
 476 0 l 1,9,-1
 283 0 l 1,10,-1
 239 129 l 1,11,-1
 235 149 l 1,12,-1
 222 129 l 1,13,-1
 124 0 l 1,14,-1
 -69 0 l 1,15,-1
 157 263 l 1,0,-1
EndSplineSet
Substitution2: "'smcp' Lowercase to Small Capitals in Latin lookup 2 subtable" X.sc
Substitution2: "'aalt' Access All Alternates in Latin lookup 0 subtable" X.sc
EndChar

StartChar: y
Encoding: 121 121 93
Width: 543
GlyphClass: 2
Flags: W
LayerCount: 2
Fore
SplineSet
-56 -93 m 1,0,1
 -28 -93 -28 -93 -7.5 -91 c 128,-1,2
 13 -89 13 -89 29 -83.5 c 128,-1,3
 45 -78 45 -78 57.5 -69 c 128,-1,4
 70 -60 70 -60 82 -45 c 2,5,-1
 111 -11 l 1,6,-1
 42 526 l 1,7,-1
 235 526 l 1,8,-1
 247 161 l 1,9,-1
 281 217 l 2,10,11
 317 277 317 277 346.5 356 c 128,-1,12
 376 435 376 435 393 526 c 1,13,-1
 575 526 l 1,14,15
 561 478 561 478 546 435.5 c 128,-1,16
 531 393 531 393 508 346 c 128,-1,17
 485 299 485 299 451.5 241 c 128,-1,18
 418 183 418 183 369 103 c 2,19,-1
 289 -26 l 2,20,21
 253 -84 253 -84 217.5 -123.5 c 128,-1,22
 182 -163 182 -163 143.5 -187.5 c 128,-1,23
 105 -212 105 -212 61.5 -223 c 128,-1,24
 18 -234 18 -234 -34 -234 c 1,25,-1
 -56 -93 l 1,0,1
EndSplineSet
Substitution2: "'ss01' Style Set 1 in Latin lookup 8 subtable" y.alt
Substitution2: "'salt' Stylistic Alternatives in Latin lookup 5 subtable" y.alt
Substitution2: "'smcp' Lowercase to Small Capitals in Latin lookup 2 subtable" Y.sc
AlternateSubs2: "'aalt' Access All Alternates in Latin lookup 1 subtable" Y.sc y.alt
EndChar

StartChar: z
Encoding: 122 122 94
Width: 472
GlyphClass: 2
Flags: W
LayerCount: 2
Fore
SplineSet
-18 112 m 1,0,-1
 261 396 l 1,1,-1
 57 396 l 1,2,-1
 85 526 l 1,3,-1
 487 526 l 1,4,-1
 463 414 l 1,5,-1
 184 130 l 1,6,-1
 412 130 l 1,7,-1
 384 0 l 1,8,-1
 -42 0 l 1,9,-1
 -18 112 l 1,0,-1
EndSplineSet
Substitution2: "'smcp' Lowercase to Small Capitals in Latin lookup 2 subtable" Z.sc
Substitution2: "'aalt' Access All Alternates in Latin lookup 0 subtable" Z.sc
EndChar

StartChar: braceleft
Encoding: 123 123 95
Width: 360
GlyphClass: 2
Flags: W
LayerCount: 2
Fore
SplineSet
325 590 m 1,0,-1
 292 436 l 2,1,2
 286 408 286 408 270 391 c 128,-1,3
 254 374 254 374 236 360 c 1,4,5
 245 349 245 349 253.5 335 c 128,-1,6
 262 321 262 321 262 302 c 0,7,8
 262 297 262 297 261.5 293 c 128,-1,9
 261 289 261 289 260 284 c 2,10,-1
 225 119 l 1,11,-1
 277 119 l 1,12,-1
 245 -31 l 1,13,-1
 45 -31 l 2,14,15
 40 -31 40 -31 34 -27.5 c 128,-1,16
 28 -24 28 -24 28 -11 c 0,17,18
 28 -5 28 -5 29 -1 c 2,19,-1
 76 219 l 2,20,21
 77 224 77 224 77.5 227.5 c 128,-1,22
 78 231 78 231 78 236 c 0,23,24
 78 261 78 261 64 276.5 c 128,-1,25
 50 292 50 292 34 296 c 1,26,-1
 61 426 l 1,27,28
 71 426 71 426 83 432.5 c 128,-1,29
 95 439 95 439 105.5 449.5 c 128,-1,30
 116 460 116 460 124.5 473.5 c 128,-1,31
 133 487 133 487 136 501 c 2,32,-1
 180 710 l 2,33,34
 184 728 184 728 193.5 734 c 128,-1,35
 203 740 203 740 209 740 c 2,36,-1
 409 740 l 1,37,-1
 377 590 l 1,38,-1
 325 590 l 1,0,-1
EndSplineSet
EndChar

StartChar: bar
Encoding: 124 124 96
Width: 358
GlyphClass: 2
Flags: W
LayerCount: 2
Fore
SplineSet
104 -130 m 1,0,-1
 104 775 l 1,1,-1
 264 775 l 1,2,-1
 264 -130 l 1,3,-1
 104 -130 l 1,0,-1
EndSplineSet
EndChar

StartChar: braceright
Encoding: 125 125 97
Width: 364
GlyphClass: 2
Flags: W
LayerCount: 2
Fore
SplineSet
111 590 m 1,0,-1
 143 740 l 1,1,-1
 343 740 l 2,2,3
 348 740 348 740 354 735.5 c 128,-1,4
 360 731 360 731 360 720 c 0,5,6
 360 714 360 714 359 710 c 2,7,-1
 314 501 l 2,8,9
 312 491 312 491 312 486 c 0,10,11
 312 462 312 462 325.5 444 c 128,-1,12
 339 426 339 426 357 426 c 1,13,-1
 329 296 l 1,14,15
 308 291 308 291 284.5 271 c 128,-1,16
 261 251 261 251 254 219 c 2,17,-1
 208 -1 l 2,18,19
 204 -20 204 -20 194 -25.5 c 128,-1,20
 184 -31 184 -31 179 -31 c 2,21,-1
 -21 -31 l 1,22,-1
 11 119 l 1,23,-1
 63 119 l 1,24,-1
 98 284 l 2,25,26
 104 311 104 311 120.5 328.5 c 128,-1,27
 137 346 137 346 154 360 c 1,28,29
 145 371 145 371 137 384.5 c 128,-1,30
 129 398 129 398 129 417 c 0,31,32
 129 422 129 422 129 426.5 c 128,-1,33
 129 431 129 431 131 436 c 2,34,-1
 164 590 l 1,35,-1
 111 590 l 1,0,-1
EndSplineSet
EndChar

StartChar: asciitilde
Encoding: 126 126 98
Width: 587
GlyphClass: 2
Flags: W
LayerCount: 2
Fore
SplineSet
32 216 m 1,0,1
 32 228 32 228 40 254.5 c 128,-1,2
 48 281 48 281 67.5 307.5 c 128,-1,3
 87 334 87 334 118.5 354 c 128,-1,4
 150 374 150 374 198 374 c 0,5,6
 228 374 228 374 252.5 366 c 128,-1,7
 277 358 277 358 299 348.5 c 128,-1,8
 321 339 321 339 342 331 c 128,-1,9
 363 323 363 323 387 323 c 0,10,11
 409 323 409 323 423 330.5 c 128,-1,12
 437 338 437 338 444 347 c 128,-1,13
 451 356 451 356 453.5 364 c 128,-1,14
 456 372 456 372 456 374 c 2,15,-1
 556 374 l 1,16,17
 556 366 556 366 547.5 340.5 c 128,-1,18
 539 315 539 315 519.5 287 c 128,-1,19
 500 259 500 259 467.5 237.5 c 128,-1,20
 435 216 435 216 386 216 c 0,21,22
 357 216 357 216 333 223.5 c 128,-1,23
 309 231 309 231 286.5 240 c 128,-1,24
 264 249 264 249 242.5 256.5 c 128,-1,25
 221 264 221 264 197 264 c 0,26,27
 174 264 174 264 161 257 c 128,-1,28
 148 250 148 250 142 241 c 128,-1,29
 136 232 136 232 134.5 224.5 c 128,-1,30
 133 217 133 217 133 216 c 2,31,-1
 32 216 l 1,32,-1
 32 216 l 1,0,1
EndSplineSet
EndChar

StartChar: exclamdown
Encoding: 161 161 100
Width: 331
GlyphClass: 2
Flags: W
LayerCount: 2
Fore
SplineSet
284 410 m 1,0,-1
 195 -7 l 1,1,-1
 5 -7 l 1,2,-1
 94 410 l 1,3,-1
 284 410 l 1,0,-1
347 710 m 1,4,-1
 308 526 l 1,5,-1
 118 526 l 1,6,-1
 157 710 l 1,7,-1
 347 710 l 1,4,-1
EndSplineSet
EndChar

StartChar: cent
Encoding: 162 162 101
Width: 599
GlyphClass: 2
Flags: W
LayerCount: 2
Fore
SplineSet
179 -120 m 1,0,-1
 203 -9 l 1,1,2
 161 -6 161 -6 128 14 c 128,-1,3
 95 34 95 34 72 64.5 c 128,-1,4
 49 95 49 95 37 133.5 c 128,-1,5
 25 172 25 172 25 213 c 0,6,7
 25 267 25 267 44 318.5 c 128,-1,8
 63 370 63 370 100 413.5 c 128,-1,9
 137 457 137 457 191.5 489 c 128,-1,10
 246 521 246 521 318 534 c 1,11,-1
 342 645 l 1,12,-1
 421 645 l 1,13,-1
 397 534 l 1,14,15
 428 533 428 533 457.5 524 c 128,-1,16
 487 515 487 515 511.5 497.5 c 128,-1,17
 536 480 536 480 555 454 c 128,-1,18
 574 428 574 428 585 393 c 1,19,-1
 388 337 l 1,20,21
 386 349 386 349 378 358.5 c 128,-1,22
 370 368 370 368 363 370 c 1,23,-1
 317 155 l 1,24,25
 331 162 331 162 339.5 170.5 c 128,-1,26
 348 179 348 179 356 189 c 1,27,-1
 529 133 l 1,28,29
 505 97 505 97 472 70 c 128,-1,30
 439 43 439 43 404.5 25.5 c 128,-1,31
 370 8 370 8 337.5 -1 c 128,-1,32
 305 -10 305 -10 282 -10 c 1,33,-1
 258 -120 l 1,34,-1
 179 -120 l 1,0,-1
222 226 m 0,35,36
 222 209 222 209 226 192 c 128,-1,37
 230 175 230 175 239 164 c 1,38,-1
 281 361 l 1,39,40
 269 353 269 353 258.5 338.5 c 128,-1,41
 248 324 248 324 239.5 305.5 c 128,-1,42
 231 287 231 287 226.5 266.5 c 128,-1,43
 222 246 222 246 222 226 c 0,35,36
EndSplineSet
EndChar

StartChar: sterling
Encoding: 163 163 102
Width: 566
GlyphClass: 2
Flags: W
LayerCount: 2
Fore
SplineSet
78 388 m 1,0,-1
 128 388 l 1,1,2
 124 415 124 415 120 442 c 128,-1,3
 116 469 116 469 116 495 c 0,4,5
 116 541 116 541 138 581.5 c 128,-1,6
 160 622 160 622 196 651.5 c 128,-1,7
 232 681 232 681 279.5 698 c 128,-1,8
 327 715 327 715 378 715 c 0,9,10
 442 715 442 715 494.5 687.5 c 128,-1,11
 547 660 547 660 578 610 c 1,12,-1
 458 493 l 1,13,14
 440 522 440 522 407.5 542 c 128,-1,15
 375 562 375 562 345 562 c 0,16,17
 316 562 316 562 298.5 543 c 128,-1,18
 281 524 281 524 281 492 c 0,19,20
 281 470 281 470 286 443.5 c 128,-1,21
 291 417 291 417 295 388 c 1,22,-1
 477 388 l 1,23,-1
 447 248 l 1,24,-1
 279 248 l 1,25,26
 255 197 255 197 198 146 c 1,27,28
 224 154 224 154 242 157.5 c 128,-1,29
 260 161 260 161 276 161 c 0,30,31
 305 161 305 161 335 153.5 c 128,-1,32
 365 146 365 146 395 146 c 0,33,34
 411 146 411 146 424.5 149 c 128,-1,35
 438 152 438 152 456 159 c 1,36,-1
 472 19 l 1,37,38
 448 4 448 4 414 -5.5 c 128,-1,39
 380 -15 380 -15 351 -15 c 0,40,41
 329 -15 329 -15 306 -10 c 128,-1,42
 283 -5 283 -5 259.5 1.5 c 128,-1,43
 236 8 236 8 212 13 c 128,-1,44
 188 18 188 18 164 18 c 0,45,46
 137 18 137 18 97.5 10.5 c 128,-1,47
 58 3 58 3 19 -9 c 1,48,-1
 10 125 l 1,49,50
 41 143 41 143 70.5 176 c 128,-1,51
 100 209 100 209 117 248 c 1,52,-1
 49 248 l 1,53,-1
 78 388 l 1,0,-1
EndSplineSet
EndChar

StartChar: currency
Encoding: 164 164 103
Width: 586
GlyphClass: 2
Flags: W
LayerCount: 2
Fore
SplineSet
200 507 m 1,0,1
 222 518 222 518 247.5 523.5 c 128,-1,2
 273 529 273 529 303 529 c 0,3,4
 332 529 332 529 357 523.5 c 128,-1,5
 382 518 382 518 403 509 c 1,6,-1
 471 578 l 1,7,-1
 542 507 l 1,8,-1
 479 444 l 1,9,10
 493 421 493 421 501 394 c 128,-1,11
 509 367 509 367 509 338 c 0,12,13
 509 279 509 279 478 231 c 1,14,-1
 542 167 l 1,15,-1
 476 101 l 1,16,-1
 405 168 l 1,17,18
 363 147 363 147 303 147 c 0,19,20
 244 147 244 147 198 169 c 1,21,-1
 126 101 l 1,22,-1
 60 167 l 1,23,-1
 126 233 l 1,24,25
 97 280 97 280 97 338 c 0,26,27
 97 366 97 366 104 392 c 128,-1,28
 111 418 111 418 125 441 c 1,29,-1
 60 507 l 1,30,-1
 131 578 l 1,31,-1
 200 507 l 1,0,1
230 338 m 256,32,33
 230 301 230 301 250.5 280 c 128,-1,34
 271 259 271 259 303 259 c 256,35,36
 335 259 335 259 355.5 280 c 128,-1,37
 376 301 376 301 376 338 c 256,38,39
 376 375 376 375 355.5 396 c 128,-1,40
 335 417 335 417 303 417 c 256,41,42
 271 417 271 417 250.5 396 c 128,-1,43
 230 375 230 375 230 338 c 256,32,33
EndSplineSet
EndChar

StartChar: yen
Encoding: 165 165 104
Width: 717
GlyphClass: 2
Flags: W
LayerCount: 2
Fore
SplineSet
577 432 m 1,0,-1
 636 432 l 1,1,-1
 611 312 l 1,2,-1
 490 312 l 1,3,-1
 436 235 l 1,4,-1
 429 202 l 1,5,-1
 588 202 l 1,6,-1
 563 82 l 1,7,-1
 403 82 l 1,8,-1
 386 0 l 1,9,-1
 192 0 l 1,10,-1
 209 82 l 1,11,-1
 51 82 l 1,12,-1
 77 202 l 1,13,-1
 235 202 l 1,14,-1
 242 237 l 1,15,-1
 222 312 l 1,16,-1
 101 312 l 1,17,-1
 126 432 l 1,18,-1
 187 432 l 1,19,-1
 116 710 l 1,20,-1
 327 710 l 1,21,-1
 375 403 l 1,22,-1
 555 710 l 1,23,-1
 767 710 l 1,24,-1
 577 432 l 1,0,-1
EndSplineSet
EndChar

StartChar: brokenbar
Encoding: 166 166 105
Width: 350
GlyphClass: 2
Flags: W
LayerCount: 2
Fore
SplineSet
260 254 m 1,0,-1
 260 -130 l 1,1,-1
 100 -130 l 1,2,-1
 100 254 l 1,3,-1
 260 254 l 1,0,-1
260 775 m 1,4,-1
 260 391 l 1,5,-1
 100 391 l 1,6,-1
 100 775 l 1,7,-1
 260 775 l 1,4,-1
EndSplineSet
EndChar

StartChar: section
Encoding: 167 167 106
Width: 535
GlyphClass: 2
Flags: W
LayerCount: 2
Fore
SplineSet
457 232 m 0,0,1
 464 213 464 213 464 176 c 0,2,3
 464 102 464 102 434.5 51.5 c 128,-1,4
 405 1 405 1 361.5 -30 c 128,-1,5
 318 -61 318 -61 268.5 -74.5 c 128,-1,6
 219 -88 219 -88 180 -88 c 0,7,8
 139 -88 139 -88 105.5 -75 c 128,-1,9
 72 -62 72 -62 47 -43.5 c 128,-1,10
 22 -25 22 -25 6 -5.5 c 128,-1,11
 -10 14 -10 14 -16 27 c 1,12,-1
 130 143 l 1,13,14
 147 114 147 114 167.5 103 c 128,-1,15
 188 92 188 92 210 92 c 0,16,17
 231 92 231 92 245 102 c 128,-1,18
 259 112 259 112 259 131 c 0,19,20
 259 143 259 143 250.5 146 c 128,-1,21
 242 149 242 149 233 150 c 0,22,23
 188 154 188 154 155.5 167 c 128,-1,24
 123 180 123 180 102 200.5 c 128,-1,25
 81 221 81 221 71 248 c 128,-1,26
 61 275 61 275 61 305 c 0,27,28
 61 329 61 329 65 346 c 128,-1,29
 69 363 69 363 74.5 374.5 c 128,-1,30
 80 386 80 386 84.5 393.5 c 128,-1,31
 89 401 89 401 90 406 c 0,32,33
 87 414 87 414 83 433 c 128,-1,34
 79 452 79 452 79 477 c 0,35,36
 79 520 79 520 100 563 c 128,-1,37
 121 606 121 606 156.5 639.5 c 128,-1,38
 192 673 192 673 240 694 c 128,-1,39
 288 715 288 715 342 715 c 0,40,41
 389 715 389 715 422.5 699 c 128,-1,42
 456 683 456 683 479 660 c 128,-1,43
 502 637 502 637 516 612 c 128,-1,44
 530 587 530 587 538 568 c 1,45,-1
 379 500 l 1,46,47
 372 518 372 518 360 532.5 c 128,-1,48
 348 547 348 547 319 547 c 0,49,50
 274 547 274 547 274 506 c 0,51,52
 274 492 274 492 283 488.5 c 128,-1,53
 292 485 292 485 303 484 c 0,54,55
 335 482 335 482 368 474.5 c 128,-1,56
 401 467 401 467 428 450 c 128,-1,57
 455 433 455 433 472 405.5 c 128,-1,58
 489 378 489 378 489 338 c 0,59,60
 489 318 489 318 484.5 301 c 128,-1,61
 480 284 480 284 474.5 270 c 128,-1,62
 469 256 469 256 464 246 c 128,-1,63
 459 236 459 236 457 232 c 0,0,1
243 307 m 0,64,65
 243 296 243 296 248.5 291 c 128,-1,66
 254 286 254 286 261.5 283.5 c 128,-1,67
 269 281 269 281 277.5 280 c 128,-1,68
 286 279 286 279 291 277 c 1,69,70
 297 282 297 282 300.5 290.5 c 128,-1,71
 304 299 304 299 304 307 c 0,72,73
 304 321 304 321 295.5 327 c 128,-1,74
 287 333 287 333 279 333 c 0,75,76
 270 333 270 333 262 335 c 128,-1,77
 254 337 254 337 256 337 c 1,78,79
 251 333 251 333 247 325 c 128,-1,80
 243 317 243 317 243 307 c 0,64,65
EndSplineSet
EndChar

StartChar: dieresis
Encoding: 168 168 107
Width: 556
GlyphClass: 2
Flags: W
LayerCount: 2
Fore
SplineSet
73 580 m 1,0,-1
 103 720 l 1,1,-1
 259 720 l 1,2,-1
 229 580 l 1,3,-1
 73 580 l 1,0,-1
298 580 m 1,4,-1
 328 720 l 1,5,-1
 483 720 l 1,6,-1
 454 580 l 1,7,-1
 298 580 l 1,4,-1
EndSplineSet
EndChar

StartChar: copyright
Encoding: 169 169 108
Width: 862
GlyphClass: 2
Flags: W
LayerCount: 2
Fore
SplineSet
438 -7 m 0,0,1
 356 -7 356 -7 286 20.5 c 128,-1,2
 216 48 216 48 165 96.5 c 128,-1,3
 114 145 114 145 85.5 211 c 128,-1,4
 57 277 57 277 57 355 c 0,5,6
 57 432 57 432 85.5 498 c 128,-1,7
 114 564 114 564 165 612 c 128,-1,8
 216 660 216 660 286 687.5 c 128,-1,9
 356 715 356 715 438 715 c 0,10,11
 522 715 522 715 594 687.5 c 128,-1,12
 666 660 666 660 718 612 c 128,-1,13
 770 564 770 564 799.5 498 c 128,-1,14
 829 432 829 432 829 355 c 0,15,16
 829 277 829 277 799.5 211 c 128,-1,17
 770 145 770 145 718 96.5 c 128,-1,18
 666 48 666 48 594 20.5 c 128,-1,19
 522 -7 522 -7 438 -7 c 0,0,1
438 57 m 256,20,21
 505 57 505 57 564 79 c 128,-1,22
 623 101 623 101 666 140 c 128,-1,23
 709 179 709 179 734 234 c 128,-1,24
 759 289 759 289 759 355 c 0,25,26
 759 416 759 416 734.5 470 c 128,-1,27
 710 524 710 524 667.5 564.5 c 128,-1,28
 625 605 625 605 566 628 c 128,-1,29
 507 651 507 651 438 651 c 0,30,31
 372 651 372 651 315 628 c 128,-1,32
 258 605 258 605 216 564.5 c 128,-1,33
 174 524 174 524 150.5 470 c 128,-1,34
 127 416 127 416 127 355 c 0,35,36
 127 293 127 293 150.5 238.5 c 128,-1,37
 174 184 174 184 215.5 143.5 c 128,-1,38
 257 103 257 103 314 80 c 128,-1,39
 371 57 371 57 438 57 c 256,20,21
448 111 m 0,40,41
 383 111 383 111 332.5 131 c 128,-1,42
 282 151 282 151 248 184.5 c 128,-1,43
 214 218 214 218 196.5 262 c 128,-1,44
 179 306 179 306 179 354 c 256,45,46
 179 402 179 402 196.5 446 c 128,-1,47
 214 490 214 490 248 523.5 c 128,-1,48
 282 557 282 557 332.5 577 c 128,-1,49
 383 597 383 597 448 597 c 0,50,51
 540 597 540 597 602 557 c 128,-1,52
 664 517 664 517 695 454 c 1,53,-1
 510 398 l 1,54,55
 487 437 487 437 447 437 c 0,56,57
 417 437 417 437 395.5 415.5 c 128,-1,58
 374 394 374 394 374 354 c 256,59,60
 374 314 374 314 395.5 292.5 c 128,-1,61
 417 271 417 271 447 271 c 0,62,63
 487 271 487 271 510 310 c 1,64,-1
 695 254 l 1,65,66
 664 191 664 191 602 151 c 128,-1,67
 540 111 540 111 448 111 c 0,40,41
EndSplineSet
EndChar

StartChar: ordfeminine
Encoding: 170 170 109
Width: 434
GlyphClass: 2
Flags: W
LayerCount: 2
Fore
SplineSet
155 333 m 0,0,1
 112 333 112 333 86.5 359.5 c 128,-1,2
 61 386 61 386 61 428 c 0,3,4
 61 460 61 460 74.5 487 c 128,-1,5
 88 514 88 514 111.5 534 c 128,-1,6
 135 554 135 554 166 565.5 c 128,-1,7
 197 577 197 577 233 577 c 0,8,9
 271 577 271 577 293 563 c 1,10,-1
 295 574 l 2,11,12
 296 579 296 579 296.5 583.5 c 128,-1,13
 297 588 297 588 297 592 c 0,14,15
 297 609 297 609 287 617.5 c 128,-1,16
 277 626 277 626 254 626 c 0,17,18
 225 626 225 626 199.5 616 c 128,-1,19
 174 606 174 606 144 586 c 1,20,-1
 124 668 l 1,21,22
 199 715 199 715 285 715 c 0,23,24
 354 715 354 715 389.5 687 c 128,-1,25
 425 659 425 659 425 603 c 0,26,27
 425 592 425 592 423.5 581 c 128,-1,28
 422 570 422 570 420 558 c 2,29,-1
 405 487 l 2,30,31
 404 482 404 482 403.5 479 c 128,-1,32
 403 476 403 476 403 473 c 0,33,34
 403 453 403 453 428 452 c 1,35,-1
 404 340 l 1,36,37
 387 336 387 336 370.5 334.5 c 128,-1,38
 354 333 354 333 343 333 c 0,39,40
 308 333 308 333 293 345.5 c 128,-1,41
 278 358 278 358 278 384 c 2,42,-1
 278 398 l 1,43,44
 249 366 249 366 218 349.5 c 128,-1,45
 187 333 187 333 155 333 c 0,0,1
214 428 m 0,46,47
 221 428 221 428 230.5 431.5 c 128,-1,48
 240 435 240 435 248.5 440.5 c 128,-1,49
 257 446 257 446 263.5 453 c 128,-1,50
 270 460 270 460 272 468 c 2,51,-1
 278 495 l 1,52,53
 270 500 270 500 259.5 502.5 c 128,-1,54
 249 505 249 505 241 505 c 0,55,56
 220 505 220 505 203.5 490.5 c 128,-1,57
 187 476 187 476 187 456 c 0,58,59
 187 444 187 444 194.5 436 c 128,-1,60
 202 428 202 428 214 428 c 0,46,47
EndSplineSet
EndChar

StartChar: guillemotleft
Encoding: 171 171 110
Width: 693
GlyphClass: 2
Flags: W
LayerCount: 2
Fore
SplineSet
30 298 m 1,0,-1
 337 496 l 1,1,-1
 305 344 l 1,2,-1
 170 259 l 1,3,-1
 270 182 l 1,4,-1
 238 30 l 1,5,-1
 11 210 l 1,6,-1
 30 298 l 1,0,-1
373 298 m 1,7,-1
 681 496 l 1,8,-1
 648 344 l 1,9,-1
 514 259 l 1,10,-1
 614 182 l 1,11,-1
 582 30 l 1,12,-1
 355 210 l 1,13,-1
 373 298 l 1,7,-1
EndSplineSet
EndChar

StartChar: logicalnot
Encoding: 172 172 111
Width: 615
GlyphClass: 2
Flags: W
LayerCount: 2
Fore
SplineSet
584 431 m 1,0,-1
 511 89 l 1,1,-1
 351 89 l 1,2,-1
 388 261 l 1,3,-1
 38 261 l 1,4,-1
 74 431 l 1,5,-1
 584 431 l 1,0,-1
EndSplineSet
EndChar

StartChar: uni00AD
Encoding: 173 173 112
Width: 609
GlyphClass: 2
Flags: W
LayerCount: 2
Fore
SplineSet
26 191 m 1,0,-1
 62 361 l 1,1,-1
 572 361 l 1,2,-1
 536 191 l 1,3,-1
 26 191 l 1,0,-1
EndSplineSet
EndChar

StartChar: registered
Encoding: 174 174 113
Width: 862
GlyphClass: 2
Flags: W
LayerCount: 2
Fore
SplineSet
440 -7 m 256,0,1
 357 -7 357 -7 286.5 20.5 c 128,-1,2
 216 48 216 48 165 96.5 c 128,-1,3
 114 145 114 145 85.5 211 c 128,-1,4
 57 277 57 277 57 355 c 0,5,6
 57 432 57 432 85.5 498 c 128,-1,7
 114 564 114 564 165 612 c 128,-1,8
 216 660 216 660 286.5 687.5 c 128,-1,9
 357 715 357 715 440 715 c 256,10,11
 523 715 523 715 594.5 687.5 c 128,-1,12
 666 660 666 660 718 612 c 128,-1,13
 770 564 770 564 799.5 498 c 128,-1,14
 829 432 829 432 829 355 c 0,15,16
 829 277 829 277 799.5 211 c 128,-1,17
 770 145 770 145 718 96.5 c 128,-1,18
 666 48 666 48 594.5 20.5 c 128,-1,19
 523 -7 523 -7 440 -7 c 256,0,1
441 56 m 0,20,21
 507 56 507 56 564.5 78.5 c 128,-1,22
 622 101 622 101 664.5 140.5 c 128,-1,23
 707 180 707 180 731 234 c 128,-1,24
 755 288 755 288 755 352 c 0,25,26
 755 415 755 415 731.5 469.5 c 128,-1,27
 708 524 708 524 666 564.5 c 128,-1,28
 624 605 624 605 566.5 628 c 128,-1,29
 509 651 509 651 441 651 c 256,30,31
 373 651 373 651 316 628 c 128,-1,32
 259 605 259 605 218 564.5 c 128,-1,33
 177 524 177 524 154 470 c 128,-1,34
 131 416 131 416 131 354 c 256,35,36
 131 292 131 292 154 238 c 128,-1,37
 177 184 177 184 218 143.5 c 128,-1,38
 259 103 259 103 316 79.5 c 128,-1,39
 373 56 373 56 441 56 c 0,20,21
270 572 m 1,40,-1
 469 572 l 2,41,42
 500 572 500 572 527 559 c 128,-1,43
 554 546 554 546 573 524.5 c 128,-1,44
 592 503 592 503 603 476 c 128,-1,45
 614 449 614 449 614 422 c 0,46,47
 614 387 614 387 597 354 c 128,-1,48
 580 321 580 321 552 301 c 1,49,-1
 648 144 l 1,50,-1
 501 144 l 1,51,-1
 420 275 l 1,52,-1
 402 275 l 1,53,-1
 402 144 l 1,54,-1
 270 144 l 1,55,-1
 270 572 l 1,40,-1
455 387 m 2,56,57
 466 387 466 387 475 394 c 128,-1,58
 484 401 484 401 484 422 c 0,59,60
 484 445 484 445 474 451 c 128,-1,61
 464 457 464 457 453 457 c 2,62,-1
 402 457 l 1,63,-1
 402 387 l 1,64,-1
 455 387 l 2,56,57
EndSplineSet
EndChar

StartChar: macron
Encoding: 175 175 114
Width: 420
GlyphClass: 2
Flags: W
LayerCount: 2
Fore
SplineSet
50 607 m 1,0,-1
 74 720 l 1,1,-1
 370 720 l 1,2,-1
 346 607 l 1,3,-1
 50 607 l 1,0,-1
EndSplineSet
EndChar

StartChar: degree
Encoding: 176 176 115
Width: 294
GlyphClass: 2
Flags: W
LayerCount: 2
Fore
SplineSet
184 486 m 0,0,1
 140 486 140 486 115.5 510.5 c 128,-1,2
 91 535 91 535 91 577 c 0,3,4
 91 605 91 605 102 631.5 c 128,-1,5
 113 658 113 658 132 678.5 c 128,-1,6
 151 699 151 699 177.5 711.5 c 128,-1,7
 204 724 204 724 235 724 c 0,8,9
 279 724 279 724 304 698 c 128,-1,10
 329 672 329 672 329 631 c 0,11,12
 329 600 329 600 317.5 573.5 c 128,-1,13
 306 547 306 547 286.5 527.5 c 128,-1,14
 267 508 267 508 240.5 497 c 128,-1,15
 214 486 214 486 184 486 c 0,0,1
203 573 m 0,16,17
 216 573 216 573 227.5 585 c 128,-1,18
 239 597 239 597 239 612 c 0,19,20
 239 626 239 626 231.5 631 c 128,-1,21
 224 636 224 636 216 636 c 0,22,23
 202 636 202 636 190.5 625 c 128,-1,24
 179 614 179 614 179 600 c 0,25,26
 179 589 179 589 185 581 c 128,-1,27
 191 573 191 573 203 573 c 0,16,17
EndSplineSet
EndChar

StartChar: plusminus
Encoding: 177 177 116
Width: 542
GlyphClass: 2
Flags: W
LayerCount: 2
Fore
SplineSet
70 1 m 1,0,-1
 70 151 l 1,1,-1
 450 151 l 1,2,-1
 450 1 l 1,3,-1
 70 1 l 1,0,-1
451 462 m 1,4,-1
 451 312 l 1,5,-1
 346 312 l 1,6,-1
 346 197 l 1,7,-1
 176 197 l 1,8,-1
 176 312 l 1,9,-1
 71 312 l 1,10,-1
 71 462 l 1,11,-1
 176 462 l 1,12,-1
 176 577 l 1,13,-1
 346 577 l 1,14,-1
 346 462 l 1,15,-1
 451 462 l 1,4,-1
EndSplineSet
EndChar

StartChar: twosuperior
Encoding: 178 178 117
Width: 427
GlyphClass: 2
Flags: W
LayerCount: 2
Fore
SplineSet
42 376 m 1,0,1
 51 419 51 419 63.5 450.5 c 128,-1,2
 76 482 76 482 95.5 506.5 c 128,-1,3
 115 531 115 531 144 550 c 128,-1,4
 173 569 173 569 215 586 c 0,5,6
 242 597 242 597 267.5 606.5 c 128,-1,7
 293 616 293 616 312.5 627.5 c 128,-1,8
 332 639 332 639 344 652.5 c 128,-1,9
 356 666 356 666 356 684 c 256,10,11
 356 702 356 702 339.5 708.5 c 128,-1,12
 323 715 323 715 297 715 c 0,13,14
 262 715 262 715 229.5 701.5 c 128,-1,15
 197 688 197 688 174 671 c 1,16,-1
 123 751 l 1,17,18
 152 780 152 780 207.5 800.5 c 128,-1,19
 263 821 263 821 335 821 c 256,20,21
 407 821 407 821 444.5 792.5 c 128,-1,22
 482 764 482 764 482 707 c 0,23,24
 482 665 482 665 466.5 635 c 128,-1,25
 451 605 451 605 428.5 585 c 128,-1,26
 406 565 406 565 379.5 553 c 128,-1,27
 353 541 353 541 331 535 c 0,28,29
 297 525 297 525 273.5 514 c 128,-1,30
 250 503 250 503 245 483 c 1,31,-1
 419 483 l 1,32,-1
 396 376 l 1,33,-1
 42 376 l 1,0,1
EndSplineSet
EndChar

StartChar: threesuperior
Encoding: 179 179 118
Width: 407
GlyphClass: 2
Flags: W
LayerCount: 2
Fore
SplineSet
203 369 m 0,0,1
 148 369 148 369 112.5 386 c 128,-1,2
 77 403 77 403 51 440 c 1,3,-1
 125 524 l 1,4,5
 128 521 128 521 134 513.5 c 128,-1,6
 140 506 140 506 151 498.5 c 128,-1,7
 162 491 162 491 180 485 c 128,-1,8
 198 479 198 479 226 479 c 0,9,10
 241 479 241 479 256.5 481 c 128,-1,11
 272 483 272 483 284 487.5 c 128,-1,12
 296 492 296 492 304 499 c 128,-1,13
 312 506 312 506 312 517 c 0,14,15
 312 539 312 539 277.5 547 c 128,-1,16
 243 555 243 555 180 555 c 2,17,-1
 156 555 l 1,18,-1
 177 654 l 1,19,-1
 200 654 l 2,20,21
 228 654 228 654 253 656.5 c 128,-1,22
 278 659 278 659 296.5 664 c 128,-1,23
 315 669 315 669 325.5 676.5 c 128,-1,24
 336 684 336 684 336 695 c 0,25,26
 336 703 336 703 330 708 c 128,-1,27
 324 713 324 713 316 715.5 c 128,-1,28
 308 718 308 718 298 719 c 128,-1,29
 288 720 288 720 281 720 c 0,30,31
 244 720 244 720 218 708 c 128,-1,32
 192 696 192 696 167 676 c 1,33,-1
 118 765 l 1,34,35
 150 793 150 793 200.5 807 c 128,-1,36
 251 821 251 821 299 821 c 0,37,38
 371 821 371 821 413 791 c 128,-1,39
 455 761 455 761 455 715 c 0,40,41
 455 673 455 673 421.5 645.5 c 128,-1,42
 388 618 388 618 340 611 c 1,43,44
 382 604 382 604 401.5 577.5 c 128,-1,45
 421 551 421 551 421 515 c 0,46,47
 421 476 421 476 401 448.5 c 128,-1,48
 381 421 381 421 349.5 403.5 c 128,-1,49
 318 386 318 386 279.5 377.5 c 128,-1,50
 241 369 241 369 203 369 c 0,0,1
EndSplineSet
EndChar

StartChar: acute
Encoding: 180 180 119
Width: 274
GlyphClass: 2
Flags: W
LayerCount: 2
Fore
SplineSet
143 576 m 1,0,-1
 15 588 l 1,1,-1
 92 730 l 1,2,-1
 260 730 l 1,3,-1
 143 576 l 1,0,-1
EndSplineSet
EndChar

StartChar: mu
Encoding: 181 181 120
Width: 668
GlyphClass: 2
Flags: W
LayerCount: 2
Fore
SplineSet
108 526 m 1,0,-1
 298 526 l 1,1,-1
 234 223 l 2,2,3
 232 215 232 215 231 208 c 128,-1,4
 230 201 230 201 230 195 c 0,5,6
 230 150 230 150 272 150 c 0,7,8
 286 150 286 150 308 160 c 128,-1,9
 330 170 330 170 359 204 c 1,10,-1
 427 526 l 1,11,-1
 617 526 l 1,12,-1
 550 210 l 2,13,14
 547 198 547 198 547 189 c 0,15,16
 547 161 547 161 585 160 c 1,17,-1
 551 0 l 1,18,19
 521 -5 521 -5 498.5 -7.5 c 128,-1,20
 476 -10 476 -10 459 -10 c 0,21,22
 363 -10 363 -10 363 63 c 2,23,-1
 363 82 l 1,24,25
 357 71 357 71 342.5 55.5 c 128,-1,26
 328 40 328 40 308.5 25.5 c 128,-1,27
 289 11 289 11 267.5 0.5 c 128,-1,28
 246 -10 246 -10 226 -10 c 0,29,30
 180 -10 180 -10 180 26 c 1,31,-1
 141 -213 l 1,32,-1
 -49 -213 l 1,33,-1
 108 526 l 1,0,-1
EndSplineSet
EndChar

StartChar: paragraph
Encoding: 182 182 121
Width: 683
GlyphClass: 2
Flags: W
LayerCount: 2
Fore
SplineSet
60 377 m 0,0,1
 60 453 60 453 83 514.5 c 128,-1,2
 106 576 106 576 149.5 619.5 c 128,-1,3
 193 663 193 663 255 686.5 c 128,-1,4
 317 710 317 710 394 710 c 2,5,-1
 726 710 l 1,6,-1
 696 570 l 1,7,-1
 629 570 l 1,8,-1
 491 -80 l 1,9,-1
 331 -80 l 1,10,-1
 388 188 l 1,11,-1
 362 188 l 1,12,-1
 305 -80 l 1,13,-1
 145 -80 l 1,14,-1
 202 188 l 1,15,16
 169 188 169 188 142.5 202 c 128,-1,17
 116 216 116 216 97.5 240.5 c 128,-1,18
 79 265 79 265 69.5 300 c 128,-1,19
 60 335 60 335 60 377 c 0,0,1
218 387 m 0,20,21
 218 364 218 364 221.5 347 c 128,-1,22
 225 330 225 330 232 328 c 1,23,-1
 284 570 l 1,24,25
 274 567 274 567 262.5 550.5 c 128,-1,26
 251 534 251 534 241 508.5 c 128,-1,27
 231 483 231 483 224.5 451 c 128,-1,28
 218 419 218 419 218 387 c 0,20,21
470 570 m 1,29,-1
 443 570 l 1,30,-1
 392 328 l 1,31,-1
 418 328 l 1,32,-1
 470 570 l 1,29,-1
EndSplineSet
EndChar

StartChar: periodcentered
Encoding: 183 183 122
Width: 254
GlyphClass: 2
Flags: W
LayerCount: 2
Fore
SplineSet
36 238 m 1,0,-1
 75 422 l 1,1,-1
 229 422 l 1,2,-1
 190 238 l 1,3,-1
 36 238 l 1,0,-1
EndSplineSet
EndChar

StartChar: cedilla
Encoding: 184 184 123
Width: 350
GlyphClass: 2
Flags: W
LayerCount: 2
Fore
SplineSet
26 -128 m 1,0,1
 34 -135 34 -135 58 -141.5 c 128,-1,2
 82 -148 82 -148 108 -148 c 0,3,4
 132 -148 132 -148 150 -140 c 128,-1,5
 168 -132 168 -132 168 -112 c 0,6,7
 168 -98 168 -98 155.5 -92.5 c 128,-1,8
 143 -87 143 -87 121 -87 c 0,9,10
 101 -87 101 -87 78 -90.5 c 128,-1,11
 55 -94 55 -94 44 -96 c 1,12,-1
 134 36 l 1,13,-1
 198 17 l 1,14,-1
 153 -34 l 2,15,16
 158 -33 158 -33 164.5 -32.5 c 128,-1,17
 171 -32 171 -32 178 -32 c 0,18,19
 208 -32 208 -32 231 -46.5 c 128,-1,20
 254 -61 254 -61 254 -95 c 0,21,22
 254 -118 254 -118 243.5 -139 c 128,-1,23
 233 -160 233 -160 212 -176.5 c 128,-1,24
 191 -193 191 -193 158.5 -203 c 128,-1,25
 126 -213 126 -213 82 -213 c 0,26,27
 47 -213 47 -213 21 -206.5 c 128,-1,28
 -5 -200 -5 -200 -22 -192 c 1,29,-1
 26 -128 l 1,0,1
EndSplineSet
EndChar

StartChar: onesuperior
Encoding: 185 185 124
Width: 312
GlyphClass: 2
Flags: W
LayerCount: 2
Fore
SplineSet
329 485 m 1,0,-1
 306 378 l 1,1,-1
 62 378 l 1,2,-1
 85 485 l 1,3,-1
 157 485 l 1,4,-1
 204 706 l 1,5,6
 197 699 197 699 184.5 690 c 128,-1,7
 172 681 172 681 158 672.5 c 128,-1,8
 144 664 144 664 129.5 658.5 c 128,-1,9
 115 653 115 653 104 653 c 1,10,-1
 127 762 l 1,11,12
 142 762 142 762 159.5 771 c 128,-1,13
 177 780 177 780 192 791 c 128,-1,14
 207 802 207 802 217.5 811 c 128,-1,15
 228 820 228 820 228 821 c 2,16,-1
 338 821 l 1,17,-1
 266 485 l 1,18,-1
 329 485 l 1,0,-1
EndSplineSet
EndChar

StartChar: ordmasculine
Encoding: 186 186 125
Width: 424
GlyphClass: 2
Flags: W
LayerCount: 2
Fore
SplineSet
218 333 m 0,0,1
 180 333 180 333 152.5 345 c 128,-1,2
 125 357 125 357 107 377.5 c 128,-1,3
 89 398 89 398 80 425.5 c 128,-1,4
 71 453 71 453 71 484 c 0,5,6
 71 527 71 527 86.5 569 c 128,-1,7
 102 611 102 611 131.5 643 c 128,-1,8
 161 675 161 675 203.5 695 c 128,-1,9
 246 715 246 715 299 715 c 0,10,11
 337 715 337 715 364.5 703 c 128,-1,12
 392 691 392 691 410 670.5 c 128,-1,13
 428 650 428 650 437 623 c 128,-1,14
 446 596 446 596 446 565 c 0,15,16
 446 521 446 521 430.5 479.5 c 128,-1,17
 415 438 415 438 385.5 405.5 c 128,-1,18
 356 373 356 373 314 353 c 128,-1,19
 272 333 272 333 218 333 c 0,0,1
242 445 m 0,20,21
 271 445 271 445 291.5 474.5 c 128,-1,22
 312 504 312 504 312 548 c 0,23,24
 312 574 312 574 302.5 588.5 c 128,-1,25
 293 603 293 603 275 603 c 0,26,27
 246 603 246 603 225.5 573.5 c 128,-1,28
 205 544 205 544 205 500 c 0,29,30
 205 474 205 474 215 459.5 c 128,-1,31
 225 445 225 445 242 445 c 0,20,21
EndSplineSet
EndChar

StartChar: guillemotright
Encoding: 187 187 126
Width: 693
GlyphClass: 2
Flags: W
LayerCount: 2
Fore
SplineSet
643 210 m 1,0,-1
 340 30 l 1,1,-1
 372 182 l 1,2,-1
 505 259 l 1,3,-1
 406 344 l 1,4,-1
 439 496 l 1,5,-1
 662 298 l 1,6,-1
 643 210 l 1,0,-1
300 210 m 1,7,-1
 -4 30 l 1,8,-1
 28 182 l 1,9,-1
 161 259 l 1,10,-1
 63 344 l 1,11,-1
 95 496 l 1,12,-1
 318 298 l 1,13,-1
 300 210 l 1,7,-1
EndSplineSet
EndChar

StartChar: onequarter
Encoding: 188 188 127
Width: 860
GlyphClass: 2
Flags: W
LayerCount: 2
Fore
SplineSet
610 84 m 1,0,-1
 407 84 l 1,1,-1
 430 191 l 1,2,-1
 720 441 l 1,3,-1
 794 441 l 1,4,-1
 741 191 l 1,5,-1
 802 191 l 1,6,-1
 779 84 l 1,7,-1
 718 84 l 1,8,-1
 700 1 l 1,9,-1
 593 1 l 1,10,-1
 610 84 l 1,0,-1
637 191 m 1,11,-1
 663 312 l 1,12,-1
 530 191 l 1,13,-1
 637 191 l 1,11,-1
318 395 m 1,14,-1
 295 288 l 1,15,-1
 51 288 l 1,16,-1
 74 395 l 1,17,-1
 146 395 l 1,18,-1
 193 616 l 1,19,20
 186 609 186 609 173.5 600 c 128,-1,21
 161 591 161 591 147 582.5 c 128,-1,22
 133 574 133 574 118.5 568.5 c 128,-1,23
 104 563 104 563 93 563 c 1,24,-1
 116 672 l 1,25,26
 131 672 131 672 148.5 681 c 128,-1,27
 166 690 166 690 181 701 c 128,-1,28
 196 712 196 712 206.5 721 c 128,-1,29
 217 730 217 730 217 731 c 2,30,-1
 327 731 l 1,31,-1
 255 395 l 1,32,-1
 318 395 l 1,14,-1
112 65 m 1,33,-1
 449 384 l 1,34,-1
 757 721 l 1,35,-1
 824 646 l 1,36,-1
 501 337 l 1,37,-1
 179 -10 l 1,38,-1
 112 65 l 1,33,-1
EndSplineSet
EndChar

StartChar: onehalf
Encoding: 189 189 128
Width: 895
GlyphClass: 2
Flags: W
LayerCount: 2
Fore
SplineSet
435 0 m 1,0,1
 444 43 444 43 455.5 74.5 c 128,-1,2
 467 106 467 106 486 130.5 c 128,-1,3
 505 155 505 155 533 174 c 128,-1,4
 561 193 561 193 602 210 c 0,5,6
 628 221 628 221 652.5 230.5 c 128,-1,7
 677 240 677 240 696 251.5 c 128,-1,8
 715 263 715 263 726.5 276.5 c 128,-1,9
 738 290 738 290 738 308 c 256,10,11
 738 326 738 326 722.5 332.5 c 128,-1,12
 707 339 707 339 681 339 c 0,13,14
 647 339 647 339 616 325.5 c 128,-1,15
 585 312 585 312 563 295 c 1,16,-1
 513 375 l 1,17,18
 540 404 540 404 594 424.5 c 128,-1,19
 648 445 648 445 719 445 c 0,20,21
 787 445 787 445 823.5 416.5 c 128,-1,22
 860 388 860 388 860 331 c 0,23,24
 860 289 860 289 845 259 c 128,-1,25
 830 229 830 229 808 209 c 128,-1,26
 786 189 786 189 760.5 177 c 128,-1,27
 735 165 735 165 714 159 c 0,28,29
 682 149 682 149 659 138 c 128,-1,30
 636 127 636 127 631 107 c 1,31,-1
 817 107 l 1,32,-1
 795 0 l 1,33,-1
 435 0 l 1,0,1
318 395 m 1,34,-1
 295 288 l 1,35,-1
 51 288 l 1,36,-1
 74 395 l 1,37,-1
 146 395 l 1,38,-1
 193 616 l 1,39,40
 186 609 186 609 173.5 600 c 128,-1,41
 161 591 161 591 147 582.5 c 128,-1,42
 133 574 133 574 118.5 568.5 c 128,-1,43
 104 563 104 563 93 563 c 1,44,-1
 116 672 l 1,45,46
 131 672 131 672 148.5 681 c 128,-1,47
 166 690 166 690 181 701 c 128,-1,48
 196 712 196 712 206.5 721 c 128,-1,49
 217 730 217 730 217 731 c 2,50,-1
 327 731 l 1,51,-1
 255 395 l 1,52,-1
 318 395 l 1,34,-1
77 65 m 1,53,-1
 414 384 l 1,54,-1
 722 721 l 1,55,-1
 789 646 l 1,56,-1
 466 337 l 1,57,-1
 144 -10 l 1,58,-1
 77 65 l 1,53,-1
EndSplineSet
EndChar

StartChar: threequarters
Encoding: 190 190 129
Width: 880
GlyphClass: 2
Flags: W
LayerCount: 2
Fore
SplineSet
194 279 m 0,0,1
 134 279 134 279 95 296 c 128,-1,2
 56 313 56 313 45 350 c 1,3,-1
 119 434 l 2,4,5
 120 432 120 432 125.5 425 c 128,-1,6
 131 418 131 418 142.5 410 c 128,-1,7
 154 402 154 402 171.5 395.5 c 128,-1,8
 189 389 189 389 215 389 c 0,9,10
 251 389 251 389 278.5 397.5 c 128,-1,11
 306 406 306 406 306 428 c 0,12,13
 306 449 306 449 271.5 457 c 128,-1,14
 237 465 237 465 174 465 c 2,15,-1
 150 465 l 1,16,-1
 171 564 l 1,17,-1
 194 564 l 2,18,19
 252 564 252 564 291 573.5 c 128,-1,20
 330 583 330 583 330 607 c 0,21,22
 330 614 330 614 324 618.5 c 128,-1,23
 318 623 318 623 309.5 625.5 c 128,-1,24
 301 628 301 628 291.5 629 c 128,-1,25
 282 630 282 630 275 630 c 0,26,27
 238 630 238 630 212 618 c 128,-1,28
 186 606 186 606 161 586 c 1,29,-1
 112 675 l 1,30,31
 144 703 144 703 194.5 717 c 128,-1,32
 245 731 245 731 295 731 c 0,33,34
 364 731 364 731 406.5 701 c 128,-1,35
 449 671 449 671 449 626 c 0,36,37
 449 584 449 584 417 556.5 c 128,-1,38
 385 529 385 529 334 521 c 1,39,40
 374 515 374 515 394.5 488.5 c 128,-1,41
 415 462 415 462 415 427 c 0,42,43
 415 387 415 387 395 359 c 128,-1,44
 375 331 375 331 343.5 313 c 128,-1,45
 312 295 312 295 272.5 287 c 128,-1,46
 233 279 233 279 194 279 c 0,0,1
626 84 m 1,47,-1
 423 84 l 1,48,-1
 446 191 l 1,49,-1
 736 441 l 1,50,-1
 810 441 l 1,51,-1
 757 191 l 1,52,-1
 818 191 l 1,53,-1
 795 84 l 1,54,-1
 734 84 l 1,55,-1
 716 1 l 1,56,-1
 609 1 l 1,57,-1
 626 84 l 1,47,-1
653 191 m 1,58,-1
 679 312 l 1,59,-1
 546 191 l 1,60,-1
 653 191 l 1,58,-1
151 65 m 1,61,-1
 488 384 l 1,62,-1
 796 721 l 1,63,-1
 863 646 l 1,64,-1
 540 337 l 1,65,-1
 218 -10 l 1,66,-1
 151 65 l 1,61,-1
EndSplineSet
EndChar

StartChar: questiondown
Encoding: 191 191 130
Width: 476
GlyphClass: 2
Flags: W
LayerCount: 2
Fore
SplineSet
378 247 m 1,0,1
 373 226 373 226 367 205.5 c 128,-1,2
 361 185 361 185 349.5 166.5 c 128,-1,3
 338 148 338 148 319.5 131.5 c 128,-1,4
 301 115 301 115 272 100 c 0,5,6
 233 81 233 81 206.5 66 c 128,-1,7
 180 51 180 51 163.5 37 c 128,-1,8
 147 23 147 23 139.5 9.5 c 128,-1,9
 132 -4 132 -4 132 -19 c 0,10,11
 132 -38 132 -38 144 -49 c 128,-1,12
 156 -60 156 -60 174 -60 c 0,13,14
 190 -60 190 -60 203 -53 c 128,-1,15
 216 -46 216 -46 226 -36 c 128,-1,16
 236 -26 236 -26 244 -15.5 c 128,-1,17
 252 -5 252 -5 258 2 c 1,18,-1
 361 -84 l 1,19,20
 324 -145 324 -145 263.5 -179 c 128,-1,21
 203 -213 203 -213 134 -213 c 0,22,23
 102 -213 102 -213 71 -204.5 c 128,-1,24
 40 -196 40 -196 16 -176.5 c 128,-1,25
 -8 -157 -8 -157 -23 -127 c 128,-1,26
 -38 -97 -38 -97 -38 -53 c 0,27,28
 -38 -13 -38 -13 -29.5 18 c 128,-1,29
 -21 49 -21 49 -6 73 c 128,-1,30
 9 97 9 97 29.5 115 c 128,-1,31
 50 133 50 133 74 148 c 256,32,33
 98 163 98 163 123 174 c 128,-1,34
 148 185 148 185 169 196 c 128,-1,35
 190 207 190 207 205 218.5 c 128,-1,36
 220 230 220 230 223 247 c 1,37,-1
 378 247 l 1,0,1
430 506 m 1,38,-1
 395 342 l 1,39,-1
 240 342 l 1,40,-1
 275 506 l 1,41,-1
 430 506 l 1,38,-1
EndSplineSet
EndChar

StartChar: Agrave
Encoding: 192 192 131
Width: 636
GlyphClass: 2
Flags: W
LayerCount: 2
Fore
SplineSet
320 710 m 1,0,-1
 499 710 l 1,1,-1
 578 0 l 1,2,-1
 380 0 l 1,3,-1
 373 139 l 1,4,-1
 203 139 l 1,5,-1
 138 0 l 1,6,-1
 -61 0 l 1,7,-1
 320 710 l 1,0,-1
370 269 m 1,8,-1
 362 489 l 1,9,-1
 259 269 l 1,10,-1
 370 269 l 1,8,-1
303 917 m 1,11,-1
 471 917 l 1,12,-1
 488 775 l 1,13,-1
 356 761 l 1,14,-1
 303 917 l 1,11,-1
EndSplineSet
EndChar

StartChar: Aacute
Encoding: 193 193 132
Width: 636
GlyphClass: 2
Flags: W
LayerCount: 2
Fore
SplineSet
320 710 m 1,0,-1
 499 710 l 1,1,-1
 578 0 l 1,2,-1
 380 0 l 1,3,-1
 373 139 l 1,4,-1
 203 139 l 1,5,-1
 138 0 l 1,6,-1
 -61 0 l 1,7,-1
 320 710 l 1,0,-1
370 269 m 1,8,-1
 362 489 l 1,9,-1
 259 269 l 1,10,-1
 370 269 l 1,8,-1
460 762 m 1,11,-1
 332 774 l 1,12,-1
 409 916 l 1,13,-1
 577 916 l 1,14,-1
 460 762 l 1,11,-1
EndSplineSet
EndChar

StartChar: Acircumflex
Encoding: 194 194 133
Width: 636
GlyphClass: 2
Flags: W
LayerCount: 2
Fore
SplineSet
320 710 m 1,0,-1
 499 710 l 1,1,-1
 578 0 l 1,2,-1
 380 0 l 1,3,-1
 373 139 l 1,4,-1
 203 139 l 1,5,-1
 138 0 l 1,6,-1
 -61 0 l 1,7,-1
 320 710 l 1,0,-1
370 269 m 1,8,-1
 362 489 l 1,9,-1
 259 269 l 1,10,-1
 370 269 l 1,8,-1
253 801 m 1,11,-1
 386 916 l 1,12,-1
 522 916 l 1,13,-1
 606 801 l 1,14,-1
 501 759 l 1,15,-1
 434 822 l 1,16,-1
 340 759 l 1,17,-1
 253 801 l 1,11,-1
EndSplineSet
EndChar

StartChar: Atilde
Encoding: 195 195 134
Width: 636
GlyphClass: 2
Flags: W
LayerCount: 2
Fore
SplineSet
320 710 m 1,0,-1
 499 710 l 1,1,-1
 578 0 l 1,2,-1
 380 0 l 1,3,-1
 373 139 l 1,4,-1
 203 139 l 1,5,-1
 138 0 l 1,6,-1
 -61 0 l 1,7,-1
 320 710 l 1,0,-1
370 269 m 1,8,-1
 362 489 l 1,9,-1
 259 269 l 1,10,-1
 370 269 l 1,8,-1
481 758 m 0,11,12
 459 758 459 758 444 765.5 c 128,-1,13
 429 773 429 773 416.5 782 c 128,-1,14
 404 791 404 791 391.5 798.5 c 128,-1,15
 379 806 379 806 363 806 c 256,16,17
 347 806 347 806 336.5 799 c 128,-1,18
 326 792 326 792 320 783 c 128,-1,19
 314 774 314 774 312 766.5 c 128,-1,20
 310 759 310 759 310 758 c 2,21,-1
 209 758 l 1,22,23
 212 771 212 771 225 797.5 c 128,-1,24
 238 824 238 824 260 850 c 128,-1,25
 282 876 282 876 312 896 c 128,-1,26
 342 916 342 916 378 916 c 0,27,28
 402 916 402 916 417 908 c 128,-1,29
 432 900 432 900 444.5 890.5 c 128,-1,30
 457 881 457 881 468.5 873 c 128,-1,31
 480 865 480 865 496 865 c 0,32,33
 511 865 511 865 522 872.5 c 128,-1,34
 533 880 533 880 540 889.5 c 128,-1,35
 547 899 547 899 550.5 907 c 128,-1,36
 554 915 554 915 554 916 c 2,37,-1
 654 916 l 1,38,39
 652 907 652 907 638.5 881.5 c 128,-1,40
 625 856 625 856 602.5 828.5 c 128,-1,41
 580 801 580 801 549 779.5 c 128,-1,42
 518 758 518 758 481 758 c 0,11,12
EndSplineSet
EndChar

StartChar: Adieresis
Encoding: 196 196 135
Width: 636
GlyphClass: 2
Flags: W
LayerCount: 2
Fore
SplineSet
320 710 m 1,0,-1
 499 710 l 1,1,-1
 578 0 l 1,2,-1
 380 0 l 1,3,-1
 373 139 l 1,4,-1
 203 139 l 1,5,-1
 138 0 l 1,6,-1
 -61 0 l 1,7,-1
 320 710 l 1,0,-1
370 269 m 1,8,-1
 362 489 l 1,9,-1
 259 269 l 1,10,-1
 370 269 l 1,8,-1
227 767 m 1,11,-1
 257 907 l 1,12,-1
 413 907 l 1,13,-1
 383 767 l 1,14,-1
 227 767 l 1,11,-1
452 767 m 1,15,-1
 482 907 l 1,16,-1
 637 907 l 1,17,-1
 608 767 l 1,18,-1
 452 767 l 1,15,-1
EndSplineSet
EndChar

StartChar: Aring
Encoding: 197 197 136
Width: 636
GlyphClass: 2
Flags: W
LayerCount: 2
Fore
SplineSet
320 710 m 1,0,-1
 499 710 l 1,1,-1
 578 0 l 1,2,-1
 380 0 l 1,3,-1
 373 139 l 1,4,-1
 203 139 l 1,5,-1
 138 0 l 1,6,-1
 -61 0 l 1,7,-1
 320 710 l 1,0,-1
370 269 m 1,8,-1
 362 489 l 1,9,-1
 259 269 l 1,10,-1
 370 269 l 1,8,-1
310 812 m 0,11,12
 310 863 310 863 347.5 889.5 c 128,-1,13
 385 916 385 916 446 916 c 0,14,15
 492 916 492 916 518 898.5 c 128,-1,16
 544 881 544 881 544 846 c 0,17,18
 544 795 544 795 506.5 768.5 c 128,-1,19
 469 742 469 742 409 742 c 0,20,21
 363 742 363 742 336.5 759.5 c 128,-1,22
 310 777 310 777 310 812 c 0,11,12
434 862 m 0,23,24
 415 862 415 862 402 851.5 c 128,-1,25
 389 841 389 841 389 824 c 0,26,27
 389 796 389 796 420 796 c 0,28,29
 438 796 438 796 452 807 c 128,-1,30
 466 818 466 818 466 835 c 0,31,32
 466 847 466 847 457 854.5 c 128,-1,33
 448 862 448 862 434 862 c 0,23,24
EndSplineSet
EndChar

StartChar: AE
Encoding: 198 198 137
Width: 935
GlyphClass: 2
Flags: W
LayerCount: 2
Fore
SplineSet
478 710 m 1,0,-1
 983 710 l 1,1,-1
 946 540 l 1,2,-1
 687 540 l 1,3,-1
 667 446 l 1,4,-1
 875 446 l 1,5,-1
 839 276 l 1,6,-1
 631 276 l 1,7,-1
 609 170 l 1,8,-1
 876 170 l 1,9,-1
 840 0 l 1,10,-1
 378 0 l 1,11,-1
 408 139 l 1,12,-1
 221 139 l 1,13,-1
 126 0 l 1,14,-1
 -80 0 l 1,15,-1
 478 710 l 1,0,-1
429 309 m 1,16,-1
 468 495 l 1,17,-1
 339 309 l 1,18,-1
 429 309 l 1,16,-1
EndSplineSet
EndChar

StartChar: Ccedilla
Encoding: 199 199 138
Width: 664
GlyphClass: 2
Flags: W
LayerCount: 2
Fore
SplineSet
196 -128 m 1,0,1
 204 -135 204 -135 228 -141.5 c 128,-1,2
 252 -148 252 -148 278 -148 c 0,3,4
 302 -148 302 -148 320 -140 c 128,-1,5
 338 -132 338 -132 338 -112 c 0,6,7
 338 -98 338 -98 325.5 -92.5 c 128,-1,8
 313 -87 313 -87 291 -87 c 0,9,10
 271 -87 271 -87 248 -90.5 c 128,-1,11
 225 -94 225 -94 214 -96 c 1,12,-1
 276 -5 l 1,13,14
 217 -1 217 -1 170.5 26 c 128,-1,15
 124 53 124 53 92.5 95 c 128,-1,16
 61 137 61 137 44.5 189.5 c 128,-1,17
 28 242 28 242 28 298 c 0,18,19
 28 372 28 372 60.5 446 c 128,-1,20
 93 520 93 520 150.5 579.5 c 128,-1,21
 208 639 208 639 286.5 676.5 c 128,-1,22
 365 714 365 714 458 714 c 0,23,24
 556 714 556 714 620 671.5 c 128,-1,25
 684 629 684 629 704 559 c 1,26,-1
 533 453 l 1,27,28
 529 479 529 479 517.5 496 c 128,-1,29
 506 513 506 513 489.5 523 c 128,-1,30
 473 533 473 533 454 537 c 128,-1,31
 435 541 435 541 417 541 c 0,32,33
 371 541 371 541 335.5 519 c 128,-1,34
 300 497 300 497 276 463 c 128,-1,35
 252 429 252 429 239.5 388.5 c 128,-1,36
 227 348 227 348 227 311 c 0,37,38
 227 282 227 282 234 255.5 c 128,-1,39
 241 229 241 229 255 209.5 c 128,-1,40
 269 190 269 190 290 178.5 c 128,-1,41
 311 167 311 167 340 167 c 0,42,43
 358 167 358 167 378.5 171.5 c 128,-1,44
 399 176 399 176 418.5 186.5 c 128,-1,45
 438 197 438 197 455.5 213.5 c 128,-1,46
 473 230 473 230 486 254 c 1,47,-1
 625 159 l 1,48,49
 605 125 605 125 574.5 97.5 c 128,-1,50
 544 70 544 70 507.5 50 c 128,-1,51
 471 30 471 30 430.5 16.5 c 128,-1,52
 390 3 390 3 351 -2 c 1,53,-1
 323 -34 l 2,54,55
 328 -33 328 -33 334.5 -32.5 c 128,-1,56
 341 -32 341 -32 348 -32 c 0,57,58
 378 -32 378 -32 401 -46.5 c 128,-1,59
 424 -61 424 -61 424 -95 c 0,60,61
 424 -118 424 -118 413.5 -139 c 128,-1,62
 403 -160 403 -160 382 -176.5 c 128,-1,63
 361 -193 361 -193 328.5 -203 c 128,-1,64
 296 -213 296 -213 252 -213 c 0,65,66
 217 -213 217 -213 191 -206.5 c 128,-1,67
 165 -200 165 -200 148 -192 c 1,68,-1
 196 -128 l 1,0,1
EndSplineSet
EndChar

StartChar: Egrave
Encoding: 200 200 139
Width: 575
GlyphClass: 2
Flags: W
LayerCount: 2
Fore
SplineSet
148 710 m 1,0,-1
 622 710 l 1,1,-1
 586 540 l 1,2,-1
 307 540 l 1,3,-1
 286 440 l 1,4,-1
 524 440 l 1,5,-1
 490 282 l 1,6,-1
 252 282 l 1,7,-1
 228 170 l 1,8,-1
 516 170 l 1,9,-1
 480 0 l 1,10,-1
 -3 0 l 1,11,-1
 148 710 l 1,0,-1
293 917 m 1,12,-1
 461 917 l 1,13,-1
 478 775 l 1,14,-1
 346 761 l 1,15,-1
 293 917 l 1,12,-1
EndSplineSet
EndChar

StartChar: Eacute
Encoding: 201 201 140
Width: 575
GlyphClass: 2
Flags: W
LayerCount: 2
Fore
SplineSet
431 762 m 1,0,-1
 303 774 l 1,1,-1
 380 916 l 1,2,-1
 548 916 l 1,3,-1
 431 762 l 1,0,-1
148 710 m 1,4,-1
 622 710 l 1,5,-1
 586 540 l 1,6,-1
 307 540 l 1,7,-1
 286 440 l 1,8,-1
 524 440 l 1,9,-1
 490 282 l 1,10,-1
 252 282 l 1,11,-1
 228 170 l 1,12,-1
 516 170 l 1,13,-1
 480 0 l 1,14,-1
 -3 0 l 1,15,-1
 148 710 l 1,4,-1
EndSplineSet
EndChar

StartChar: Ecircumflex
Encoding: 202 202 141
Width: 575
GlyphClass: 2
Flags: W
LayerCount: 2
Fore
SplineSet
216 801 m 1,0,-1
 349 916 l 1,1,-1
 485 916 l 1,2,-1
 569 801 l 1,3,-1
 464 759 l 1,4,-1
 397 822 l 1,5,-1
 303 759 l 1,6,-1
 216 801 l 1,0,-1
148 710 m 1,7,-1
 622 710 l 1,8,-1
 586 540 l 1,9,-1
 307 540 l 1,10,-1
 286 440 l 1,11,-1
 524 440 l 1,12,-1
 490 282 l 1,13,-1
 252 282 l 1,14,-1
 228 170 l 1,15,-1
 516 170 l 1,16,-1
 480 0 l 1,17,-1
 -3 0 l 1,18,-1
 148 710 l 1,7,-1
EndSplineSet
EndChar

StartChar: Edieresis
Encoding: 203 203 142
Width: 575
GlyphClass: 2
Flags: W
LayerCount: 2
Fore
SplineSet
203 767 m 1,0,-1
 233 907 l 1,1,-1
 389 907 l 1,2,-1
 359 767 l 1,3,-1
 203 767 l 1,0,-1
428 767 m 1,4,-1
 458 907 l 1,5,-1
 613 907 l 1,6,-1
 584 767 l 1,7,-1
 428 767 l 1,4,-1
148 710 m 1,8,-1
 622 710 l 1,9,-1
 586 540 l 1,10,-1
 307 540 l 1,11,-1
 286 440 l 1,12,-1
 524 440 l 1,13,-1
 490 282 l 1,14,-1
 252 282 l 1,15,-1
 228 170 l 1,16,-1
 516 170 l 1,17,-1
 480 0 l 1,18,-1
 -3 0 l 1,19,-1
 148 710 l 1,8,-1
EndSplineSet
EndChar

StartChar: Igrave
Encoding: 204 204 143
Width: 317
GlyphClass: 2
Flags: W
LayerCount: 2
Fore
SplineSet
148 710 m 1,0,-1
 343 710 l 1,1,-1
 192 0 l 1,2,-1
 -3 0 l 1,3,-1
 148 710 l 1,0,-1
155 917 m 1,4,-1
 323 917 l 1,5,-1
 340 775 l 1,6,-1
 208 761 l 1,7,-1
 155 917 l 1,4,-1
EndSplineSet
EndChar

StartChar: Iacute
Encoding: 205 205 144
Width: 317
GlyphClass: 2
Flags: W
LayerCount: 2
Fore
SplineSet
148 710 m 1,0,-1
 343 710 l 1,1,-1
 192 0 l 1,2,-1
 -3 0 l 1,3,-1
 148 710 l 1,0,-1
291 762 m 1,4,-1
 163 774 l 1,5,-1
 240 916 l 1,6,-1
 408 916 l 1,7,-1
 291 762 l 1,4,-1
EndSplineSet
EndChar

StartChar: Icircumflex
Encoding: 206 206 145
Width: 317
GlyphClass: 2
Flags: W
LayerCount: 2
Fore
SplineSet
148 710 m 1,0,-1
 343 710 l 1,1,-1
 192 0 l 1,2,-1
 -3 0 l 1,3,-1
 148 710 l 1,0,-1
92 801 m 1,4,-1
 225 916 l 1,5,-1
 361 916 l 1,6,-1
 445 801 l 1,7,-1
 340 759 l 1,8,-1
 273 822 l 1,9,-1
 179 759 l 1,10,-1
 92 801 l 1,4,-1
EndSplineSet
EndChar

StartChar: Idieresis
Encoding: 207 207 146
Width: 317
GlyphClass: 2
Flags: W
LayerCount: 2
Fore
SplineSet
148 710 m 1,0,-1
 343 710 l 1,1,-1
 192 0 l 1,2,-1
 -3 0 l 1,3,-1
 148 710 l 1,0,-1
68 767 m 1,4,-1
 98 907 l 1,5,-1
 254 907 l 1,6,-1
 224 767 l 1,7,-1
 68 767 l 1,4,-1
293 767 m 1,8,-1
 323 907 l 1,9,-1
 478 907 l 1,10,-1
 449 767 l 1,11,-1
 293 767 l 1,8,-1
EndSplineSet
EndChar

StartChar: Eth
Encoding: 208 208 147
Width: 696
GlyphClass: 2
Flags: W
LayerCount: 2
Fore
SplineSet
57 427 m 1,0,-1
 91 427 l 1,1,-1
 151 710 l 1,2,-1
 413 710 l 2,3,4
 483 710 483 710 535 688.5 c 128,-1,5
 587 667 587 667 621.5 629.5 c 128,-1,6
 656 592 656 592 672.5 541.5 c 128,-1,7
 689 491 689 491 689 433 c 0,8,9
 689 339 689 339 656.5 259.5 c 128,-1,10
 624 180 624 180 566.5 122.5 c 128,-1,11
 509 65 509 65 431 32.5 c 128,-1,12
 353 0 353 0 262 0 c 2,13,-1
 0 0 l 1,14,-1
 61 287 l 1,15,-1
 28 287 l 1,16,-1
 57 427 l 1,0,-1
298 170 m 2,17,18
 340 170 340 170 375 189 c 128,-1,19
 410 208 410 208 435 240.5 c 128,-1,20
 460 273 460 273 474 315.5 c 128,-1,21
 488 358 488 358 488 405 c 0,22,23
 488 466 488 466 459.5 503 c 128,-1,24
 431 540 431 540 377 540 c 2,25,-1
 310 540 l 1,26,-1
 286 427 l 1,27,-1
 390 427 l 1,28,-1
 360 287 l 1,29,-1
 256 287 l 1,30,-1
 231 170 l 1,31,-1
 298 170 l 2,17,18
EndSplineSet
EndChar

StartChar: Ntilde
Encoding: 209 209 148
Width: 725
GlyphClass: 2
Flags: W
LayerCount: 2
Fore
SplineSet
148 710 m 1,0,-1
 300 710 l 1,1,-1
 480 349 l 1,2,-1
 556 710 l 1,3,-1
 751 710 l 1,4,-1
 600 0 l 1,5,-1
 446 0 l 1,6,-1
 266 349 l 1,7,-1
 192 0 l 1,8,-1
 -3 0 l 1,9,-1
 148 710 l 1,0,-1
523 758 m 0,10,11
 501 758 501 758 486 765.5 c 128,-1,12
 471 773 471 773 458.5 782 c 128,-1,13
 446 791 446 791 433.5 798.5 c 128,-1,14
 421 806 421 806 405 806 c 256,15,16
 389 806 389 806 378.5 799 c 128,-1,17
 368 792 368 792 362 783 c 128,-1,18
 356 774 356 774 354 766.5 c 128,-1,19
 352 759 352 759 352 758 c 2,20,-1
 251 758 l 1,21,22
 254 771 254 771 267 797.5 c 128,-1,23
 280 824 280 824 302 850 c 128,-1,24
 324 876 324 876 354 896 c 128,-1,25
 384 916 384 916 420 916 c 0,26,27
 444 916 444 916 459 908 c 128,-1,28
 474 900 474 900 486.5 890.5 c 128,-1,29
 499 881 499 881 510.5 873 c 128,-1,30
 522 865 522 865 538 865 c 0,31,32
 553 865 553 865 564 872.5 c 128,-1,33
 575 880 575 880 582 889.5 c 128,-1,34
 589 899 589 899 592.5 907 c 128,-1,35
 596 915 596 915 596 916 c 2,36,-1
 696 916 l 1,37,38
 694 907 694 907 680.5 881.5 c 128,-1,39
 667 856 667 856 644.5 828.5 c 128,-1,40
 622 801 622 801 591 779.5 c 128,-1,41
 560 758 560 758 523 758 c 0,10,11
EndSplineSet
EndChar

StartChar: Ograve
Encoding: 210 210 149
Width: 738
GlyphClass: 2
Flags: W
LayerCount: 2
Fore
SplineSet
303 -6 m 0,0,1
 237 -6 237 -6 185.5 19 c 128,-1,2
 134 44 134 44 99 85 c 128,-1,3
 64 126 64 126 46 180 c 128,-1,4
 28 234 28 234 28 292 c 0,5,6
 28 373 28 373 63 449 c 128,-1,7
 98 525 98 525 157.5 584 c 128,-1,8
 217 643 217 643 295.5 678.5 c 128,-1,9
 374 714 374 714 460 714 c 0,10,11
 526 714 526 714 577 689 c 128,-1,12
 628 664 628 664 662.5 622.5 c 128,-1,13
 697 581 697 581 715 527.5 c 128,-1,14
 733 474 733 474 733 416 c 0,15,16
 733 336 733 336 698 260 c 128,-1,17
 663 184 663 184 604 125 c 128,-1,18
 545 66 545 66 467 30 c 128,-1,19
 389 -6 389 -6 303 -6 c 0,0,1
341 167 m 0,20,21
 389 167 389 167 425 189.5 c 128,-1,22
 461 212 461 212 485.5 246.5 c 128,-1,23
 510 281 510 281 522 322.5 c 128,-1,24
 534 364 534 364 534 403 c 0,25,26
 534 431 534 431 527.5 456 c 128,-1,27
 521 481 521 481 507.5 500 c 128,-1,28
 494 519 494 519 472 530 c 128,-1,29
 450 541 450 541 420 541 c 0,30,31
 373 541 373 541 337 519 c 128,-1,32
 301 497 301 497 277 463 c 128,-1,33
 253 429 253 429 240.5 387.5 c 128,-1,34
 228 346 228 346 228 307 c 0,35,36
 228 279 228 279 234.5 254 c 128,-1,37
 241 229 241 229 254.5 209.5 c 128,-1,38
 268 190 268 190 289.5 178.5 c 128,-1,39
 311 167 311 167 341 167 c 0,20,21
360 917 m 1,40,-1
 528 917 l 1,41,-1
 545 775 l 1,42,-1
 413 761 l 1,43,-1
 360 917 l 1,40,-1
EndSplineSet
EndChar

StartChar: Oacute
Encoding: 211 211 150
Width: 738
GlyphClass: 2
Flags: W
LayerCount: 2
Fore
SplineSet
519 762 m 1,0,-1
 391 774 l 1,1,-1
 468 916 l 1,2,-1
 636 916 l 1,3,-1
 519 762 l 1,0,-1
303 -6 m 0,4,5
 237 -6 237 -6 185.5 19 c 128,-1,6
 134 44 134 44 99 85 c 128,-1,7
 64 126 64 126 46 180 c 128,-1,8
 28 234 28 234 28 292 c 0,9,10
 28 373 28 373 63 449 c 128,-1,11
 98 525 98 525 157.5 584 c 128,-1,12
 217 643 217 643 295.5 678.5 c 128,-1,13
 374 714 374 714 460 714 c 0,14,15
 526 714 526 714 577 689 c 128,-1,16
 628 664 628 664 662.5 622.5 c 128,-1,17
 697 581 697 581 715 527.5 c 128,-1,18
 733 474 733 474 733 416 c 0,19,20
 733 336 733 336 698 260 c 128,-1,21
 663 184 663 184 604 125 c 128,-1,22
 545 66 545 66 467 30 c 128,-1,23
 389 -6 389 -6 303 -6 c 0,4,5
341 167 m 0,24,25
 389 167 389 167 425 189.5 c 128,-1,26
 461 212 461 212 485.5 246.5 c 128,-1,27
 510 281 510 281 522 322.5 c 128,-1,28
 534 364 534 364 534 403 c 0,29,30
 534 431 534 431 527.5 456 c 128,-1,31
 521 481 521 481 507.5 500 c 128,-1,32
 494 519 494 519 472 530 c 128,-1,33
 450 541 450 541 420 541 c 0,34,35
 373 541 373 541 337 519 c 128,-1,36
 301 497 301 497 277 463 c 128,-1,37
 253 429 253 429 240.5 387.5 c 128,-1,38
 228 346 228 346 228 307 c 0,39,40
 228 279 228 279 234.5 254 c 128,-1,41
 241 229 241 229 254.5 209.5 c 128,-1,42
 268 190 268 190 289.5 178.5 c 128,-1,43
 311 167 311 167 341 167 c 0,24,25
EndSplineSet
EndChar

StartChar: Ocircumflex
Encoding: 212 212 151
Width: 738
GlyphClass: 2
Flags: W
LayerCount: 2
Fore
SplineSet
300 801 m 1,0,-1
 433 916 l 1,1,-1
 569 916 l 1,2,-1
 653 801 l 1,3,-1
 548 759 l 1,4,-1
 481 822 l 1,5,-1
 387 759 l 1,6,-1
 300 801 l 1,0,-1
303 -6 m 0,7,8
 237 -6 237 -6 185.5 19 c 128,-1,9
 134 44 134 44 99 85 c 128,-1,10
 64 126 64 126 46 180 c 128,-1,11
 28 234 28 234 28 292 c 0,12,13
 28 373 28 373 63 449 c 128,-1,14
 98 525 98 525 157.5 584 c 128,-1,15
 217 643 217 643 295.5 678.5 c 128,-1,16
 374 714 374 714 460 714 c 0,17,18
 526 714 526 714 577 689 c 128,-1,19
 628 664 628 664 662.5 622.5 c 128,-1,20
 697 581 697 581 715 527.5 c 128,-1,21
 733 474 733 474 733 416 c 0,22,23
 733 336 733 336 698 260 c 128,-1,24
 663 184 663 184 604 125 c 128,-1,25
 545 66 545 66 467 30 c 128,-1,26
 389 -6 389 -6 303 -6 c 0,7,8
341 167 m 0,27,28
 389 167 389 167 425 189.5 c 128,-1,29
 461 212 461 212 485.5 246.5 c 128,-1,30
 510 281 510 281 522 322.5 c 128,-1,31
 534 364 534 364 534 403 c 0,32,33
 534 431 534 431 527.5 456 c 128,-1,34
 521 481 521 481 507.5 500 c 128,-1,35
 494 519 494 519 472 530 c 128,-1,36
 450 541 450 541 420 541 c 0,37,38
 373 541 373 541 337 519 c 128,-1,39
 301 497 301 497 277 463 c 128,-1,40
 253 429 253 429 240.5 387.5 c 128,-1,41
 228 346 228 346 228 307 c 0,42,43
 228 279 228 279 234.5 254 c 128,-1,44
 241 229 241 229 254.5 209.5 c 128,-1,45
 268 190 268 190 289.5 178.5 c 128,-1,46
 311 167 311 167 341 167 c 0,27,28
EndSplineSet
EndChar

StartChar: Otilde
Encoding: 213 213 152
Width: 738
GlyphClass: 2
Flags: W
LayerCount: 2
Fore
SplineSet
303 -6 m 0,0,1
 237 -6 237 -6 185.5 19 c 128,-1,2
 134 44 134 44 99 85 c 128,-1,3
 64 126 64 126 46 180 c 128,-1,4
 28 234 28 234 28 292 c 0,5,6
 28 373 28 373 63 449 c 128,-1,7
 98 525 98 525 157.5 584 c 128,-1,8
 217 643 217 643 295.5 678.5 c 128,-1,9
 374 714 374 714 460 714 c 0,10,11
 526 714 526 714 577 689 c 128,-1,12
 628 664 628 664 662.5 622.5 c 128,-1,13
 697 581 697 581 715 527.5 c 128,-1,14
 733 474 733 474 733 416 c 0,15,16
 733 336 733 336 698 260 c 128,-1,17
 663 184 663 184 604 125 c 128,-1,18
 545 66 545 66 467 30 c 128,-1,19
 389 -6 389 -6 303 -6 c 0,0,1
341 167 m 0,20,21
 389 167 389 167 425 189.5 c 128,-1,22
 461 212 461 212 485.5 246.5 c 128,-1,23
 510 281 510 281 522 322.5 c 128,-1,24
 534 364 534 364 534 403 c 0,25,26
 534 431 534 431 527.5 456 c 128,-1,27
 521 481 521 481 507.5 500 c 128,-1,28
 494 519 494 519 472 530 c 128,-1,29
 450 541 450 541 420 541 c 0,30,31
 373 541 373 541 337 519 c 128,-1,32
 301 497 301 497 277 463 c 128,-1,33
 253 429 253 429 240.5 387.5 c 128,-1,34
 228 346 228 346 228 307 c 0,35,36
 228 279 228 279 234.5 254 c 128,-1,37
 241 229 241 229 254.5 209.5 c 128,-1,38
 268 190 268 190 289.5 178.5 c 128,-1,39
 311 167 311 167 341 167 c 0,20,21
536 758 m 0,40,41
 514 758 514 758 499 765.5 c 128,-1,42
 484 773 484 773 471.5 782 c 128,-1,43
 459 791 459 791 446.5 798.5 c 128,-1,44
 434 806 434 806 418 806 c 256,45,46
 402 806 402 806 391.5 799 c 128,-1,47
 381 792 381 792 375 783 c 128,-1,48
 369 774 369 774 367 766.5 c 128,-1,49
 365 759 365 759 365 758 c 2,50,-1
 264 758 l 1,51,52
 267 771 267 771 280 797.5 c 128,-1,53
 293 824 293 824 315 850 c 128,-1,54
 337 876 337 876 367 896 c 128,-1,55
 397 916 397 916 433 916 c 0,56,57
 457 916 457 916 472 908 c 128,-1,58
 487 900 487 900 499.5 890.5 c 128,-1,59
 512 881 512 881 523.5 873 c 128,-1,60
 535 865 535 865 551 865 c 0,61,62
 566 865 566 865 577 872.5 c 128,-1,63
 588 880 588 880 595 889.5 c 128,-1,64
 602 899 602 899 605.5 907 c 128,-1,65
 609 915 609 915 609 916 c 2,66,-1
 709 916 l 1,67,68
 707 907 707 907 693.5 881.5 c 128,-1,69
 680 856 680 856 657.5 828.5 c 128,-1,70
 635 801 635 801 604 779.5 c 128,-1,71
 573 758 573 758 536 758 c 0,40,41
EndSplineSet
EndChar

StartChar: Odieresis
Encoding: 214 214 153
Width: 738
GlyphClass: 2
Flags: W
LayerCount: 2
Fore
SplineSet
278 767 m 1,0,-1
 308 907 l 1,1,-1
 464 907 l 1,2,-1
 434 767 l 1,3,-1
 278 767 l 1,0,-1
503 767 m 1,4,-1
 533 907 l 1,5,-1
 688 907 l 1,6,-1
 659 767 l 1,7,-1
 503 767 l 1,4,-1
303 -6 m 0,8,9
 237 -6 237 -6 185.5 19 c 128,-1,10
 134 44 134 44 99 85 c 128,-1,11
 64 126 64 126 46 180 c 128,-1,12
 28 234 28 234 28 292 c 0,13,14
 28 373 28 373 63 449 c 128,-1,15
 98 525 98 525 157.5 584 c 128,-1,16
 217 643 217 643 295.5 678.5 c 128,-1,17
 374 714 374 714 460 714 c 0,18,19
 526 714 526 714 577 689 c 128,-1,20
 628 664 628 664 662.5 622.5 c 128,-1,21
 697 581 697 581 715 527.5 c 128,-1,22
 733 474 733 474 733 416 c 0,23,24
 733 336 733 336 698 260 c 128,-1,25
 663 184 663 184 604 125 c 128,-1,26
 545 66 545 66 467 30 c 128,-1,27
 389 -6 389 -6 303 -6 c 0,8,9
341 167 m 0,28,29
 389 167 389 167 425 189.5 c 128,-1,30
 461 212 461 212 485.5 246.5 c 128,-1,31
 510 281 510 281 522 322.5 c 128,-1,32
 534 364 534 364 534 403 c 0,33,34
 534 431 534 431 527.5 456 c 128,-1,35
 521 481 521 481 507.5 500 c 128,-1,36
 494 519 494 519 472 530 c 128,-1,37
 450 541 450 541 420 541 c 0,38,39
 373 541 373 541 337 519 c 128,-1,40
 301 497 301 497 277 463 c 128,-1,41
 253 429 253 429 240.5 387.5 c 128,-1,42
 228 346 228 346 228 307 c 0,43,44
 228 279 228 279 234.5 254 c 128,-1,45
 241 229 241 229 254.5 209.5 c 128,-1,46
 268 190 268 190 289.5 178.5 c 128,-1,47
 311 167 311 167 341 167 c 0,28,29
EndSplineSet
EndChar

StartChar: multiply
Encoding: 215 215 154
Width: 506
GlyphClass: 2
Flags: W
LayerCount: 2
Fore
SplineSet
450 191 m 1,0,-1
 331 73 l 1,1,-1
 244 160 l 1,2,-1
 157 73 l 1,3,-1
 40 191 l 1,4,-1
 126 277 l 1,5,-1
 46 358 l 1,6,-1
 165 476 l 1,7,-1
 245 396 l 1,8,-1
 325 476 l 1,9,-1
 442 358 l 1,10,-1
 362 278 l 1,11,-1
 450 191 l 1,0,-1
EndSplineSet
EndChar

StartChar: Oslash
Encoding: 216 216 155
Width: 738
GlyphClass: 2
Flags: W
LayerCount: 2
Fore
SplineSet
807 710 m 1,0,-1
 691 582 l 1,1,2
 711 545 711 545 722 503 c 128,-1,3
 733 461 733 461 733 416 c 0,4,5
 733 336 733 336 698 260 c 128,-1,6
 663 184 663 184 604 125 c 128,-1,7
 545 66 545 66 467 30 c 128,-1,8
 389 -6 389 -6 303 -6 c 0,9,10
 235 -6 235 -6 181 20 c 1,11,-1
 163 0 l 1,12,-1
 -46 0 l 1,13,-1
 69 127 l 1,14,15
 28 201 28 201 28 292 c 0,16,17
 28 373 28 373 63 449 c 128,-1,18
 98 525 98 525 157.5 584 c 128,-1,19
 217 643 217 643 295.5 678.5 c 128,-1,20
 374 714 374 714 460 714 c 0,21,22
 493 714 493 714 522.5 707 c 128,-1,23
 552 700 552 700 578 688 c 1,24,-1
 598 710 l 1,25,-1
 807 710 l 1,0,-1
341 167 m 0,26,27
 389 167 389 167 425 189.5 c 128,-1,28
 461 212 461 212 485.5 246.5 c 128,-1,29
 510 281 510 281 522 322.5 c 128,-1,30
 534 364 534 364 534 403 c 2,31,-1
 534 409 l 1,32,-1
 316 169 l 1,33,34
 322 168 322 168 328 167.5 c 128,-1,35
 334 167 334 167 341 167 c 0,26,27
228 302 m 1,36,-1
 443 539 l 1,37,38
 438 540 438 540 432 540.5 c 128,-1,39
 426 541 426 541 420 541 c 0,40,41
 373 541 373 541 337 519 c 128,-1,42
 301 497 301 497 277 463 c 128,-1,43
 253 429 253 429 240.5 387.5 c 128,-1,44
 228 346 228 346 228 307 c 2,45,-1
 228 302 l 1,36,-1
EndSplineSet
EndChar

StartChar: Ugrave
Encoding: 217 217 156
Width: 712
GlyphClass: 2
Flags: W
LayerCount: 2
Fore
SplineSet
290 -6 m 0,0,1
 225 -6 225 -6 178.5 12.5 c 128,-1,2
 132 31 132 31 103 64 c 128,-1,3
 74 97 74 97 60.5 141.5 c 128,-1,4
 47 186 47 186 47 238 c 0,5,6
 47 289 47 289 59 345 c 2,7,-1
 137 710 l 1,8,-1
 332 710 l 1,9,-1
 254 345 l 2,10,11
 246 305 246 305 246 274 c 0,12,13
 246 227 246 227 264.5 197 c 128,-1,14
 283 167 283 167 327 167 c 0,15,16
 357 167 357 167 381 182 c 128,-1,17
 405 197 405 197 424 221.5 c 128,-1,18
 443 246 443 246 455.5 278 c 128,-1,19
 468 310 468 310 476 345 c 2,20,-1
 554 710 l 1,21,-1
 749 710 l 1,22,-1
 671 345 l 2,23,24
 655 271 655 271 623 206.5 c 128,-1,25
 591 142 591 142 543 95 c 128,-1,26
 495 48 495 48 431.5 21 c 128,-1,27
 368 -6 368 -6 290 -6 c 0,0,1
350 917 m 1,28,-1
 518 917 l 1,29,-1
 535 775 l 1,30,-1
 403 761 l 1,31,-1
 350 917 l 1,28,-1
EndSplineSet
EndChar

StartChar: Uacute
Encoding: 218 218 157
Width: 712
GlyphClass: 2
Flags: W
LayerCount: 2
Fore
SplineSet
501 762 m 1,0,-1
 373 774 l 1,1,-1
 450 916 l 1,2,-1
 618 916 l 1,3,-1
 501 762 l 1,0,-1
290 -6 m 0,4,5
 225 -6 225 -6 178.5 12.5 c 128,-1,6
 132 31 132 31 103 64 c 128,-1,7
 74 97 74 97 60.5 141.5 c 128,-1,8
 47 186 47 186 47 238 c 0,9,10
 47 289 47 289 59 345 c 2,11,-1
 137 710 l 1,12,-1
 332 710 l 1,13,-1
 254 345 l 2,14,15
 246 305 246 305 246 274 c 0,16,17
 246 227 246 227 264.5 197 c 128,-1,18
 283 167 283 167 327 167 c 0,19,20
 357 167 357 167 381 182 c 128,-1,21
 405 197 405 197 424 221.5 c 128,-1,22
 443 246 443 246 455.5 278 c 128,-1,23
 468 310 468 310 476 345 c 2,24,-1
 554 710 l 1,25,-1
 749 710 l 1,26,-1
 671 345 l 2,27,28
 655 271 655 271 623 206.5 c 128,-1,29
 591 142 591 142 543 95 c 128,-1,30
 495 48 495 48 431.5 21 c 128,-1,31
 368 -6 368 -6 290 -6 c 0,4,5
EndSplineSet
EndChar

StartChar: Ucircumflex
Encoding: 219 219 158
Width: 712
GlyphClass: 2
Flags: W
LayerCount: 2
Fore
SplineSet
284 801 m 1,0,-1
 417 916 l 1,1,-1
 553 916 l 1,2,-1
 637 801 l 1,3,-1
 532 759 l 1,4,-1
 465 822 l 1,5,-1
 371 759 l 1,6,-1
 284 801 l 1,0,-1
290 -6 m 0,7,8
 225 -6 225 -6 178.5 12.5 c 128,-1,9
 132 31 132 31 103 64 c 128,-1,10
 74 97 74 97 60.5 141.5 c 128,-1,11
 47 186 47 186 47 238 c 0,12,13
 47 289 47 289 59 345 c 2,14,-1
 137 710 l 1,15,-1
 332 710 l 1,16,-1
 254 345 l 2,17,18
 246 305 246 305 246 274 c 0,19,20
 246 227 246 227 264.5 197 c 128,-1,21
 283 167 283 167 327 167 c 0,22,23
 357 167 357 167 381 182 c 128,-1,24
 405 197 405 197 424 221.5 c 128,-1,25
 443 246 443 246 455.5 278 c 128,-1,26
 468 310 468 310 476 345 c 2,27,-1
 554 710 l 1,28,-1
 749 710 l 1,29,-1
 671 345 l 2,30,31
 655 271 655 271 623 206.5 c 128,-1,32
 591 142 591 142 543 95 c 128,-1,33
 495 48 495 48 431.5 21 c 128,-1,34
 368 -6 368 -6 290 -6 c 0,7,8
EndSplineSet
EndChar

StartChar: Udieresis
Encoding: 220 220 159
Width: 712
GlyphClass: 2
Flags: W
LayerCount: 2
Fore
SplineSet
262 767 m 1,0,-1
 292 907 l 1,1,-1
 448 907 l 1,2,-1
 418 767 l 1,3,-1
 262 767 l 1,0,-1
487 767 m 1,4,-1
 517 907 l 1,5,-1
 672 907 l 1,6,-1
 643 767 l 1,7,-1
 487 767 l 1,4,-1
290 -6 m 0,8,9
 225 -6 225 -6 178.5 12.5 c 128,-1,10
 132 31 132 31 103 64 c 128,-1,11
 74 97 74 97 60.5 141.5 c 128,-1,12
 47 186 47 186 47 238 c 0,13,14
 47 289 47 289 59 345 c 2,15,-1
 137 710 l 1,16,-1
 332 710 l 1,17,-1
 254 345 l 2,18,19
 246 305 246 305 246 274 c 0,20,21
 246 227 246 227 264.5 197 c 128,-1,22
 283 167 283 167 327 167 c 0,23,24
 357 167 357 167 381 182 c 128,-1,25
 405 197 405 197 424 221.5 c 128,-1,26
 443 246 443 246 455.5 278 c 128,-1,27
 468 310 468 310 476 345 c 2,28,-1
 554 710 l 1,29,-1
 749 710 l 1,30,-1
 671 345 l 2,31,32
 655 271 655 271 623 206.5 c 128,-1,33
 591 142 591 142 543 95 c 128,-1,34
 495 48 495 48 431.5 21 c 128,-1,35
 368 -6 368 -6 290 -6 c 0,8,9
EndSplineSet
EndChar

StartChar: Yacute
Encoding: 221 221 160
Width: 627
GlyphClass: 2
Flags: W
LayerCount: 2
Fore
SplineSet
198 237 m 1,0,-1
 72 710 l 1,1,-1
 283 710 l 1,2,-1
 330 403 l 1,3,-1
 511 710 l 1,4,-1
 723 710 l 1,5,-1
 391 235 l 1,6,-1
 341 0 l 1,7,-1
 147 0 l 1,8,-1
 198 237 l 1,0,-1
447 762 m 1,9,-1
 319 774 l 1,10,-1
 396 916 l 1,11,-1
 564 916 l 1,12,-1
 447 762 l 1,9,-1
EndSplineSet
EndChar

StartChar: Thorn
Encoding: 222 222 161
Width: 585
GlyphClass: 2
Flags: W
LayerCount: 2
Fore
SplineSet
148 710 m 1,0,-1
 343 710 l 1,1,-1
 318 592 l 1,2,-1
 400 592 l 2,3,4
 443 592 443 592 477 574.5 c 128,-1,5
 511 557 511 557 534.5 528.5 c 128,-1,6
 558 500 558 500 570.5 463.5 c 128,-1,7
 583 427 583 427 583 388 c 0,8,9
 583 335 583 335 560.5 284 c 128,-1,10
 538 233 538 233 499.5 192 c 128,-1,11
 461 151 461 151 410 126 c 128,-1,12
 359 101 359 101 301 101 c 2,13,-1
 213 101 l 1,14,-1
 192 0 l 1,15,-1
 -3 0 l 1,16,-1
 148 710 l 1,0,-1
327 271 m 2,17,18
 336 271 336 271 346.5 278.5 c 128,-1,19
 357 286 357 286 365.5 299 c 128,-1,20
 374 312 374 312 380 329.5 c 128,-1,21
 386 347 386 347 386 368 c 0,22,23
 386 394 386 394 376 408 c 128,-1,24
 366 422 366 422 354 422 c 2,25,-1
 282 422 l 1,26,-1
 250 271 l 1,27,-1
 327 271 l 2,17,18
EndSplineSet
EndChar

StartChar: germandbls
Encoding: 223 223 162
Width: 546
GlyphClass: 2
Flags: W
LayerCount: 2
Fore
SplineSet
219 168 m 1,0,1
 237 168 237 168 253.5 173.5 c 128,-1,2
 270 179 270 179 283 189.5 c 128,-1,3
 296 200 296 200 304 215 c 128,-1,4
 312 230 312 230 312 250 c 0,5,6
 312 264 312 264 307 274 c 128,-1,7
 302 284 302 284 294.5 290.5 c 128,-1,8
 287 297 287 297 279 300 c 128,-1,9
 271 303 271 303 266 303 c 2,10,-1
 244 303 l 1,11,-1
 280 473 l 1,12,-1
 300 473 l 2,13,14
 313 473 313 473 321 478.5 c 128,-1,15
 329 484 329 484 333.5 491.5 c 128,-1,16
 338 499 338 499 339.5 507.5 c 128,-1,17
 341 516 341 516 341 522 c 0,18,19
 341 537 341 537 333 545.5 c 128,-1,20
 325 554 325 554 313 554 c 0,21,22
 295 554 295 554 285 538.5 c 128,-1,23
 275 523 275 523 269 494 c 2,24,-1
 164 0 l 1,25,-1
 -16 0 l 1,26,-1
 96 529 l 2,27,28
 105 569 105 569 130 602.5 c 128,-1,29
 155 636 155 636 191.5 661 c 128,-1,30
 228 686 228 686 273 700 c 128,-1,31
 318 714 318 714 367 714 c 0,32,33
 441 714 441 714 486 678.5 c 128,-1,34
 531 643 531 643 531 578 c 0,35,36
 531 548 531 548 522 520.5 c 128,-1,37
 513 493 513 493 498.5 469.5 c 128,-1,38
 484 446 484 446 466 429 c 128,-1,39
 448 412 448 412 431 403 c 1,40,41
 469 386 469 386 490 348.5 c 128,-1,42
 511 311 511 311 511 258 c 0,43,44
 511 180 511 180 479.5 129 c 128,-1,45
 448 78 448 78 400 48 c 128,-1,46
 352 18 352 18 294 6 c 128,-1,47
 236 -6 236 -6 182 -6 c 1,48,-1
 219 168 l 1,0,1
EndSplineSet
EndChar

StartChar: agrave
Encoding: 224 224 163
Width: 646
GlyphClass: 2
Flags: W
LayerCount: 2
Fore
SplineSet
193 -10 m 0,0,1
 149 -10 149 -10 114.5 5.5 c 128,-1,2
 80 21 80 21 56 49 c 128,-1,3
 32 77 32 77 19.5 116 c 128,-1,4
 7 155 7 155 7 202 c 0,5,6
 7 270 7 270 30 330.5 c 128,-1,7
 53 391 53 391 92 437 c 128,-1,8
 131 483 131 483 182.5 509.5 c 128,-1,9
 234 536 234 536 291 536 c 0,10,11
 339 536 339 536 373.5 513 c 128,-1,12
 408 490 408 490 420 448 c 1,13,-1
 436 522 l 1,14,-1
 627 522 l 1,15,-1
 560 210 l 2,16,17
 557 195 557 195 557 186 c 0,18,19
 557 161 557 161 584 160 c 1,20,-1
 550 0 l 1,21,22
 500 -10 500 -10 469 -10 c 0,23,24
 424 -10 424 -10 398 7 c 128,-1,25
 372 24 372 24 372 67 c 0,26,27
 372 77 372 77 373 82 c 1,28,29
 337 34 337 34 289.5 12 c 128,-1,30
 242 -10 242 -10 193 -10 c 0,0,1
279 150 m 0,31,32
 303 150 303 150 324 163.5 c 128,-1,33
 345 177 345 177 370 204 c 1,34,-1
 390 298 l 1,35,36
 385 333 385 333 365.5 354.5 c 128,-1,37
 346 376 346 376 319 376 c 0,38,39
 298 376 298 376 278 364 c 128,-1,40
 258 352 258 352 242 332.5 c 128,-1,41
 226 313 226 313 216.5 287 c 128,-1,42
 207 261 207 261 207 233 c 0,43,44
 207 195 207 195 225.5 172.5 c 128,-1,45
 244 150 244 150 279 150 c 0,31,32
207 730 m 1,46,-1
 375 730 l 1,47,-1
 392 588 l 1,48,-1
 260 574 l 1,49,-1
 207 730 l 1,46,-1
EndSplineSet
EndChar

StartChar: aacute
Encoding: 225 225 164
Width: 646
GlyphClass: 2
Flags: W
LayerCount: 2
Fore
SplineSet
193 -10 m 0,0,1
 149 -10 149 -10 114.5 5.5 c 128,-1,2
 80 21 80 21 56 49 c 128,-1,3
 32 77 32 77 19.5 116 c 128,-1,4
 7 155 7 155 7 202 c 0,5,6
 7 270 7 270 30 330.5 c 128,-1,7
 53 391 53 391 92 437 c 128,-1,8
 131 483 131 483 182.5 509.5 c 128,-1,9
 234 536 234 536 291 536 c 0,10,11
 339 536 339 536 373.5 513 c 128,-1,12
 408 490 408 490 420 448 c 1,13,-1
 436 522 l 1,14,-1
 627 522 l 1,15,-1
 560 210 l 2,16,17
 557 195 557 195 557 186 c 0,18,19
 557 161 557 161 584 160 c 1,20,-1
 550 0 l 1,21,22
 500 -10 500 -10 469 -10 c 0,23,24
 424 -10 424 -10 398 7 c 128,-1,25
 372 24 372 24 372 67 c 0,26,27
 372 77 372 77 373 82 c 1,28,29
 337 34 337 34 289.5 12 c 128,-1,30
 242 -10 242 -10 193 -10 c 0,0,1
279 150 m 0,31,32
 303 150 303 150 324 163.5 c 128,-1,33
 345 177 345 177 370 204 c 1,34,-1
 390 298 l 1,35,36
 385 333 385 333 365.5 354.5 c 128,-1,37
 346 376 346 376 319 376 c 0,38,39
 298 376 298 376 278 364 c 128,-1,40
 258 352 258 352 242 332.5 c 128,-1,41
 226 313 226 313 216.5 287 c 128,-1,42
 207 261 207 261 207 233 c 0,43,44
 207 195 207 195 225.5 172.5 c 128,-1,45
 244 150 244 150 279 150 c 0,31,32
373 576 m 1,46,-1
 245 588 l 1,47,-1
 322 730 l 1,48,-1
 490 730 l 1,49,-1
 373 576 l 1,46,-1
EndSplineSet
EndChar

StartChar: acircumflex
Encoding: 226 226 165
Width: 646
GlyphClass: 2
Flags: W
LayerCount: 2
Fore
SplineSet
193 -10 m 0,0,1
 149 -10 149 -10 114.5 5.5 c 128,-1,2
 80 21 80 21 56 49 c 128,-1,3
 32 77 32 77 19.5 116 c 128,-1,4
 7 155 7 155 7 202 c 0,5,6
 7 270 7 270 30 330.5 c 128,-1,7
 53 391 53 391 92 437 c 128,-1,8
 131 483 131 483 182.5 509.5 c 128,-1,9
 234 536 234 536 291 536 c 0,10,11
 339 536 339 536 373.5 513 c 128,-1,12
 408 490 408 490 420 448 c 1,13,-1
 436 522 l 1,14,-1
 627 522 l 1,15,-1
 560 210 l 2,16,17
 557 195 557 195 557 186 c 0,18,19
 557 161 557 161 584 160 c 1,20,-1
 550 0 l 1,21,22
 500 -10 500 -10 469 -10 c 0,23,24
 424 -10 424 -10 398 7 c 128,-1,25
 372 24 372 24 372 67 c 0,26,27
 372 77 372 77 373 82 c 1,28,29
 337 34 337 34 289.5 12 c 128,-1,30
 242 -10 242 -10 193 -10 c 0,0,1
279 150 m 0,31,32
 303 150 303 150 324 163.5 c 128,-1,33
 345 177 345 177 370 204 c 1,34,-1
 390 298 l 1,35,36
 385 333 385 333 365.5 354.5 c 128,-1,37
 346 376 346 376 319 376 c 0,38,39
 298 376 298 376 278 364 c 128,-1,40
 258 352 258 352 242 332.5 c 128,-1,41
 226 313 226 313 216.5 287 c 128,-1,42
 207 261 207 261 207 233 c 0,43,44
 207 195 207 195 225.5 172.5 c 128,-1,45
 244 150 244 150 279 150 c 0,31,32
151 615 m 1,46,-1
 284 730 l 1,47,-1
 420 730 l 1,48,-1
 504 615 l 1,49,-1
 399 573 l 1,50,-1
 332 636 l 1,51,-1
 238 573 l 1,52,-1
 151 615 l 1,46,-1
EndSplineSet
EndChar

StartChar: atilde
Encoding: 227 227 166
Width: 646
GlyphClass: 2
Flags: W
LayerCount: 2
Fore
SplineSet
193 -10 m 0,0,1
 149 -10 149 -10 114.5 5.5 c 128,-1,2
 80 21 80 21 56 49 c 128,-1,3
 32 77 32 77 19.5 116 c 128,-1,4
 7 155 7 155 7 202 c 0,5,6
 7 270 7 270 30 330.5 c 128,-1,7
 53 391 53 391 92 437 c 128,-1,8
 131 483 131 483 182.5 509.5 c 128,-1,9
 234 536 234 536 291 536 c 0,10,11
 339 536 339 536 373.5 513 c 128,-1,12
 408 490 408 490 420 448 c 1,13,-1
 436 522 l 1,14,-1
 627 522 l 1,15,-1
 560 210 l 2,16,17
 557 195 557 195 557 186 c 0,18,19
 557 161 557 161 584 160 c 1,20,-1
 550 0 l 1,21,22
 500 -10 500 -10 469 -10 c 0,23,24
 424 -10 424 -10 398 7 c 128,-1,25
 372 24 372 24 372 67 c 0,26,27
 372 77 372 77 373 82 c 1,28,29
 337 34 337 34 289.5 12 c 128,-1,30
 242 -10 242 -10 193 -10 c 0,0,1
279 150 m 0,31,32
 303 150 303 150 324 163.5 c 128,-1,33
 345 177 345 177 370 204 c 1,34,-1
 390 298 l 1,35,36
 385 333 385 333 365.5 354.5 c 128,-1,37
 346 376 346 376 319 376 c 0,38,39
 298 376 298 376 278 364 c 128,-1,40
 258 352 258 352 242 332.5 c 128,-1,41
 226 313 226 313 216.5 287 c 128,-1,42
 207 261 207 261 207 233 c 0,43,44
 207 195 207 195 225.5 172.5 c 128,-1,45
 244 150 244 150 279 150 c 0,31,32
384 572 m 0,46,47
 362 572 362 572 347 579.5 c 128,-1,48
 332 587 332 587 319.5 596 c 128,-1,49
 307 605 307 605 294.5 612.5 c 128,-1,50
 282 620 282 620 266 620 c 256,51,52
 250 620 250 620 239.5 613 c 128,-1,53
 229 606 229 606 223 597 c 128,-1,54
 217 588 217 588 215 580.5 c 128,-1,55
 213 573 213 573 213 572 c 2,56,-1
 112 572 l 1,57,58
 115 585 115 585 128 611.5 c 128,-1,59
 141 638 141 638 163 664 c 128,-1,60
 185 690 185 690 215 710 c 128,-1,61
 245 730 245 730 281 730 c 0,62,63
 305 730 305 730 320 722 c 128,-1,64
 335 714 335 714 347.5 704.5 c 128,-1,65
 360 695 360 695 371.5 687 c 128,-1,66
 383 679 383 679 399 679 c 0,67,68
 414 679 414 679 425 686.5 c 128,-1,69
 436 694 436 694 443 703.5 c 128,-1,70
 450 713 450 713 453.5 721 c 128,-1,71
 457 729 457 729 457 730 c 2,72,-1
 557 730 l 1,73,74
 555 721 555 721 541.5 695.5 c 128,-1,75
 528 670 528 670 505.5 642.5 c 128,-1,76
 483 615 483 615 452 593.5 c 128,-1,77
 421 572 421 572 384 572 c 0,46,47
EndSplineSet
EndChar

StartChar: adieresis
Encoding: 228 228 167
Width: 646
GlyphClass: 2
Flags: W
LayerCount: 2
Fore
SplineSet
193 -10 m 0,0,1
 149 -10 149 -10 114.5 5.5 c 128,-1,2
 80 21 80 21 56 49 c 128,-1,3
 32 77 32 77 19.5 116 c 128,-1,4
 7 155 7 155 7 202 c 0,5,6
 7 270 7 270 30 330.5 c 128,-1,7
 53 391 53 391 92 437 c 128,-1,8
 131 483 131 483 182.5 509.5 c 128,-1,9
 234 536 234 536 291 536 c 0,10,11
 339 536 339 536 373.5 513 c 128,-1,12
 408 490 408 490 420 448 c 1,13,-1
 436 522 l 1,14,-1
 627 522 l 1,15,-1
 560 210 l 2,16,17
 557 195 557 195 557 186 c 0,18,19
 557 161 557 161 584 160 c 1,20,-1
 550 0 l 1,21,22
 500 -10 500 -10 469 -10 c 0,23,24
 424 -10 424 -10 398 7 c 128,-1,25
 372 24 372 24 372 67 c 0,26,27
 372 77 372 77 373 82 c 1,28,29
 337 34 337 34 289.5 12 c 128,-1,30
 242 -10 242 -10 193 -10 c 0,0,1
279 150 m 0,31,32
 303 150 303 150 324 163.5 c 128,-1,33
 345 177 345 177 370 204 c 1,34,-1
 390 298 l 1,35,36
 385 333 385 333 365.5 354.5 c 128,-1,37
 346 376 346 376 319 376 c 0,38,39
 298 376 298 376 278 364 c 128,-1,40
 258 352 258 352 242 332.5 c 128,-1,41
 226 313 226 313 216.5 287 c 128,-1,42
 207 261 207 261 207 233 c 0,43,44
 207 195 207 195 225.5 172.5 c 128,-1,45
 244 150 244 150 279 150 c 0,31,32
133 580 m 1,46,-1
 163 720 l 1,47,-1
 319 720 l 1,48,-1
 289 580 l 1,49,-1
 133 580 l 1,46,-1
358 580 m 1,50,-1
 388 720 l 1,51,-1
 543 720 l 1,52,-1
 514 580 l 1,53,-1
 358 580 l 1,50,-1
EndSplineSet
EndChar

StartChar: aring
Encoding: 229 229 168
Width: 646
GlyphClass: 2
Flags: W
LayerCount: 2
Fore
SplineSet
193 -10 m 0,0,1
 149 -10 149 -10 114.5 5.5 c 128,-1,2
 80 21 80 21 56 49 c 128,-1,3
 32 77 32 77 19.5 116 c 128,-1,4
 7 155 7 155 7 202 c 0,5,6
 7 270 7 270 30 330.5 c 128,-1,7
 53 391 53 391 92 437 c 128,-1,8
 131 483 131 483 182.5 509.5 c 128,-1,9
 234 536 234 536 291 536 c 0,10,11
 339 536 339 536 373.5 513 c 128,-1,12
 408 490 408 490 420 448 c 1,13,-1
 436 522 l 1,14,-1
 627 522 l 1,15,-1
 560 210 l 2,16,17
 557 195 557 195 557 186 c 0,18,19
 557 161 557 161 584 160 c 1,20,-1
 550 0 l 1,21,22
 500 -10 500 -10 469 -10 c 0,23,24
 424 -10 424 -10 398 7 c 128,-1,25
 372 24 372 24 372 67 c 0,26,27
 372 77 372 77 373 82 c 1,28,29
 337 34 337 34 289.5 12 c 128,-1,30
 242 -10 242 -10 193 -10 c 0,0,1
279 150 m 0,31,32
 303 150 303 150 324 163.5 c 128,-1,33
 345 177 345 177 370 204 c 1,34,-1
 390 298 l 1,35,36
 385 333 385 333 365.5 354.5 c 128,-1,37
 346 376 346 376 319 376 c 0,38,39
 298 376 298 376 278 364 c 128,-1,40
 258 352 258 352 242 332.5 c 128,-1,41
 226 313 226 313 216.5 287 c 128,-1,42
 207 261 207 261 207 233 c 0,43,44
 207 195 207 195 225.5 172.5 c 128,-1,45
 244 150 244 150 279 150 c 0,31,32
216 626 m 0,46,47
 216 677 216 677 253.5 703.5 c 128,-1,48
 291 730 291 730 352 730 c 0,49,50
 398 730 398 730 424 712.5 c 128,-1,51
 450 695 450 695 450 660 c 0,52,53
 450 609 450 609 412.5 582.5 c 128,-1,54
 375 556 375 556 315 556 c 0,55,56
 269 556 269 556 242.5 573.5 c 128,-1,57
 216 591 216 591 216 626 c 0,46,47
340 676 m 0,58,59
 321 676 321 676 308 665.5 c 128,-1,60
 295 655 295 655 295 638 c 0,61,62
 295 610 295 610 326 610 c 0,63,64
 344 610 344 610 358 621 c 128,-1,65
 372 632 372 632 372 649 c 0,66,67
 372 661 372 661 363 668.5 c 128,-1,68
 354 676 354 676 340 676 c 0,58,59
EndSplineSet
EndChar

StartChar: ae
Encoding: 230 230 169
Width: 902
GlyphClass: 2
Flags: W
LayerCount: 2
Fore
SplineSet
130 -10 m 0,0,1
 64 -10 64 -10 25 29 c 128,-1,2
 -14 68 -14 68 -14 130 c 0,3,4
 -14 174 -14 174 6.5 212.5 c 128,-1,5
 27 251 27 251 62 279 c 128,-1,6
 97 307 97 307 144 323 c 128,-1,7
 191 339 191 339 245 339 c 0,8,9
 305 339 305 339 339 319 c 1,10,11
 341 329 341 329 342.5 339.5 c 128,-1,12
 344 350 344 350 344 359 c 0,13,14
 344 384 344 384 327.5 396 c 128,-1,15
 311 408 311 408 274 408 c 0,16,17
 232 408 232 408 192.5 393.5 c 128,-1,18
 153 379 153 379 108 351 c 1,19,-1
 78 469 l 1,20,21
 191 536 191 536 320 536 c 0,22,23
 430 536 430 536 486 486 c 1,24,25
 523 509 523 509 566.5 522.5 c 128,-1,26
 610 536 610 536 661 536 c 0,27,28
 718 536 718 536 760.5 518.5 c 128,-1,29
 803 501 803 501 831 471 c 128,-1,30
 859 441 859 441 872.5 401.5 c 128,-1,31
 886 362 886 362 886 318 c 0,32,33
 886 279 886 279 877.5 252 c 128,-1,34
 869 225 869 225 861 205 c 1,35,-1
 518 205 l 1,36,37
 517 200 517 200 516.5 196 c 128,-1,38
 516 192 516 192 516 186 c 0,39,40
 516 154 516 154 535.5 140 c 128,-1,41
 555 126 555 126 581 126 c 256,42,43
 607 126 607 126 635 140 c 128,-1,44
 663 154 663 154 676 179 c 1,45,-1
 827 133 l 1,46,47
 782 70 782 70 710 30 c 128,-1,48
 638 -10 638 -10 545 -10 c 0,49,50
 468 -10 468 -10 418 18 c 128,-1,51
 368 46 368 46 344 92 c 1,52,53
 320 65 320 65 292 45.5 c 128,-1,54
 264 26 264 26 236 14 c 128,-1,55
 208 2 208 2 180.5 -4 c 128,-1,56
 153 -10 153 -10 130 -10 c 0,0,1
219 126 m 0,57,58
 242 126 242 126 268.5 135.5 c 128,-1,59
 295 145 295 145 315 159 c 0,60,61
 314 163 314 163 314 167 c 128,-1,62
 314 171 314 171 314 175 c 0,63,64
 314 186 314 186 315 197 c 128,-1,65
 316 208 316 208 318 222 c 1,66,67
 304 228 304 228 286.5 232 c 128,-1,68
 269 236 269 236 255 236 c 0,69,70
 239 236 239 236 224 230.5 c 128,-1,71
 209 225 209 225 197 215.5 c 128,-1,72
 185 206 185 206 178 193.5 c 128,-1,73
 171 181 171 181 171 167 c 0,74,75
 171 149 171 149 183 137.5 c 128,-1,76
 195 126 195 126 219 126 c 0,57,58
686 319 m 1,77,78
 686 324 686 324 686.5 326 c 128,-1,79
 687 328 687 328 687 335 c 0,80,81
 687 365 687 365 672 383 c 128,-1,82
 657 401 657 401 629 401 c 0,83,84
 598 401 598 401 574 379 c 128,-1,85
 550 357 550 357 538 319 c 1,86,-1
 686 319 l 1,77,78
EndSplineSet
EndChar

StartChar: ccedilla
Encoding: 231 231 170
Width: 555
GlyphClass: 2
Flags: W
LayerCount: 2
Fore
SplineSet
121 -128 m 1,0,1
 129 -135 129 -135 153 -141.5 c 128,-1,2
 177 -148 177 -148 203 -148 c 0,3,4
 227 -148 227 -148 245 -140 c 128,-1,5
 263 -132 263 -132 263 -112 c 0,6,7
 263 -98 263 -98 250.5 -92.5 c 128,-1,8
 238 -87 238 -87 216 -87 c 0,9,10
 196 -87 196 -87 173 -90.5 c 128,-1,11
 150 -94 150 -94 139 -96 c 1,12,-1
 198 -8 l 1,13,14
 149 -3 149 -3 113 16.5 c 128,-1,15
 77 36 77 36 53 65.5 c 128,-1,16
 29 95 29 95 17.5 132.5 c 128,-1,17
 6 170 6 170 6 211 c 0,18,19
 6 272 6 272 30 330.5 c 128,-1,20
 54 389 54 389 99 434.5 c 128,-1,21
 144 480 144 480 207 508 c 128,-1,22
 270 536 270 536 348 536 c 0,23,24
 441 536 441 536 494 496 c 128,-1,25
 547 456 547 456 565 393 c 1,26,-1
 368 337 l 1,27,28
 352 376 352 376 313 376 c 0,29,30
 292 376 292 376 272.5 365.5 c 128,-1,31
 253 355 253 355 237.5 336 c 128,-1,32
 222 317 222 317 213 290.5 c 128,-1,33
 204 264 204 264 204 232 c 0,34,35
 204 194 204 194 220.5 172 c 128,-1,36
 237 150 237 150 265 150 c 0,37,38
 303 150 303 150 336 189 c 1,39,-1
 509 133 l 1,40,41
 468 76 468 76 408.5 38 c 128,-1,42
 349 0 349 0 271 -8 c 1,43,-1
 248 -34 l 2,44,45
 253 -33 253 -33 259.5 -32.5 c 128,-1,46
 266 -32 266 -32 273 -32 c 0,47,48
 303 -32 303 -32 326 -46.5 c 128,-1,49
 349 -61 349 -61 349 -95 c 0,50,51
 349 -118 349 -118 338.5 -139 c 128,-1,52
 328 -160 328 -160 307 -176.5 c 128,-1,53
 286 -193 286 -193 253.5 -203 c 128,-1,54
 221 -213 221 -213 177 -213 c 0,55,56
 142 -213 142 -213 116 -206.5 c 128,-1,57
 90 -200 90 -200 73 -192 c 1,58,-1
 121 -128 l 1,0,1
EndSplineSet
EndChar

StartChar: egrave
Encoding: 232 232 171
Width: 566
GlyphClass: 2
Flags: W
LayerCount: 2
Fore
SplineSet
233 -10 m 0,0,1
 182 -10 182 -10 140 6 c 128,-1,2
 98 22 98 22 68.5 51 c 128,-1,3
 39 80 39 80 23 121 c 128,-1,4
 7 162 7 162 7 213 c 0,5,6
 7 280 7 280 34 339 c 128,-1,7
 61 398 61 398 108 442 c 128,-1,8
 155 486 155 486 218.5 511 c 128,-1,9
 282 536 282 536 354 536 c 0,10,11
 450 536 450 536 503.5 495.5 c 128,-1,12
 557 455 557 455 557 383 c 0,13,14
 557 294 557 294 475.5 249 c 128,-1,15
 394 204 394 204 234 204 c 2,16,-1
 205 204 l 1,17,18
 205 161 205 161 219.5 143.5 c 128,-1,19
 234 126 234 126 269 126 c 0,20,21
 333 126 333 126 367 180 c 1,22,-1
 516 132 l 1,23,24
 494 100 494 100 462.5 74 c 128,-1,25
 431 48 431 48 393.5 29 c 128,-1,26
 356 10 356 10 315 0 c 128,-1,27
 274 -10 274 -10 233 -10 c 0,0,1
320 401 m 0,28,29
 291 401 291 401 266.5 378.5 c 128,-1,30
 242 356 242 356 226 318 c 1,31,-1
 233 318 l 2,32,33
 310 318 310 318 340.5 327.5 c 128,-1,34
 371 337 371 337 371 362 c 0,35,36
 371 379 371 379 357 390 c 128,-1,37
 343 401 343 401 320 401 c 0,28,29
256 730 m 1,38,-1
 424 730 l 1,39,-1
 441 588 l 1,40,-1
 309 574 l 1,41,-1
 256 730 l 1,38,-1
EndSplineSet
EndChar

StartChar: eacute
Encoding: 233 233 172
Width: 566
GlyphClass: 2
Flags: W
LayerCount: 2
Fore
SplineSet
402 576 m 1,0,-1
 274 588 l 1,1,-1
 351 730 l 1,2,-1
 519 730 l 1,3,-1
 402 576 l 1,0,-1
233 -10 m 0,4,5
 182 -10 182 -10 140 6 c 128,-1,6
 98 22 98 22 68.5 51 c 128,-1,7
 39 80 39 80 23 121 c 128,-1,8
 7 162 7 162 7 213 c 0,9,10
 7 280 7 280 34 339 c 128,-1,11
 61 398 61 398 108 442 c 128,-1,12
 155 486 155 486 218.5 511 c 128,-1,13
 282 536 282 536 354 536 c 0,14,15
 450 536 450 536 503.5 495.5 c 128,-1,16
 557 455 557 455 557 383 c 0,17,18
 557 294 557 294 475.5 249 c 128,-1,19
 394 204 394 204 234 204 c 2,20,-1
 205 204 l 1,21,22
 205 161 205 161 219.5 143.5 c 128,-1,23
 234 126 234 126 269 126 c 0,24,25
 333 126 333 126 367 180 c 1,26,-1
 516 132 l 1,27,28
 494 100 494 100 462.5 74 c 128,-1,29
 431 48 431 48 393.5 29 c 128,-1,30
 356 10 356 10 315 0 c 128,-1,31
 274 -10 274 -10 233 -10 c 0,4,5
320 401 m 0,32,33
 291 401 291 401 266.5 378.5 c 128,-1,34
 242 356 242 356 226 318 c 1,35,-1
 233 318 l 2,36,37
 310 318 310 318 340.5 327.5 c 128,-1,38
 371 337 371 337 371 362 c 0,39,40
 371 379 371 379 357 390 c 128,-1,41
 343 401 343 401 320 401 c 0,32,33
EndSplineSet
EndChar

StartChar: ecircumflex
Encoding: 234 234 173
Width: 566
GlyphClass: 2
Flags: W
LayerCount: 2
Fore
SplineSet
198 615 m 1,0,-1
 331 730 l 1,1,-1
 467 730 l 1,2,-1
 551 615 l 1,3,-1
 446 573 l 1,4,-1
 379 636 l 1,5,-1
 285 573 l 1,6,-1
 198 615 l 1,0,-1
233 -10 m 0,7,8
 182 -10 182 -10 140 6 c 128,-1,9
 98 22 98 22 68.5 51 c 128,-1,10
 39 80 39 80 23 121 c 128,-1,11
 7 162 7 162 7 213 c 0,12,13
 7 280 7 280 34 339 c 128,-1,14
 61 398 61 398 108 442 c 128,-1,15
 155 486 155 486 218.5 511 c 128,-1,16
 282 536 282 536 354 536 c 0,17,18
 450 536 450 536 503.5 495.5 c 128,-1,19
 557 455 557 455 557 383 c 0,20,21
 557 294 557 294 475.5 249 c 128,-1,22
 394 204 394 204 234 204 c 2,23,-1
 205 204 l 1,24,25
 205 161 205 161 219.5 143.5 c 128,-1,26
 234 126 234 126 269 126 c 0,27,28
 333 126 333 126 367 180 c 1,29,-1
 516 132 l 1,30,31
 494 100 494 100 462.5 74 c 128,-1,32
 431 48 431 48 393.5 29 c 128,-1,33
 356 10 356 10 315 0 c 128,-1,34
 274 -10 274 -10 233 -10 c 0,7,8
320 401 m 0,35,36
 291 401 291 401 266.5 378.5 c 128,-1,37
 242 356 242 356 226 318 c 1,38,-1
 233 318 l 2,39,40
 310 318 310 318 340.5 327.5 c 128,-1,41
 371 337 371 337 371 362 c 0,42,43
 371 379 371 379 357 390 c 128,-1,44
 343 401 343 401 320 401 c 0,35,36
EndSplineSet
EndChar

StartChar: edieresis
Encoding: 235 235 174
Width: 566
GlyphClass: 2
Flags: W
LayerCount: 2
Fore
SplineSet
175 580 m 1,0,-1
 205 720 l 1,1,-1
 361 720 l 1,2,-1
 331 580 l 1,3,-1
 175 580 l 1,0,-1
400 580 m 1,4,-1
 430 720 l 1,5,-1
 585 720 l 1,6,-1
 556 580 l 1,7,-1
 400 580 l 1,4,-1
233 -10 m 0,8,9
 182 -10 182 -10 140 6 c 128,-1,10
 98 22 98 22 68.5 51 c 128,-1,11
 39 80 39 80 23 121 c 128,-1,12
 7 162 7 162 7 213 c 0,13,14
 7 280 7 280 34 339 c 128,-1,15
 61 398 61 398 108 442 c 128,-1,16
 155 486 155 486 218.5 511 c 128,-1,17
 282 536 282 536 354 536 c 0,18,19
 450 536 450 536 503.5 495.5 c 128,-1,20
 557 455 557 455 557 383 c 0,21,22
 557 294 557 294 475.5 249 c 128,-1,23
 394 204 394 204 234 204 c 2,24,-1
 205 204 l 1,25,26
 205 161 205 161 219.5 143.5 c 128,-1,27
 234 126 234 126 269 126 c 0,28,29
 333 126 333 126 367 180 c 1,30,-1
 516 132 l 1,31,32
 494 100 494 100 462.5 74 c 128,-1,33
 431 48 431 48 393.5 29 c 128,-1,34
 356 10 356 10 315 0 c 128,-1,35
 274 -10 274 -10 233 -10 c 0,8,9
320 401 m 0,36,37
 291 401 291 401 266.5 378.5 c 128,-1,38
 242 356 242 356 226 318 c 1,39,-1
 233 318 l 2,40,41
 310 318 310 318 340.5 327.5 c 128,-1,42
 371 337 371 337 371 362 c 0,43,44
 371 379 371 379 357 390 c 128,-1,45
 343 401 343 401 320 401 c 0,36,37
EndSplineSet
EndChar

StartChar: igrave
Encoding: 236 236 175
Width: 286
GlyphClass: 2
Flags: W
LayerCount: 2
Fore
SplineSet
96 526 m 1,0,-1
 286 526 l 1,1,-1
 174 0 l 1,2,-1
 -16 0 l 1,3,-1
 96 526 l 1,0,-1
98 730 m 1,4,-1
 266 730 l 1,5,-1
 283 588 l 1,6,-1
 151 574 l 1,7,-1
 98 730 l 1,4,-1
EndSplineSet
EndChar

StartChar: iacute
Encoding: 237 237 176
Width: 286
GlyphClass: 2
Flags: W
LayerCount: 2
Fore
SplineSet
248 576 m 1,0,-1
 120 588 l 1,1,-1
 197 730 l 1,2,-1
 365 730 l 1,3,-1
 248 576 l 1,0,-1
96 526 m 1,4,-1
 286 526 l 1,5,-1
 174 0 l 1,6,-1
 -16 0 l 1,7,-1
 96 526 l 1,4,-1
EndSplineSet
EndChar

StartChar: icircumflex
Encoding: 238 238 177
Width: 286
GlyphClass: 2
Flags: W
LayerCount: 2
Fore
SplineSet
40 615 m 1,0,-1
 173 730 l 1,1,-1
 309 730 l 1,2,-1
 393 615 l 1,3,-1
 288 573 l 1,4,-1
 221 636 l 1,5,-1
 127 573 l 1,6,-1
 40 615 l 1,0,-1
96 526 m 1,7,-1
 286 526 l 1,8,-1
 174 0 l 1,9,-1
 -16 0 l 1,10,-1
 96 526 l 1,7,-1
EndSplineSet
EndChar

StartChar: idieresis
Encoding: 239 239 178
Width: 286
GlyphClass: 2
Flags: W
LayerCount: 2
Fore
SplineSet
13 580 m 1,0,-1
 43 720 l 1,1,-1
 199 720 l 1,2,-1
 169 580 l 1,3,-1
 13 580 l 1,0,-1
238 580 m 1,4,-1
 268 720 l 1,5,-1
 423 720 l 1,6,-1
 394 580 l 1,7,-1
 238 580 l 1,4,-1
96 526 m 1,8,-1
 286 526 l 1,9,-1
 174 0 l 1,10,-1
 -16 0 l 1,11,-1
 96 526 l 1,8,-1
EndSplineSet
EndChar

StartChar: eth
Encoding: 240 240 179
Width: 603
GlyphClass: 2
Flags: W
LayerCount: 2
Fore
SplineSet
605 641 m 1,0,-1
 533 606 l 1,1,2
 558 557 558 557 571.5 499 c 128,-1,3
 585 441 585 441 585 379 c 0,4,5
 585 291 585 291 560 219.5 c 128,-1,6
 535 148 535 148 489 97 c 128,-1,7
 443 46 443 46 378 18 c 128,-1,8
 313 -10 313 -10 234 -10 c 0,9,10
 181 -10 181 -10 138.5 5 c 128,-1,11
 96 20 96 20 66 46.5 c 128,-1,12
 36 73 36 73 20 110 c 128,-1,13
 4 147 4 147 4 191 c 0,14,15
 4 248 4 248 27.5 299 c 128,-1,16
 51 350 51 350 90 388 c 128,-1,17
 129 426 129 426 180 448.5 c 128,-1,18
 231 471 231 471 286 471 c 0,19,20
 321 471 321 471 352.5 459 c 128,-1,21
 384 447 384 447 407 425 c 1,22,23
 405 459 405 459 398 489 c 0,24,25
 394 503 394 503 389 516.5 c 128,-1,26
 384 530 384 530 378 544 c 1,27,-1
 305 510 l 1,28,-1
 268 581 l 1,29,-1
 334 613 l 1,30,31
 308 645 308 645 272.5 673.5 c 128,-1,32
 237 702 237 702 192 730 c 1,33,-1
 420 730 l 1,34,35
 439 720 439 720 456 705.5 c 128,-1,36
 473 691 473 691 489 673 c 1,37,-1
 568 712 l 1,38,-1
 605 641 l 1,0,-1
202 216 m 0,39,40
 202 186 202 186 219 168 c 128,-1,41
 236 150 236 150 268 150 c 0,42,43
 312 150 312 150 340.5 179.5 c 128,-1,44
 369 209 369 209 369 254 c 0,45,46
 369 284 369 284 352.5 302 c 128,-1,47
 336 320 336 320 304 320 c 0,48,49
 259 320 259 320 230.5 290.5 c 128,-1,50
 202 261 202 261 202 216 c 0,39,40
EndSplineSet
EndChar

StartChar: ntilde
Encoding: 241 241 180
Width: 601
GlyphClass: 2
Flags: W
LayerCount: 2
Fore
SplineSet
96 526 m 1,0,-1
 267 526 l 1,1,-1
 250 448 l 1,2,3
 285 491 285 491 337.5 513.5 c 128,-1,4
 390 536 390 536 455 536 c 0,5,6
 491 536 491 536 514.5 526 c 128,-1,7
 538 516 538 516 551.5 499 c 128,-1,8
 565 482 565 482 570 460.5 c 128,-1,9
 575 439 575 439 575 417 c 0,10,11
 575 398 575 398 572.5 380 c 128,-1,12
 570 362 570 362 567 346 c 2,13,-1
 494 0 l 1,14,-1
 304 0 l 1,15,-1
 367 296 l 2,16,17
 370 311 370 311 370 322 c 0,18,19
 370 347 370 347 358.5 358.5 c 128,-1,20
 347 370 347 370 331 370 c 0,21,22
 311 370 311 370 283.5 349 c 128,-1,23
 256 328 256 328 237 295 c 1,24,-1
 174 0 l 1,25,-1
 -16 0 l 1,26,-1
 96 526 l 1,0,-1
430 572 m 0,27,28
 408 572 408 572 393 579.5 c 128,-1,29
 378 587 378 587 365.5 596 c 128,-1,30
 353 605 353 605 340.5 612.5 c 128,-1,31
 328 620 328 620 312 620 c 256,32,33
 296 620 296 620 285.5 613 c 128,-1,34
 275 606 275 606 269 597 c 128,-1,35
 263 588 263 588 261 580.5 c 128,-1,36
 259 573 259 573 259 572 c 2,37,-1
 158 572 l 1,38,39
 161 585 161 585 174 611.5 c 128,-1,40
 187 638 187 638 209 664 c 128,-1,41
 231 690 231 690 261 710 c 128,-1,42
 291 730 291 730 327 730 c 0,43,44
 351 730 351 730 366 722 c 128,-1,45
 381 714 381 714 393.5 704.5 c 128,-1,46
 406 695 406 695 417.5 687 c 128,-1,47
 429 679 429 679 445 679 c 0,48,49
 460 679 460 679 471 686.5 c 128,-1,50
 482 694 482 694 489 703.5 c 128,-1,51
 496 713 496 713 499.5 721 c 128,-1,52
 503 729 503 729 503 730 c 2,53,-1
 603 730 l 1,54,55
 601 721 601 721 587.5 695.5 c 128,-1,56
 574 670 574 670 551.5 642.5 c 128,-1,57
 529 615 529 615 498 593.5 c 128,-1,58
 467 572 467 572 430 572 c 0,27,28
EndSplineSet
EndChar

StartChar: ograve
Encoding: 242 242 181
Width: 596
GlyphClass: 2
Flags: W
LayerCount: 2
Fore
SplineSet
232 -10 m 0,0,1
 175 -10 175 -10 132.5 7.5 c 128,-1,2
 90 25 90 25 62 55 c 128,-1,3
 34 85 34 85 20.5 125 c 128,-1,4
 7 165 7 165 7 209 c 0,5,6
 7 270 7 270 30.5 329 c 128,-1,7
 54 388 54 388 98 434 c 128,-1,8
 142 480 142 480 205 508 c 128,-1,9
 268 536 268 536 348 536 c 0,10,11
 405 536 405 536 447.5 518.5 c 128,-1,12
 490 501 490 501 518 471 c 128,-1,13
 546 441 546 441 559.5 401.5 c 128,-1,14
 573 362 573 362 573 317 c 0,15,16
 573 256 573 256 549.5 197 c 128,-1,17
 526 138 526 138 481.5 92 c 128,-1,18
 437 46 437 46 374 18 c 128,-1,19
 311 -10 311 -10 232 -10 c 0,0,1
266 150 m 0,20,21
 288 150 288 150 308 161 c 128,-1,22
 328 172 328 172 343 191 c 128,-1,23
 358 210 358 210 366.5 236.5 c 128,-1,24
 375 263 375 263 375 294 c 0,25,26
 375 332 375 332 359 354 c 128,-1,27
 343 376 343 376 314 376 c 0,28,29
 292 376 292 376 272 365 c 128,-1,30
 252 354 252 354 237 335 c 128,-1,31
 222 316 222 316 213.5 289.5 c 128,-1,32
 205 263 205 263 205 232 c 0,33,34
 205 194 205 194 221 172 c 128,-1,35
 237 150 237 150 266 150 c 0,20,21
270 730 m 1,36,-1
 438 730 l 1,37,-1
 455 588 l 1,38,-1
 323 574 l 1,39,-1
 270 730 l 1,36,-1
EndSplineSet
EndChar

StartChar: oacute
Encoding: 243 243 182
Width: 596
GlyphClass: 2
Flags: W
LayerCount: 2
Fore
SplineSet
414 576 m 1,0,-1
 286 588 l 1,1,-1
 363 730 l 1,2,-1
 531 730 l 1,3,-1
 414 576 l 1,0,-1
232 -10 m 0,4,5
 175 -10 175 -10 132.5 7.5 c 128,-1,6
 90 25 90 25 62 55 c 128,-1,7
 34 85 34 85 20.5 125 c 128,-1,8
 7 165 7 165 7 209 c 0,9,10
 7 270 7 270 30.5 329 c 128,-1,11
 54 388 54 388 98 434 c 128,-1,12
 142 480 142 480 205 508 c 128,-1,13
 268 536 268 536 348 536 c 0,14,15
 405 536 405 536 447.5 518.5 c 128,-1,16
 490 501 490 501 518 471 c 128,-1,17
 546 441 546 441 559.5 401.5 c 128,-1,18
 573 362 573 362 573 317 c 0,19,20
 573 256 573 256 549.5 197 c 128,-1,21
 526 138 526 138 481.5 92 c 128,-1,22
 437 46 437 46 374 18 c 128,-1,23
 311 -10 311 -10 232 -10 c 0,4,5
266 150 m 0,24,25
 288 150 288 150 308 161 c 128,-1,26
 328 172 328 172 343 191 c 128,-1,27
 358 210 358 210 366.5 236.5 c 128,-1,28
 375 263 375 263 375 294 c 0,29,30
 375 332 375 332 359 354 c 128,-1,31
 343 376 343 376 314 376 c 0,32,33
 292 376 292 376 272 365 c 128,-1,34
 252 354 252 354 237 335 c 128,-1,35
 222 316 222 316 213.5 289.5 c 128,-1,36
 205 263 205 263 205 232 c 0,37,38
 205 194 205 194 221 172 c 128,-1,39
 237 150 237 150 266 150 c 0,24,25
EndSplineSet
EndChar

StartChar: ocircumflex
Encoding: 244 244 183
Width: 596
GlyphClass: 2
Flags: W
LayerCount: 2
Fore
SplineSet
200 615 m 1,0,-1
 333 730 l 1,1,-1
 469 730 l 1,2,-1
 553 615 l 1,3,-1
 448 573 l 1,4,-1
 381 636 l 1,5,-1
 287 573 l 1,6,-1
 200 615 l 1,0,-1
232 -10 m 0,7,8
 175 -10 175 -10 132.5 7.5 c 128,-1,9
 90 25 90 25 62 55 c 128,-1,10
 34 85 34 85 20.5 125 c 128,-1,11
 7 165 7 165 7 209 c 0,12,13
 7 270 7 270 30.5 329 c 128,-1,14
 54 388 54 388 98 434 c 128,-1,15
 142 480 142 480 205 508 c 128,-1,16
 268 536 268 536 348 536 c 0,17,18
 405 536 405 536 447.5 518.5 c 128,-1,19
 490 501 490 501 518 471 c 128,-1,20
 546 441 546 441 559.5 401.5 c 128,-1,21
 573 362 573 362 573 317 c 0,22,23
 573 256 573 256 549.5 197 c 128,-1,24
 526 138 526 138 481.5 92 c 128,-1,25
 437 46 437 46 374 18 c 128,-1,26
 311 -10 311 -10 232 -10 c 0,7,8
266 150 m 0,27,28
 288 150 288 150 308 161 c 128,-1,29
 328 172 328 172 343 191 c 128,-1,30
 358 210 358 210 366.5 236.5 c 128,-1,31
 375 263 375 263 375 294 c 0,32,33
 375 332 375 332 359 354 c 128,-1,34
 343 376 343 376 314 376 c 0,35,36
 292 376 292 376 272 365 c 128,-1,37
 252 354 252 354 237 335 c 128,-1,38
 222 316 222 316 213.5 289.5 c 128,-1,39
 205 263 205 263 205 232 c 0,40,41
 205 194 205 194 221 172 c 128,-1,42
 237 150 237 150 266 150 c 0,27,28
EndSplineSet
EndChar

StartChar: otilde
Encoding: 245 245 184
Width: 596
GlyphClass: 2
Flags: W
LayerCount: 2
Fore
SplineSet
232 -10 m 0,0,1
 175 -10 175 -10 132.5 7.5 c 128,-1,2
 90 25 90 25 62 55 c 128,-1,3
 34 85 34 85 20.5 125 c 128,-1,4
 7 165 7 165 7 209 c 0,5,6
 7 270 7 270 30.5 329 c 128,-1,7
 54 388 54 388 98 434 c 128,-1,8
 142 480 142 480 205 508 c 128,-1,9
 268 536 268 536 348 536 c 0,10,11
 405 536 405 536 447.5 518.5 c 128,-1,12
 490 501 490 501 518 471 c 128,-1,13
 546 441 546 441 559.5 401.5 c 128,-1,14
 573 362 573 362 573 317 c 0,15,16
 573 256 573 256 549.5 197 c 128,-1,17
 526 138 526 138 481.5 92 c 128,-1,18
 437 46 437 46 374 18 c 128,-1,19
 311 -10 311 -10 232 -10 c 0,0,1
266 150 m 0,20,21
 288 150 288 150 308 161 c 128,-1,22
 328 172 328 172 343 191 c 128,-1,23
 358 210 358 210 366.5 236.5 c 128,-1,24
 375 263 375 263 375 294 c 0,25,26
 375 332 375 332 359 354 c 128,-1,27
 343 376 343 376 314 376 c 0,28,29
 292 376 292 376 272 365 c 128,-1,30
 252 354 252 354 237 335 c 128,-1,31
 222 316 222 316 213.5 289.5 c 128,-1,32
 205 263 205 263 205 232 c 0,33,34
 205 194 205 194 221 172 c 128,-1,35
 237 150 237 150 266 150 c 0,20,21
426 572 m 0,36,37
 404 572 404 572 389 579.5 c 128,-1,38
 374 587 374 587 361.5 596 c 128,-1,39
 349 605 349 605 336.5 612.5 c 128,-1,40
 324 620 324 620 308 620 c 256,41,42
 292 620 292 620 281.5 613 c 128,-1,43
 271 606 271 606 265 597 c 128,-1,44
 259 588 259 588 257 580.5 c 128,-1,45
 255 573 255 573 255 572 c 2,46,-1
 154 572 l 1,47,48
 157 585 157 585 170 611.5 c 128,-1,49
 183 638 183 638 205 664 c 128,-1,50
 227 690 227 690 257 710 c 128,-1,51
 287 730 287 730 323 730 c 0,52,53
 347 730 347 730 362 722 c 128,-1,54
 377 714 377 714 389.5 704.5 c 128,-1,55
 402 695 402 695 413.5 687 c 128,-1,56
 425 679 425 679 441 679 c 0,57,58
 456 679 456 679 467 686.5 c 128,-1,59
 478 694 478 694 485 703.5 c 128,-1,60
 492 713 492 713 495.5 721 c 128,-1,61
 499 729 499 729 499 730 c 2,62,-1
 599 730 l 1,63,64
 597 721 597 721 583.5 695.5 c 128,-1,65
 570 670 570 670 547.5 642.5 c 128,-1,66
 525 615 525 615 494 593.5 c 128,-1,67
 463 572 463 572 426 572 c 0,36,37
EndSplineSet
EndChar

StartChar: odieresis
Encoding: 246 246 185
Width: 596
GlyphClass: 2
Flags: W
LayerCount: 2
Fore
SplineSet
174 580 m 1,0,-1
 204 720 l 1,1,-1
 360 720 l 1,2,-1
 330 580 l 1,3,-1
 174 580 l 1,0,-1
399 580 m 1,4,-1
 429 720 l 1,5,-1
 584 720 l 1,6,-1
 555 580 l 1,7,-1
 399 580 l 1,4,-1
232 -10 m 0,8,9
 175 -10 175 -10 132.5 7.5 c 128,-1,10
 90 25 90 25 62 55 c 128,-1,11
 34 85 34 85 20.5 125 c 128,-1,12
 7 165 7 165 7 209 c 0,13,14
 7 270 7 270 30.5 329 c 128,-1,15
 54 388 54 388 98 434 c 128,-1,16
 142 480 142 480 205 508 c 128,-1,17
 268 536 268 536 348 536 c 0,18,19
 405 536 405 536 447.5 518.5 c 128,-1,20
 490 501 490 501 518 471 c 128,-1,21
 546 441 546 441 559.5 401.5 c 128,-1,22
 573 362 573 362 573 317 c 0,23,24
 573 256 573 256 549.5 197 c 128,-1,25
 526 138 526 138 481.5 92 c 128,-1,26
 437 46 437 46 374 18 c 128,-1,27
 311 -10 311 -10 232 -10 c 0,8,9
266 150 m 0,28,29
 288 150 288 150 308 161 c 128,-1,30
 328 172 328 172 343 191 c 128,-1,31
 358 210 358 210 366.5 236.5 c 128,-1,32
 375 263 375 263 375 294 c 0,33,34
 375 332 375 332 359 354 c 128,-1,35
 343 376 343 376 314 376 c 0,36,37
 292 376 292 376 272 365 c 128,-1,38
 252 354 252 354 237 335 c 128,-1,39
 222 316 222 316 213.5 289.5 c 128,-1,40
 205 263 205 263 205 232 c 0,41,42
 205 194 205 194 221 172 c 128,-1,43
 237 150 237 150 266 150 c 0,28,29
EndSplineSet
EndChar

StartChar: divide
Encoding: 247 247 186
Width: 505
GlyphClass: 2
Flags: W
LayerCount: 2
Fore
SplineSet
176 435 m 1,0,-1
 176 595 l 1,1,-1
 335 595 l 1,2,-1
 335 435 l 1,3,-1
 176 435 l 1,0,-1
176 27 m 1,4,-1
 176 187 l 1,5,-1
 335 187 l 1,6,-1
 335 27 l 1,7,-1
 176 27 l 1,4,-1
53 235 m 1,8,-1
 53 385 l 1,9,-1
 457 385 l 1,10,-1
 457 235 l 1,11,-1
 53 235 l 1,8,-1
EndSplineSet
EndChar

StartChar: oslash
Encoding: 248 248 187
Width: 596
GlyphClass: 2
Flags: W
LayerCount: 2
Fore
SplineSet
42 80 m 1,0,1
 24 108 24 108 15.5 140.5 c 128,-1,2
 7 173 7 173 7 209 c 0,3,4
 7 270 7 270 30.5 329 c 128,-1,5
 54 388 54 388 98.5 434 c 128,-1,6
 143 480 143 480 206 508 c 128,-1,7
 269 536 269 536 348 536 c 0,8,9
 391 536 391 536 425.5 526 c 128,-1,10
 460 516 460 516 486 498 c 1,11,-1
 523 532 l 1,12,-1
 624 532 l 1,13,-1
 534 450 l 1,14,15
 573 394 573 394 573 317 c 0,16,17
 573 256 573 256 549.5 197 c 128,-1,18
 526 138 526 138 481.5 92 c 128,-1,19
 437 46 437 46 374 18 c 128,-1,20
 311 -10 311 -10 232 -10 c 0,21,22
 142 -10 142 -10 88 32 c 1,23,-1
 47 -6 l 1,24,-1
 -52 -6 l 1,25,-1
 42 80 l 1,0,1
266 150 m 0,26,27
 288 150 288 150 308 161 c 128,-1,28
 328 172 328 172 343 191 c 128,-1,29
 358 210 358 210 367 236.5 c 128,-1,30
 376 263 376 263 376 294 c 0,31,32
 376 297 376 297 376 300.5 c 128,-1,33
 376 304 376 304 375 307 c 2,34,-1
 226 165 l 1,35,36
 241 150 241 150 266 150 c 0,26,27
205 227 m 1,37,-1
 349 364 l 1,38,39
 334 376 334 376 314 376 c 0,40,41
 292 376 292 376 272 365 c 128,-1,42
 252 354 252 354 237 335 c 128,-1,43
 222 316 222 316 213.5 289.5 c 128,-1,44
 205 263 205 263 205 232 c 2,45,-1
 205 227 l 1,37,-1
EndSplineSet
EndChar

StartChar: ugrave
Encoding: 249 249 188
Width: 618
GlyphClass: 2
Flags: W
LayerCount: 2
Fore
SplineSet
132 -10 m 0,0,1
 72 -10 72 -10 40.5 21.5 c 128,-1,2
 9 53 9 53 9 114 c 0,3,4
 9 142 9 142 17 180 c 2,5,-1
 91 526 l 1,6,-1
 280 526 l 1,7,-1
 216 223 l 2,8,9
 213 208 213 208 213 196 c 0,10,11
 213 150 213 150 251 150 c 0,12,13
 268 150 268 150 290 160 c 128,-1,14
 312 170 312 170 341 204 c 1,15,-1
 410 526 l 1,16,-1
 600 526 l 1,17,-1
 533 210 l 2,18,19
 530 195 530 195 530 186 c 0,20,21
 530 161 530 161 557 160 c 1,22,-1
 523 0 l 1,23,24
 473 -10 473 -10 441 -10 c 0,25,26
 398 -10 398 -10 370.5 6.5 c 128,-1,27
 343 23 343 23 343 63 c 0,28,29
 343 68 343 68 343.5 72.5 c 128,-1,30
 344 77 344 77 345 82 c 1,31,32
 300 33 300 33 247.5 11.5 c 128,-1,33
 195 -10 195 -10 132 -10 c 0,0,1
254 730 m 1,34,-1
 422 730 l 1,35,-1
 439 588 l 1,36,-1
 307 574 l 1,37,-1
 254 730 l 1,34,-1
EndSplineSet
EndChar

StartChar: uacute
Encoding: 250 250 189
Width: 618
GlyphClass: 2
Flags: W
LayerCount: 2
Fore
SplineSet
398 576 m 1,0,-1
 270 588 l 1,1,-1
 347 730 l 1,2,-1
 515 730 l 1,3,-1
 398 576 l 1,0,-1
132 -10 m 0,4,5
 72 -10 72 -10 40.5 21.5 c 128,-1,6
 9 53 9 53 9 114 c 0,7,8
 9 142 9 142 17 180 c 2,9,-1
 91 526 l 1,10,-1
 280 526 l 1,11,-1
 216 223 l 2,12,13
 213 208 213 208 213 196 c 0,14,15
 213 150 213 150 251 150 c 0,16,17
 268 150 268 150 290 160 c 128,-1,18
 312 170 312 170 341 204 c 1,19,-1
 410 526 l 1,20,-1
 600 526 l 1,21,-1
 533 210 l 2,22,23
 530 195 530 195 530 186 c 0,24,25
 530 161 530 161 557 160 c 1,26,-1
 523 0 l 1,27,28
 473 -10 473 -10 441 -10 c 0,29,30
 398 -10 398 -10 370.5 6.5 c 128,-1,31
 343 23 343 23 343 63 c 0,32,33
 343 68 343 68 343.5 72.5 c 128,-1,34
 344 77 344 77 345 82 c 1,35,36
 300 33 300 33 247.5 11.5 c 128,-1,37
 195 -10 195 -10 132 -10 c 0,4,5
EndSplineSet
EndChar

StartChar: ucircumflex
Encoding: 251 251 190
Width: 618
GlyphClass: 2
Flags: W
LayerCount: 2
Fore
SplineSet
191 615 m 1,0,-1
 324 730 l 1,1,-1
 460 730 l 1,2,-1
 544 615 l 1,3,-1
 439 573 l 1,4,-1
 372 636 l 1,5,-1
 278 573 l 1,6,-1
 191 615 l 1,0,-1
132 -10 m 0,7,8
 72 -10 72 -10 40.5 21.5 c 128,-1,9
 9 53 9 53 9 114 c 0,10,11
 9 142 9 142 17 180 c 2,12,-1
 91 526 l 1,13,-1
 280 526 l 1,14,-1
 216 223 l 2,15,16
 213 208 213 208 213 196 c 0,17,18
 213 150 213 150 251 150 c 0,19,20
 268 150 268 150 290 160 c 128,-1,21
 312 170 312 170 341 204 c 1,22,-1
 410 526 l 1,23,-1
 600 526 l 1,24,-1
 533 210 l 2,25,26
 530 195 530 195 530 186 c 0,27,28
 530 161 530 161 557 160 c 1,29,-1
 523 0 l 1,30,31
 473 -10 473 -10 441 -10 c 0,32,33
 398 -10 398 -10 370.5 6.5 c 128,-1,34
 343 23 343 23 343 63 c 0,35,36
 343 68 343 68 343.5 72.5 c 128,-1,37
 344 77 344 77 345 82 c 1,38,39
 300 33 300 33 247.5 11.5 c 128,-1,40
 195 -10 195 -10 132 -10 c 0,7,8
EndSplineSet
EndChar

StartChar: udieresis
Encoding: 252 252 191
Width: 618
GlyphClass: 2
Flags: W
LayerCount: 2
Fore
SplineSet
160 580 m 1,0,-1
 190 720 l 1,1,-1
 346 720 l 1,2,-1
 316 580 l 1,3,-1
 160 580 l 1,0,-1
385 580 m 1,4,-1
 415 720 l 1,5,-1
 570 720 l 1,6,-1
 541 580 l 1,7,-1
 385 580 l 1,4,-1
132 -10 m 0,8,9
 72 -10 72 -10 40.5 21.5 c 128,-1,10
 9 53 9 53 9 114 c 0,11,12
 9 142 9 142 17 180 c 2,13,-1
 91 526 l 1,14,-1
 280 526 l 1,15,-1
 216 223 l 2,16,17
 213 208 213 208 213 196 c 0,18,19
 213 150 213 150 251 150 c 0,20,21
 268 150 268 150 290 160 c 128,-1,22
 312 170 312 170 341 204 c 1,23,-1
 410 526 l 1,24,-1
 600 526 l 1,25,-1
 533 210 l 2,26,27
 530 195 530 195 530 186 c 0,28,29
 530 161 530 161 557 160 c 1,30,-1
 523 0 l 1,31,32
 473 -10 473 -10 441 -10 c 0,33,34
 398 -10 398 -10 370.5 6.5 c 128,-1,35
 343 23 343 23 343 63 c 0,36,37
 343 68 343 68 343.5 72.5 c 128,-1,38
 344 77 344 77 345 82 c 1,39,40
 300 33 300 33 247.5 11.5 c 128,-1,41
 195 -10 195 -10 132 -10 c 0,8,9
EndSplineSet
EndChar

StartChar: yacute
Encoding: 253 253 192
Width: 543
GlyphClass: 2
Flags: W
LayerCount: 2
Fore
SplineSet
-56 -93 m 1,0,1
 -28 -93 -28 -93 -7.5 -91 c 128,-1,2
 13 -89 13 -89 29 -83.5 c 128,-1,3
 45 -78 45 -78 57.5 -69 c 128,-1,4
 70 -60 70 -60 82 -45 c 2,5,-1
 111 -11 l 1,6,-1
 42 526 l 1,7,-1
 235 526 l 1,8,-1
 247 161 l 1,9,-1
 281 217 l 2,10,11
 317 277 317 277 346.5 356 c 128,-1,12
 376 435 376 435 393 526 c 1,13,-1
 575 526 l 1,14,15
 561 478 561 478 546 435.5 c 128,-1,16
 531 393 531 393 508 346 c 128,-1,17
 485 299 485 299 451.5 241 c 128,-1,18
 418 183 418 183 369 103 c 2,19,-1
 289 -26 l 2,20,21
 253 -84 253 -84 217.5 -123.5 c 128,-1,22
 182 -163 182 -163 143.5 -187.5 c 128,-1,23
 105 -212 105 -212 61.5 -223 c 128,-1,24
 18 -234 18 -234 -34 -234 c 1,25,-1
 -56 -93 l 1,0,1
372 576 m 1,26,-1
 244 588 l 1,27,-1
 321 730 l 1,28,-1
 489 730 l 1,29,-1
 372 576 l 1,26,-1
EndSplineSet
EndChar

StartChar: thorn
Encoding: 254 254 193
Width: 575
GlyphClass: 2
Flags: W
LayerCount: 2
Fore
SplineSet
134 710 m 1,0,-1
 329 710 l 1,1,-1
 290 525 l 1,2,3
 303 544 303 544 354 544 c 0,4,5
 404 544 404 544 441.5 525.5 c 128,-1,6
 479 507 479 507 504 476 c 128,-1,7
 529 445 529 445 541.5 405 c 128,-1,8
 554 365 554 365 554 323 c 0,9,10
 554 263 554 263 530.5 200.5 c 128,-1,11
 507 138 507 138 465 86.5 c 128,-1,12
 423 35 423 35 364 2 c 128,-1,13
 305 -31 305 -31 234 -31 c 0,14,15
 207 -31 207 -31 193.5 -26.5 c 128,-1,16
 180 -22 180 -22 175 -14 c 1,17,-1
 133 -213 l 1,18,-1
 -62 -213 l 1,19,-1
 134 710 l 1,0,-1
262 139 m 256,20,21
 287 139 287 139 306.5 153.5 c 128,-1,22
 326 168 326 168 339.5 192 c 128,-1,23
 353 216 353 216 360.5 246 c 128,-1,24
 368 276 368 276 368 307 c 0,25,26
 368 342 368 342 354.5 358 c 128,-1,27
 341 374 341 374 319 374 c 0,28,29
 299 374 299 374 281 361.5 c 128,-1,30
 263 349 263 349 248 327 c 1,31,-1
 215 174 l 2,32,33
 215 162 215 162 226 150.5 c 128,-1,34
 237 139 237 139 262 139 c 256,20,21
EndSplineSet
EndChar

StartChar: ydieresis
Encoding: 255 255 194
Width: 543
GlyphClass: 2
Flags: W
LayerCount: 2
Fore
SplineSet
-56 -93 m 1,0,1
 -28 -93 -28 -93 -7.5 -91 c 128,-1,2
 13 -89 13 -89 29 -83.5 c 128,-1,3
 45 -78 45 -78 57.5 -69 c 128,-1,4
 70 -60 70 -60 82 -45 c 2,5,-1
 111 -11 l 1,6,-1
 42 526 l 1,7,-1
 235 526 l 1,8,-1
 247 161 l 1,9,-1
 281 217 l 2,10,11
 317 277 317 277 346.5 356 c 128,-1,12
 376 435 376 435 393 526 c 1,13,-1
 575 526 l 1,14,15
 561 478 561 478 546 435.5 c 128,-1,16
 531 393 531 393 508 346 c 128,-1,17
 485 299 485 299 451.5 241 c 128,-1,18
 418 183 418 183 369 103 c 2,19,-1
 289 -26 l 2,20,21
 253 -84 253 -84 217.5 -123.5 c 128,-1,22
 182 -163 182 -163 143.5 -187.5 c 128,-1,23
 105 -212 105 -212 61.5 -223 c 128,-1,24
 18 -234 18 -234 -34 -234 c 1,25,-1
 -56 -93 l 1,0,1
146 580 m 1,26,-1
 176 720 l 1,27,-1
 332 720 l 1,28,-1
 302 580 l 1,29,-1
 146 580 l 1,26,-1
371 580 m 1,30,-1
 401 720 l 1,31,-1
 556 720 l 1,32,-1
 527 580 l 1,33,-1
 371 580 l 1,30,-1
EndSplineSet
EndChar

StartChar: Amacron
Encoding: 256 256 195
Width: 636
GlyphClass: 2
Flags: W
LayerCount: 2
Fore
SplineSet
320 710 m 1,0,-1
 499 710 l 1,1,-1
 578 0 l 1,2,-1
 380 0 l 1,3,-1
 373 139 l 1,4,-1
 203 139 l 1,5,-1
 138 0 l 1,6,-1
 -61 0 l 1,7,-1
 320 710 l 1,0,-1
370 269 m 1,8,-1
 362 489 l 1,9,-1
 259 269 l 1,10,-1
 370 269 l 1,8,-1
275 793 m 1,11,-1
 299 906 l 1,12,-1
 595 906 l 1,13,-1
 571 793 l 1,14,-1
 275 793 l 1,11,-1
EndSplineSet
EndChar

StartChar: amacron
Encoding: 257 257 196
Width: 646
GlyphClass: 2
Flags: W
LayerCount: 2
Fore
SplineSet
193 -10 m 0,0,1
 149 -10 149 -10 114.5 5.5 c 128,-1,2
 80 21 80 21 56 49 c 128,-1,3
 32 77 32 77 19.5 116 c 128,-1,4
 7 155 7 155 7 202 c 0,5,6
 7 270 7 270 30 330.5 c 128,-1,7
 53 391 53 391 92 437 c 128,-1,8
 131 483 131 483 182.5 509.5 c 128,-1,9
 234 536 234 536 291 536 c 0,10,11
 339 536 339 536 373.5 513 c 128,-1,12
 408 490 408 490 420 448 c 1,13,-1
 436 522 l 1,14,-1
 627 522 l 1,15,-1
 560 210 l 2,16,17
 557 195 557 195 557 186 c 0,18,19
 557 161 557 161 584 160 c 1,20,-1
 550 0 l 1,21,22
 500 -10 500 -10 469 -10 c 0,23,24
 424 -10 424 -10 398 7 c 128,-1,25
 372 24 372 24 372 67 c 0,26,27
 372 77 372 77 373 82 c 1,28,29
 337 34 337 34 289.5 12 c 128,-1,30
 242 -10 242 -10 193 -10 c 0,0,1
279 150 m 0,31,32
 303 150 303 150 324 163.5 c 128,-1,33
 345 177 345 177 370 204 c 1,34,-1
 390 298 l 1,35,36
 385 333 385 333 365.5 354.5 c 128,-1,37
 346 376 346 376 319 376 c 0,38,39
 298 376 298 376 278 364 c 128,-1,40
 258 352 258 352 242 332.5 c 128,-1,41
 226 313 226 313 216.5 287 c 128,-1,42
 207 261 207 261 207 233 c 0,43,44
 207 195 207 195 225.5 172.5 c 128,-1,45
 244 150 244 150 279 150 c 0,31,32
178 607 m 1,46,-1
 202 720 l 1,47,-1
 498 720 l 1,48,-1
 474 607 l 1,49,-1
 178 607 l 1,46,-1
EndSplineSet
EndChar

StartChar: Abreve
Encoding: 258 258 197
Width: 636
GlyphClass: 2
Flags: W
LayerCount: 2
Fore
SplineSet
320 710 m 1,0,-1
 499 710 l 1,1,-1
 578 0 l 1,2,-1
 380 0 l 1,3,-1
 373 139 l 1,4,-1
 203 139 l 1,5,-1
 138 0 l 1,6,-1
 -61 0 l 1,7,-1
 320 710 l 1,0,-1
370 269 m 1,8,-1
 362 489 l 1,9,-1
 259 269 l 1,10,-1
 370 269 l 1,8,-1
423 835 m 0,11,12
 445 835 445 835 466 858 c 128,-1,13
 487 881 487 881 498 916 c 1,14,-1
 596 916 l 1,15,16
 588 880 588 880 570.5 850.5 c 128,-1,17
 553 821 553 821 528 799.5 c 128,-1,18
 503 778 503 778 471.5 766 c 128,-1,19
 440 754 440 754 406 754 c 0,20,21
 346 754 346 754 312.5 787 c 128,-1,22
 279 820 279 820 279 875 c 0,23,24
 279 893 279 893 284 916 c 1,25,-1
 382 916 l 1,26,27
 379 904 379 904 379 893 c 0,28,29
 379 868 379 868 391 851.5 c 128,-1,30
 403 835 403 835 423 835 c 0,11,12
EndSplineSet
EndChar

StartChar: abreve
Encoding: 259 259 198
Width: 646
GlyphClass: 2
Flags: W
LayerCount: 2
Fore
SplineSet
193 -10 m 0,0,1
 149 -10 149 -10 114.5 5.5 c 128,-1,2
 80 21 80 21 56 49 c 128,-1,3
 32 77 32 77 19.5 116 c 128,-1,4
 7 155 7 155 7 202 c 0,5,6
 7 270 7 270 30 330.5 c 128,-1,7
 53 391 53 391 92 437 c 128,-1,8
 131 483 131 483 182.5 509.5 c 128,-1,9
 234 536 234 536 291 536 c 0,10,11
 339 536 339 536 373.5 513 c 128,-1,12
 408 490 408 490 420 448 c 1,13,-1
 436 522 l 1,14,-1
 627 522 l 1,15,-1
 560 210 l 2,16,17
 557 195 557 195 557 186 c 0,18,19
 557 161 557 161 584 160 c 1,20,-1
 550 0 l 1,21,22
 500 -10 500 -10 469 -10 c 0,23,24
 424 -10 424 -10 398 7 c 128,-1,25
 372 24 372 24 372 67 c 0,26,27
 372 77 372 77 373 82 c 1,28,29
 337 34 337 34 289.5 12 c 128,-1,30
 242 -10 242 -10 193 -10 c 0,0,1
279 150 m 0,31,32
 303 150 303 150 324 163.5 c 128,-1,33
 345 177 345 177 370 204 c 1,34,-1
 390 298 l 1,35,36
 385 333 385 333 365.5 354.5 c 128,-1,37
 346 376 346 376 319 376 c 0,38,39
 298 376 298 376 278 364 c 128,-1,40
 258 352 258 352 242 332.5 c 128,-1,41
 226 313 226 313 216.5 287 c 128,-1,42
 207 261 207 261 207 233 c 0,43,44
 207 195 207 195 225.5 172.5 c 128,-1,45
 244 150 244 150 279 150 c 0,31,32
328 649 m 0,46,47
 350 649 350 649 371 672 c 128,-1,48
 392 695 392 695 403 730 c 1,49,-1
 501 730 l 1,50,51
 493 694 493 694 475.5 664.5 c 128,-1,52
 458 635 458 635 433 613.5 c 128,-1,53
 408 592 408 592 376.5 580 c 128,-1,54
 345 568 345 568 311 568 c 0,55,56
 251 568 251 568 217.5 601 c 128,-1,57
 184 634 184 634 184 689 c 0,58,59
 184 707 184 707 189 730 c 1,60,-1
 287 730 l 1,61,62
 284 718 284 718 284 707 c 0,63,64
 284 682 284 682 296 665.5 c 128,-1,65
 308 649 308 649 328 649 c 0,46,47
EndSplineSet
EndChar

StartChar: Aogonek
Encoding: 260 260 199
Width: 636
GlyphClass: 2
Flags: W
LayerCount: 2
Fore
SplineSet
498 -215 m 1,0,1
 430 -207 430 -207 398.5 -182.5 c 128,-1,2
 367 -158 367 -158 367 -126 c 0,3,4
 367 -95 367 -95 394.5 -62 c 128,-1,5
 422 -29 422 -29 476 0 c 1,6,-1
 380 0 l 1,7,-1
 373 139 l 1,8,-1
 203 139 l 1,9,-1
 138 0 l 1,10,-1
 -61 0 l 1,11,-1
 320 710 l 1,12,-1
 499 710 l 1,13,-1
 578 0 l 1,14,15
 538 -23 538 -23 515.5 -44 c 128,-1,16
 493 -65 493 -65 493 -83 c 0,17,18
 493 -97 493 -97 507.5 -106 c 128,-1,19
 522 -115 522 -115 554 -115 c 1,20,-1
 498 -215 l 1,0,1
370 269 m 1,21,-1
 362 489 l 1,22,-1
 259 269 l 1,23,-1
 370 269 l 1,21,-1
EndSplineSet
EndChar

StartChar: aogonek
Encoding: 261 261 200
Width: 646
GlyphClass: 2
Flags: W
LayerCount: 2
Fore
SplineSet
470 -215 m 1,0,1
 402 -207 402 -207 370.5 -182.5 c 128,-1,2
 339 -158 339 -158 339 -126 c 0,3,4
 339 -97 339 -97 363 -66 c 128,-1,5
 387 -35 387 -35 434 -7 c 1,6,7
 405 -2 405 -2 388.5 15.5 c 128,-1,8
 372 33 372 33 372 67 c 0,9,10
 372 77 372 77 373 82 c 1,11,12
 337 34 337 34 289.5 12 c 128,-1,13
 242 -10 242 -10 193 -10 c 0,14,15
 149 -10 149 -10 114.5 5.5 c 128,-1,16
 80 21 80 21 56 49 c 128,-1,17
 32 77 32 77 19.5 116 c 128,-1,18
 7 155 7 155 7 202 c 0,19,20
 7 270 7 270 30 330.5 c 128,-1,21
 53 391 53 391 92 437 c 128,-1,22
 131 483 131 483 182.5 509.5 c 128,-1,23
 234 536 234 536 291 536 c 0,24,25
 339 536 339 536 373.5 513 c 128,-1,26
 408 490 408 490 420 448 c 1,27,-1
 436 522 l 1,28,-1
 627 522 l 1,29,-1
 560 210 l 2,30,31
 557 195 557 195 557 186 c 0,32,33
 557 161 557 161 584 160 c 1,34,-1
 550 0 l 1,35,36
 510 -23 510 -23 487.5 -44 c 128,-1,37
 465 -65 465 -65 465 -83 c 0,38,39
 465 -97 465 -97 479.5 -106 c 128,-1,40
 494 -115 494 -115 526 -115 c 1,41,-1
 470 -215 l 1,0,1
279 150 m 0,42,43
 303 150 303 150 324 163.5 c 128,-1,44
 345 177 345 177 370 204 c 1,45,-1
 390 298 l 1,46,47
 385 333 385 333 365.5 354.5 c 128,-1,48
 346 376 346 376 319 376 c 0,49,50
 298 376 298 376 278 364 c 128,-1,51
 258 352 258 352 242 332.5 c 128,-1,52
 226 313 226 313 216.5 287 c 128,-1,53
 207 261 207 261 207 233 c 0,54,55
 207 195 207 195 225.5 172.5 c 128,-1,56
 244 150 244 150 279 150 c 0,42,43
EndSplineSet
EndChar

StartChar: Cacute
Encoding: 262 262 201
Width: 664
GlyphClass: 2
Flags: W
LayerCount: 2
Fore
SplineSet
531 762 m 1,0,-1
 403 774 l 1,1,-1
 480 916 l 1,2,-1
 648 916 l 1,3,-1
 531 762 l 1,0,-1
299 -6 m 0,4,5
 234 -6 234 -6 184 19.5 c 128,-1,6
 134 45 134 45 99 87.5 c 128,-1,7
 64 130 64 130 46 184.5 c 128,-1,8
 28 239 28 239 28 298 c 0,9,10
 28 372 28 372 60.5 446 c 128,-1,11
 93 520 93 520 150.5 579.5 c 128,-1,12
 208 639 208 639 286.5 676.5 c 128,-1,13
 365 714 365 714 458 714 c 0,14,15
 556 714 556 714 620 671.5 c 128,-1,16
 684 629 684 629 704 559 c 1,17,-1
 533 453 l 1,18,19
 529 479 529 479 517.5 496 c 128,-1,20
 506 513 506 513 489.5 523 c 128,-1,21
 473 533 473 533 454 537 c 128,-1,22
 435 541 435 541 417 541 c 0,23,24
 371 541 371 541 335.5 519 c 128,-1,25
 300 497 300 497 276 463 c 128,-1,26
 252 429 252 429 239.5 388.5 c 128,-1,27
 227 348 227 348 227 311 c 0,28,29
 227 282 227 282 234 255.5 c 128,-1,30
 241 229 241 229 255 209.5 c 128,-1,31
 269 190 269 190 290 178.5 c 128,-1,32
 311 167 311 167 340 167 c 0,33,34
 358 167 358 167 378.5 171.5 c 128,-1,35
 399 176 399 176 418.5 186.5 c 128,-1,36
 438 197 438 197 455.5 213.5 c 128,-1,37
 473 230 473 230 486 254 c 1,38,-1
 625 159 l 1,39,40
 602 120 602 120 564.5 89 c 128,-1,41
 527 58 527 58 482.5 37 c 128,-1,42
 438 16 438 16 390 5 c 128,-1,43
 342 -6 342 -6 299 -6 c 0,4,5
EndSplineSet
EndChar

StartChar: cacute
Encoding: 263 263 202
Width: 555
GlyphClass: 2
Flags: W
LayerCount: 2
Fore
SplineSet
401 576 m 1,0,-1
 273 588 l 1,1,-1
 350 730 l 1,2,-1
 518 730 l 1,3,-1
 401 576 l 1,0,-1
232 -10 m 0,4,5
 175 -10 175 -10 132.5 8 c 128,-1,6
 90 26 90 26 62 56 c 128,-1,7
 34 86 34 86 20 126 c 128,-1,8
 6 166 6 166 6 211 c 0,9,10
 6 272 6 272 30 330.5 c 128,-1,11
 54 389 54 389 99 434.5 c 128,-1,12
 144 480 144 480 207 508 c 128,-1,13
 270 536 270 536 348 536 c 0,14,15
 441 536 441 536 494 496 c 128,-1,16
 547 456 547 456 565 393 c 1,17,-1
 368 337 l 1,18,19
 352 376 352 376 313 376 c 0,20,21
 292 376 292 376 272.5 365.5 c 128,-1,22
 253 355 253 355 237.5 336 c 128,-1,23
 222 317 222 317 213 290.5 c 128,-1,24
 204 264 204 264 204 232 c 0,25,26
 204 194 204 194 220.5 172 c 128,-1,27
 237 150 237 150 265 150 c 0,28,29
 303 150 303 150 336 189 c 1,30,-1
 509 133 l 1,31,32
 464 70 464 70 394 30 c 128,-1,33
 324 -10 324 -10 232 -10 c 0,4,5
EndSplineSet
EndChar

StartChar: Ccircumflex
Encoding: 264 264 203
Width: 664
GlyphClass: 2
Flags: W
LayerCount: 2
Fore
SplineSet
299 801 m 1,0,-1
 432 916 l 1,1,-1
 568 916 l 1,2,-1
 652 801 l 1,3,-1
 547 759 l 1,4,-1
 480 822 l 1,5,-1
 386 759 l 1,6,-1
 299 801 l 1,0,-1
299 -6 m 0,7,8
 234 -6 234 -6 184 19.5 c 128,-1,9
 134 45 134 45 99 87.5 c 128,-1,10
 64 130 64 130 46 184.5 c 128,-1,11
 28 239 28 239 28 298 c 0,12,13
 28 372 28 372 60.5 446 c 128,-1,14
 93 520 93 520 150.5 579.5 c 128,-1,15
 208 639 208 639 286.5 676.5 c 128,-1,16
 365 714 365 714 458 714 c 0,17,18
 556 714 556 714 620 671.5 c 128,-1,19
 684 629 684 629 704 559 c 1,20,-1
 533 453 l 1,21,22
 529 479 529 479 517.5 496 c 128,-1,23
 506 513 506 513 489.5 523 c 128,-1,24
 473 533 473 533 454 537 c 128,-1,25
 435 541 435 541 417 541 c 0,26,27
 371 541 371 541 335.5 519 c 128,-1,28
 300 497 300 497 276 463 c 128,-1,29
 252 429 252 429 239.5 388.5 c 128,-1,30
 227 348 227 348 227 311 c 0,31,32
 227 282 227 282 234 255.5 c 128,-1,33
 241 229 241 229 255 209.5 c 128,-1,34
 269 190 269 190 290 178.5 c 128,-1,35
 311 167 311 167 340 167 c 0,36,37
 358 167 358 167 378.5 171.5 c 128,-1,38
 399 176 399 176 418.5 186.5 c 128,-1,39
 438 197 438 197 455.5 213.5 c 128,-1,40
 473 230 473 230 486 254 c 1,41,-1
 625 159 l 1,42,43
 602 120 602 120 564.5 89 c 128,-1,44
 527 58 527 58 482.5 37 c 128,-1,45
 438 16 438 16 390 5 c 128,-1,46
 342 -6 342 -6 299 -6 c 0,7,8
EndSplineSet
EndChar

StartChar: ccircumflex
Encoding: 265 265 204
Width: 555
GlyphClass: 2
Flags: W
LayerCount: 2
Fore
SplineSet
195 615 m 1,0,-1
 328 730 l 1,1,-1
 464 730 l 1,2,-1
 548 615 l 1,3,-1
 443 573 l 1,4,-1
 376 636 l 1,5,-1
 282 573 l 1,6,-1
 195 615 l 1,0,-1
232 -10 m 0,7,8
 175 -10 175 -10 132.5 8 c 128,-1,9
 90 26 90 26 62 56 c 128,-1,10
 34 86 34 86 20 126 c 128,-1,11
 6 166 6 166 6 211 c 0,12,13
 6 272 6 272 30 330.5 c 128,-1,14
 54 389 54 389 99 434.5 c 128,-1,15
 144 480 144 480 207 508 c 128,-1,16
 270 536 270 536 348 536 c 0,17,18
 441 536 441 536 494 496 c 128,-1,19
 547 456 547 456 565 393 c 1,20,-1
 368 337 l 1,21,22
 352 376 352 376 313 376 c 0,23,24
 292 376 292 376 272.5 365.5 c 128,-1,25
 253 355 253 355 237.5 336 c 128,-1,26
 222 317 222 317 213 290.5 c 128,-1,27
 204 264 204 264 204 232 c 0,28,29
 204 194 204 194 220.5 172 c 128,-1,30
 237 150 237 150 265 150 c 0,31,32
 303 150 303 150 336 189 c 1,33,-1
 509 133 l 1,34,35
 464 70 464 70 394 30 c 128,-1,36
 324 -10 324 -10 232 -10 c 0,7,8
EndSplineSet
EndChar

StartChar: Cdotaccent
Encoding: 266 266 205
Width: 664
GlyphClass: 2
Flags: W
LayerCount: 2
Fore
SplineSet
299 -6 m 0,0,1
 234 -6 234 -6 184 19.5 c 128,-1,2
 134 45 134 45 99 87.5 c 128,-1,3
 64 130 64 130 46 184.5 c 128,-1,4
 28 239 28 239 28 298 c 0,5,6
 28 372 28 372 60.5 446 c 128,-1,7
 93 520 93 520 150.5 579.5 c 128,-1,8
 208 639 208 639 286.5 676.5 c 128,-1,9
 365 714 365 714 458 714 c 0,10,11
 556 714 556 714 620 671.5 c 128,-1,12
 684 629 684 629 704 559 c 1,13,-1
 533 453 l 1,14,15
 529 479 529 479 517.5 496 c 128,-1,16
 506 513 506 513 489.5 523 c 128,-1,17
 473 533 473 533 454 537 c 128,-1,18
 435 541 435 541 417 541 c 0,19,20
 371 541 371 541 335.5 519 c 128,-1,21
 300 497 300 497 276 463 c 128,-1,22
 252 429 252 429 239.5 388.5 c 128,-1,23
 227 348 227 348 227 311 c 0,24,25
 227 282 227 282 234 255.5 c 128,-1,26
 241 229 241 229 255 209.5 c 128,-1,27
 269 190 269 190 290 178.5 c 128,-1,28
 311 167 311 167 340 167 c 0,29,30
 358 167 358 167 378.5 171.5 c 128,-1,31
 399 176 399 176 418.5 186.5 c 128,-1,32
 438 197 438 197 455.5 213.5 c 128,-1,33
 473 230 473 230 486 254 c 1,34,-1
 625 159 l 1,35,36
 602 120 602 120 564.5 89 c 128,-1,37
 527 58 527 58 482.5 37 c 128,-1,38
 438 16 438 16 390 5 c 128,-1,39
 342 -6 342 -6 299 -6 c 0,0,1
385 766 m 1,40,-1
 417 916 l 1,41,-1
 587 916 l 1,42,-1
 555 766 l 1,43,-1
 385 766 l 1,40,-1
EndSplineSet
EndChar

StartChar: cdotaccent
Encoding: 267 267 206
Width: 555
GlyphClass: 2
Flags: W
LayerCount: 2
Fore
SplineSet
232 -10 m 0,0,1
 175 -10 175 -10 132.5 8 c 128,-1,2
 90 26 90 26 62 56 c 128,-1,3
 34 86 34 86 20 126 c 128,-1,4
 6 166 6 166 6 211 c 0,5,6
 6 272 6 272 30 330.5 c 128,-1,7
 54 389 54 389 99 434.5 c 128,-1,8
 144 480 144 480 207 508 c 128,-1,9
 270 536 270 536 348 536 c 0,10,11
 441 536 441 536 494 496 c 128,-1,12
 547 456 547 456 565 393 c 1,13,-1
 368 337 l 1,14,15
 352 376 352 376 313 376 c 0,16,17
 292 376 292 376 272.5 365.5 c 128,-1,18
 253 355 253 355 237.5 336 c 128,-1,19
 222 317 222 317 213 290.5 c 128,-1,20
 204 264 204 264 204 232 c 0,21,22
 204 194 204 194 220.5 172 c 128,-1,23
 237 150 237 150 265 150 c 0,24,25
 303 150 303 150 336 189 c 1,26,-1
 509 133 l 1,27,28
 464 70 464 70 394 30 c 128,-1,29
 324 -10 324 -10 232 -10 c 0,0,1
272 580 m 1,30,-1
 304 730 l 1,31,-1
 474 730 l 1,32,-1
 442 580 l 1,33,-1
 272 580 l 1,30,-1
EndSplineSet
EndChar

StartChar: Ccaron
Encoding: 268 268 207
Width: 664
GlyphClass: 2
Flags: W
LayerCount: 2
Fore
SplineSet
311 874 m 1,0,-1
 416 916 l 1,1,-1
 483 853 l 1,2,-1
 577 916 l 1,3,-1
 664 874 l 1,4,-1
 531 759 l 1,5,-1
 395 759 l 1,6,-1
 311 874 l 1,0,-1
299 -6 m 0,7,8
 234 -6 234 -6 184 19.5 c 128,-1,9
 134 45 134 45 99 87.5 c 128,-1,10
 64 130 64 130 46 184.5 c 128,-1,11
 28 239 28 239 28 298 c 0,12,13
 28 372 28 372 60.5 446 c 128,-1,14
 93 520 93 520 150.5 579.5 c 128,-1,15
 208 639 208 639 286.5 676.5 c 128,-1,16
 365 714 365 714 458 714 c 0,17,18
 556 714 556 714 620 671.5 c 128,-1,19
 684 629 684 629 704 559 c 1,20,-1
 533 453 l 1,21,22
 529 479 529 479 517.5 496 c 128,-1,23
 506 513 506 513 489.5 523 c 128,-1,24
 473 533 473 533 454 537 c 128,-1,25
 435 541 435 541 417 541 c 0,26,27
 371 541 371 541 335.5 519 c 128,-1,28
 300 497 300 497 276 463 c 128,-1,29
 252 429 252 429 239.5 388.5 c 128,-1,30
 227 348 227 348 227 311 c 0,31,32
 227 282 227 282 234 255.5 c 128,-1,33
 241 229 241 229 255 209.5 c 128,-1,34
 269 190 269 190 290 178.5 c 128,-1,35
 311 167 311 167 340 167 c 0,36,37
 358 167 358 167 378.5 171.5 c 128,-1,38
 399 176 399 176 418.5 186.5 c 128,-1,39
 438 197 438 197 455.5 213.5 c 128,-1,40
 473 230 473 230 486 254 c 1,41,-1
 625 159 l 1,42,43
 602 120 602 120 564.5 89 c 128,-1,44
 527 58 527 58 482.5 37 c 128,-1,45
 438 16 438 16 390 5 c 128,-1,46
 342 -6 342 -6 299 -6 c 0,7,8
EndSplineSet
EndChar

StartChar: ccaron
Encoding: 269 269 208
Width: 555
GlyphClass: 2
Flags: W
LayerCount: 2
Fore
SplineSet
202 688 m 1,0,-1
 307 730 l 1,1,-1
 374 667 l 1,2,-1
 468 730 l 1,3,-1
 555 688 l 1,4,-1
 422 573 l 1,5,-1
 286 573 l 1,6,-1
 202 688 l 1,0,-1
232 -10 m 0,7,8
 175 -10 175 -10 132.5 8 c 128,-1,9
 90 26 90 26 62 56 c 128,-1,10
 34 86 34 86 20 126 c 128,-1,11
 6 166 6 166 6 211 c 0,12,13
 6 272 6 272 30 330.5 c 128,-1,14
 54 389 54 389 99 434.5 c 128,-1,15
 144 480 144 480 207 508 c 128,-1,16
 270 536 270 536 348 536 c 0,17,18
 441 536 441 536 494 496 c 128,-1,19
 547 456 547 456 565 393 c 1,20,-1
 368 337 l 1,21,22
 352 376 352 376 313 376 c 0,23,24
 292 376 292 376 272.5 365.5 c 128,-1,25
 253 355 253 355 237.5 336 c 128,-1,26
 222 317 222 317 213 290.5 c 128,-1,27
 204 264 204 264 204 232 c 0,28,29
 204 194 204 194 220.5 172 c 128,-1,30
 237 150 237 150 265 150 c 0,31,32
 303 150 303 150 336 189 c 1,33,-1
 509 133 l 1,34,35
 464 70 464 70 394 30 c 128,-1,36
 324 -10 324 -10 232 -10 c 0,7,8
EndSplineSet
EndChar

StartChar: Dcaron
Encoding: 270 270 209
Width: 693
GlyphClass: 2
Flags: W
LayerCount: 2
Fore
SplineSet
250 874 m 1,0,-1
 355 916 l 1,1,-1
 422 853 l 1,2,-1
 516 916 l 1,3,-1
 603 874 l 1,4,-1
 470 759 l 1,5,-1
 334 759 l 1,6,-1
 250 874 l 1,0,-1
148 710 m 1,7,-1
 410 710 l 2,8,9
 480 710 480 710 532 688.5 c 128,-1,10
 584 667 584 667 618.5 629.5 c 128,-1,11
 653 592 653 592 669.5 541.5 c 128,-1,12
 686 491 686 491 686 433 c 0,13,14
 686 339 686 339 653.5 259.5 c 128,-1,15
 621 180 621 180 563.5 122.5 c 128,-1,16
 506 65 506 65 428 32.5 c 128,-1,17
 350 0 350 0 259 0 c 2,18,-1
 -3 0 l 1,19,-1
 148 710 l 1,7,-1
295 170 m 2,20,21
 337 170 337 170 372 189 c 128,-1,22
 407 208 407 208 432 240.5 c 128,-1,23
 457 273 457 273 471 315.5 c 128,-1,24
 485 358 485 358 485 405 c 0,25,26
 485 466 485 466 456.5 503 c 128,-1,27
 428 540 428 540 374 540 c 2,28,-1
 307 540 l 1,29,-1
 228 170 l 1,30,-1
 295 170 l 2,20,21
EndSplineSet
EndChar

StartChar: dcaron
Encoding: 271 271 210
Width: 645
GlyphClass: 2
Flags: W
LayerCount: 2
Fore
SplineSet
680 588 m 1,0,-1
 757 730 l 1,1,-1
 925 730 l 1,2,-1
 793 556 l 1,3,-1
 680 588 l 1,0,-1
193 -10 m 0,4,5
 149 -10 149 -10 114.5 5.5 c 128,-1,6
 80 21 80 21 56 49 c 128,-1,7
 32 77 32 77 19.5 116 c 128,-1,8
 7 155 7 155 7 202 c 0,9,10
 7 270 7 270 30 330.5 c 128,-1,11
 53 391 53 391 92 437 c 128,-1,12
 131 483 131 483 182.5 509.5 c 128,-1,13
 234 536 234 536 291 536 c 0,14,15
 339 536 339 536 373.5 513 c 128,-1,16
 408 490 408 490 420 448 c 1,17,-1
 480 730 l 1,18,-1
 671 730 l 1,19,-1
 560 210 l 2,20,21
 557 195 557 195 557 186 c 0,22,23
 557 161 557 161 584 160 c 1,24,-1
 550 0 l 1,25,26
 500 -10 500 -10 469 -10 c 0,27,28
 426 -10 426 -10 398.5 6 c 128,-1,29
 371 22 371 22 371 62 c 0,30,31
 371 67 371 67 371.5 72 c 128,-1,32
 372 77 372 77 373 82 c 1,33,34
 337 34 337 34 289.5 12 c 128,-1,35
 242 -10 242 -10 193 -10 c 0,4,5
279 150 m 0,36,37
 303 150 303 150 324 163.5 c 128,-1,38
 345 177 345 177 370 204 c 1,39,-1
 390 298 l 1,40,41
 385 333 385 333 365.5 354.5 c 128,-1,42
 346 376 346 376 319 376 c 0,43,44
 298 376 298 376 278 364 c 128,-1,45
 258 352 258 352 242 332.5 c 128,-1,46
 226 313 226 313 216.5 287 c 128,-1,47
 207 261 207 261 207 233 c 0,48,49
 207 195 207 195 225.5 172.5 c 128,-1,50
 244 150 244 150 279 150 c 0,36,37
EndSplineSet
EndChar

StartChar: Dcroat
Encoding: 272 272 211
Width: 696
GlyphClass: 2
Flags: W
LayerCount: 2
Fore
SplineSet
57 427 m 1,0,-1
 91 427 l 1,1,-1
 151 710 l 1,2,-1
 413 710 l 2,3,4
 483 710 483 710 535 688.5 c 128,-1,5
 587 667 587 667 621.5 629.5 c 128,-1,6
 656 592 656 592 672.5 541.5 c 128,-1,7
 689 491 689 491 689 433 c 0,8,9
 689 339 689 339 656.5 259.5 c 128,-1,10
 624 180 624 180 566.5 122.5 c 128,-1,11
 509 65 509 65 431 32.5 c 128,-1,12
 353 0 353 0 262 0 c 2,13,-1
 0 0 l 1,14,-1
 61 287 l 1,15,-1
 28 287 l 1,16,-1
 57 427 l 1,0,-1
298 170 m 2,17,18
 340 170 340 170 375 189 c 128,-1,19
 410 208 410 208 435 240.5 c 128,-1,20
 460 273 460 273 474 315.5 c 128,-1,21
 488 358 488 358 488 405 c 0,22,23
 488 466 488 466 459.5 503 c 128,-1,24
 431 540 431 540 377 540 c 2,25,-1
 310 540 l 1,26,-1
 286 427 l 1,27,-1
 390 427 l 1,28,-1
 360 287 l 1,29,-1
 256 287 l 1,30,-1
 231 170 l 1,31,-1
 298 170 l 2,17,18
EndSplineSet
EndChar

StartChar: dcroat
Encoding: 273 273 212
Width: 645
GlyphClass: 2
Flags: W
LayerCount: 2
Fore
SplineSet
401 688 m 1,0,-1
 471 688 l 1,1,-1
 480 730 l 1,2,-1
 671 730 l 1,3,-1
 662 688 l 1,4,-1
 726 688 l 1,5,-1
 702 579 l 1,6,-1
 639 579 l 1,7,-1
 560 210 l 2,8,9
 557 195 557 195 557 186 c 0,10,11
 557 161 557 161 584 160 c 1,12,-1
 550 0 l 1,13,14
 500 -10 500 -10 469 -10 c 0,15,16
 373 -10 373 -10 373 63 c 2,17,-1
 373 82 l 1,18,19
 337 34 337 34 289.5 12 c 128,-1,20
 242 -10 242 -10 193 -10 c 0,21,22
 149 -10 149 -10 114.5 5.5 c 128,-1,23
 80 21 80 21 56 49 c 128,-1,24
 32 77 32 77 19.5 116 c 128,-1,25
 7 155 7 155 7 202 c 0,26,27
 7 270 7 270 30 330.5 c 128,-1,28
 53 391 53 391 92 437 c 128,-1,29
 131 483 131 483 182.5 509.5 c 128,-1,30
 234 536 234 536 291 536 c 0,31,32
 339 536 339 536 373.5 513 c 128,-1,33
 408 490 408 490 420 448 c 1,34,-1
 448 579 l 1,35,-1
 378 579 l 1,36,-1
 401 688 l 1,0,-1
279 150 m 0,37,38
 303 150 303 150 324 163.5 c 128,-1,39
 345 177 345 177 370 204 c 1,40,-1
 390 298 l 1,41,42
 385 333 385 333 365.5 354.5 c 128,-1,43
 346 376 346 376 319 376 c 0,44,45
 298 376 298 376 278 364 c 128,-1,46
 258 352 258 352 242 332.5 c 128,-1,47
 226 313 226 313 216.5 287 c 128,-1,48
 207 261 207 261 207 233 c 0,49,50
 207 195 207 195 225.5 172.5 c 128,-1,51
 244 150 244 150 279 150 c 0,37,38
EndSplineSet
EndChar

StartChar: Emacron
Encoding: 274 274 213
Width: 575
GlyphClass: 2
Flags: W
LayerCount: 2
Fore
SplineSet
148 710 m 1,0,-1
 622 710 l 1,1,-1
 586 540 l 1,2,-1
 307 540 l 1,3,-1
 286 440 l 1,4,-1
 524 440 l 1,5,-1
 490 282 l 1,6,-1
 252 282 l 1,7,-1
 228 170 l 1,8,-1
 516 170 l 1,9,-1
 480 0 l 1,10,-1
 -3 0 l 1,11,-1
 148 710 l 1,0,-1
252 793 m 1,12,-1
 276 906 l 1,13,-1
 572 906 l 1,14,-1
 548 793 l 1,15,-1
 252 793 l 1,12,-1
EndSplineSet
EndChar

StartChar: emacron
Encoding: 275 275 214
Width: 566
GlyphClass: 2
Flags: W
LayerCount: 2
Fore
SplineSet
233 -10 m 0,0,1
 182 -10 182 -10 140 6 c 128,-1,2
 98 22 98 22 68.5 51 c 128,-1,3
 39 80 39 80 23 121 c 128,-1,4
 7 162 7 162 7 213 c 0,5,6
 7 280 7 280 34 339 c 128,-1,7
 61 398 61 398 108 442 c 128,-1,8
 155 486 155 486 218.5 511 c 128,-1,9
 282 536 282 536 354 536 c 0,10,11
 450 536 450 536 503.5 495.5 c 128,-1,12
 557 455 557 455 557 383 c 0,13,14
 557 294 557 294 475.5 249 c 128,-1,15
 394 204 394 204 234 204 c 2,16,-1
 205 204 l 1,17,18
 205 161 205 161 219.5 143.5 c 128,-1,19
 234 126 234 126 269 126 c 0,20,21
 333 126 333 126 367 180 c 1,22,-1
 516 132 l 1,23,24
 494 100 494 100 462.5 74 c 128,-1,25
 431 48 431 48 393.5 29 c 128,-1,26
 356 10 356 10 315 0 c 128,-1,27
 274 -10 274 -10 233 -10 c 0,0,1
320 401 m 0,28,29
 291 401 291 401 266.5 378.5 c 128,-1,30
 242 356 242 356 226 318 c 1,31,-1
 233 318 l 2,32,33
 310 318 310 318 340.5 327.5 c 128,-1,34
 371 337 371 337 371 362 c 0,35,36
 371 379 371 379 357 390 c 128,-1,37
 343 401 343 401 320 401 c 0,28,29
219 607 m 1,38,-1
 243 720 l 1,39,-1
 539 720 l 1,40,-1
 515 607 l 1,41,-1
 219 607 l 1,38,-1
EndSplineSet
EndChar

StartChar: Ebreve
Encoding: 276 276 215
Width: 575
GlyphClass: 2
Flags: W
LayerCount: 2
Fore
SplineSet
148 710 m 1,0,-1
 622 710 l 1,1,-1
 586 540 l 1,2,-1
 307 540 l 1,3,-1
 286 440 l 1,4,-1
 524 440 l 1,5,-1
 490 282 l 1,6,-1
 252 282 l 1,7,-1
 228 170 l 1,8,-1
 516 170 l 1,9,-1
 480 0 l 1,10,-1
 -3 0 l 1,11,-1
 148 710 l 1,0,-1
400 835 m 0,12,13
 422 835 422 835 443 858 c 128,-1,14
 464 881 464 881 475 916 c 1,15,-1
 573 916 l 1,16,17
 565 880 565 880 547.5 850.5 c 128,-1,18
 530 821 530 821 505 799.5 c 128,-1,19
 480 778 480 778 448.5 766 c 128,-1,20
 417 754 417 754 383 754 c 0,21,22
 323 754 323 754 289.5 787 c 128,-1,23
 256 820 256 820 256 875 c 0,24,25
 256 893 256 893 261 916 c 1,26,-1
 359 916 l 1,27,28
 356 904 356 904 356 893 c 0,29,30
 356 868 356 868 368 851.5 c 128,-1,31
 380 835 380 835 400 835 c 0,12,13
EndSplineSet
EndChar

